<ttFont>
          <CharString index="0">
            125 -105 123 -46 callgsubr
            hintmask 0111000101000000
            87 hmoveto
            1155 hlineto
            22 114 32 184 -1 112 rrcurveto
            -124 hlineto
            -181 -21 -109 -114 -178 hhcurveto
            -191 hlineto
            -158 5 -34 28 131 vvcurveto
            482 201 vlineto
            128 13 -57 -136 8 hvcurveto
            123 hlineto
            8 2 15 9 vvcurveto
            hintmask 0111000100100000
            8 117 10 143 131 17 -1 19 17 vvcurveto
            -122 -1 rlineto
            -111 -12 -5 -58 -146 hhcurveto
            -207 535 368 hlineto
            187 53 -16 -225 14 hvcurveto
            102 hlineto
            hintmask 0110010101000000
            15 54 31 157 -1 167 rrcurveto
            hintmask 0111000101000000
            11 callgsubr
            hintmask 1010100101000000
            -12 -25 callgsubr
            36 31 1 9 hhcurveto
            56 31 -52 -141 hvcurveto
            -914 vlineto
            -147 -21 -20 callsubr
            hintmask 0000001010000000
            return
          </CharString>
          <CharString index="1">
            649 -15 rmoveto
            10 -1 rlineto
            45 23 110 6 0 vvcurveto
            0 6 19 10 30 vhcurveto
            49 151 150 476 118 325 rrcurveto
            149 -451 198 -578 0 vvcurveto
            10 -1 rlineto
            44 23 111 6 0 vvcurveto
            0 408 1111 62 170 vhcurveto
            102 36 27 18 105 hhcurveto
            14 -64 callgsubr
            -526 hlineto
            -11 -128 rlineto
            6 25 37 6 32 hhcurveto
            50 51 -9 -66 2 hvcurveto
            1 -61 -95 -258 -115 -306 -54 -141 -54 -156 -56 -155 -82 278 -227 720 -14 54 rrcurveto
            -3 13 -1 12 11 vvcurveto
            55 43 9 163 vhcurveto
            5 callgsubr
            -612 hlineto
            -12 -126 rlineto
            2 11 1 2 hhcurveto
            4 18 16 5 20 hhcurveto
            62 38 -75 -99 33 hvcurveto
            -102 -304 -117 -353 -110 -307 -98 282 -249 709 -10 37 rrcurveto
            -4 19 -2 15 11 vvcurveto
            62 56 3 124 vhcurveto
            15 -64 callgsubr
            -573 hlineto
            -13 -130 rlineto
            10 24 24 4 25 hhcurveto
            56 31 -83 -155 53 hvcurveto
            172 -433 273 -758 0 vvcurveto
            return
          </CharString>
          <CharString index="2">
            -4 hmoveto
            526 hlineto
            16 125 -42 -15 -79 -1 -30 1 rlinecurve
            1 hlineto
            -36 3 -25 38 15 40 128 366 rcurveline
            534 hlineto
            128 -339 rlineto
            1 vlineto
            14 -66 -30 -45 -167 2 -15 -110 rcurveline
            595 hlineto
            22 129 rlineto
            -21 -33 -25 2 -20 hhcurveto
            -51 -1 -61 96 -46 130 -462 1238 rcurveline
            -24 -35 -109 -19 -29 hhcurveto
            -500 -1298 rlineto
            1 hlineto
            -96 -40 -30 -27 -102 hhcurveto
            504 571 rmoveto
            215 611 230 -611 rlineto
            return
          </CharString>
          <CharString index="3">
            120 736 rmoveto
            -481 -7 289 -270 406 hhcurveto
            492 275 379 433 14 hvcurveto
            470 1 -287 279 -400 hhcurveto
            -499 -277 -370 -440 -7 hvcurveto
            738 -624 rmoveto
            -334 -171 285 404 7 hvcurveto
            418 7 217 199 267 hhcurveto
            334 170 -281 -404 -7 hvcurveto
            -418 -6 -216 -203 -268 hhcurveto
            return
          </CharString>
          <CharString index="4">
            4 85 4 83 88 vvcurveto
            259 -163 79 -185 -235 -180 -122 -49 -75 vhcurveto
            -17 -12 -8 -10 -3 -13 9 -69 rlinecurve
            8 -73 12 -52 0 vvcurveto
            7 -2 rlineto
            179 hlineto
            -5 26 -3 25 24 vvcurveto
            126 81 70 142 89 139 -56 -178 7 vhcurveto
            -14 1 -13 -13 vvcurveto
            1 -40 1 -39 -44 vvcurveto
            -11 hlineto
            return
          </CharString>
          <CharString index="5">
            115 595 rmoveto
            -335 174 -275 350 337 272 274 384 322 -190 244 -334 -322 -287 -231 -383 vhcurveto
            577 -483 rmoveto
            -224 -125 212 307 317 150 140 176 213 132 -202 -320 -314 -141 -140 -181 hvcurveto
            return
          </CharString>
          <CharString index="6">
            89 hmoveto
            523 hlineto
            17 117 rlineto
            -6 -26 -43 -5 -20 hhcurveto
            -75 -17 10 125 hvcurveto
            672 vlineto
            28 43 134 87 137 hhcurveto
            193 15 -98 -260 -276 -7 -136 -17 -77 hvcurveto
            1 vlineto
            -67 -19 -53 -9 -62 hhcurveto
            -18 -106 rlineto
            512 hlineto
            15 118 rlineto
            -8 -25 -31 -4 -29 hhcurveto
            -67 -18 48 147 -1 hvcurveto
            -1 103 6 97 5 92 rrcurveto
            5 86 4 83 89 vvcurveto
            261 -152 97 -181 -161 -169 -126 -47 -58 vhcurveto
            102 11 70 0 vhcurveto
            -358 -54 -16 -126 rlineto
            77 40 -16 -24 17 hvcurveto
            19 -25 10 -57 -77 vvcurveto
            -483 vlineto
            -210 -38 -30 -105 vhcurveto
            return
          </CharString>
          <CharString index="7">
            -103 callsubr
            hintmask 1110100010000000
            -82 callgsubr
            hintmask 1110100100000000
            -85 callsubr
            hintmask 1110100010000000
            -44 callsubr
            return
          </CharString>
          <CharString index="8">
            18 51 20 126 95 vvcurveto
            15 -1 17 -1 13 vhcurveto
            -125 hlineto
            -239 -76 -111 -76 -236 hhcurveto
            -307 -301 226 467 374 205 273 382 165 136 -33 -100 62 hvcurveto
            23 -47 18 -97 7 -65 rrcurveto
            128 hlineto
            18 124 14 134 97 vvcurveto
            20 -1 21 -1 16 vhcurveto
            -2 -20 -8 0 -9 hhcurveto
            -65 -100 11 10 -90 hvcurveto
            11 -93 -99 11 -70 hhcurveto
            -495 -354 -303 -483 hvcurveto
            return
          </CharString>
          <CharString index="9">
            199 -107 164 -46 callgsubr
            hintmask 1110100001000000
            101 -238 rmoveto
            -176 196 -104 303 312 217 164 248 194 -157 61 -238 28 vhcurveto
            -96 12 rlineto
            hintmask 1110001010000000
            -163 18 -70 9 78 vvcurveto
            40 49 41 14 11 vhcurveto
            -3 33 39 1 26 hhcurveto
            239 267 164 268 91 -23 73 -38 57 hvcurveto
            164 3 rlineto
            170 vlineto
            -314 -45 rlineto
            30 -65 -71 14 -68 hhcurveto
            hintmask 1110010001000000
            -326 -219 -209 -220 -138 55 -161 181 -66 hvcurveto
            hintmask 1110001001000000
            -61 -37 -75 -102 -79 vvcurveto
            -50 32 -51 86 -38 vhcurveto
            hintmask 1110100001000000
            -138 -57 -91 -110 -129 vvcurveto
            hintmask 1110010010000000
            511 742 rmoveto
            -172 -125 142 151 244 145 38 130 182 101 -128 -176 -175 -110 -96 -151 hvcurveto
            -300 -695 rmoveto
            hintmask 1110100001000000
            80 30 82 97 56 vhcurveto
            102 -14 291 -40 134 -19 -1 -142 rlinecurve
            -118 -1 -96 -83 -241 hhcurveto
            -181 -134 69 129 hvcurveto
            hintmask 0001000100000000
            return
          </CharString>
          <CharString index="10">
            3 -24 6 -24 7 -19 rrcurveto
            118 -298 163 -464 0 vvcurveto
            119 19 317 877 rlineto
            115 40 42 89 48 hhcurveto
            8 9 0 -8 20 hvcurveto
            5 callgsubr
            -450 hlineto
            -17 -114 rlineto
            4 29 21 2 17 hhcurveto
            50 41 -15 -61 -21 -7 -52 -11 -32 hvcurveto
            -209 -622 -6 35 -18 42 -10 28 rlinecurve
            -104 290 -106 304 -43 213 -29 -8 -62 -10 -39 -1 -5 -34 -16 -75 -13 -44 -44 -150 -76 -229 -143 -362 rrcurveto
            return
          </CharString>
          <CharString index="11">
            -10 -42 -32 -5 -25 -81 -65 23 -86 hhcurveto
            -200 -219 -111 -219 2 hvcurveto
            2 -208 185 -92 156 -70 111 -55 155 -37 1 -149 rrcurveto
            -121 1 -78 -41 -128 hhcurveto
            -179 -76 73 164 -7 hvcurveto
            -130 hlineto
            -14 -109 -2 -79 -3 -124 rrcurveto
            return
          </CharString>
          <CharString index="12">
            126 31 rmoveto
            3 14 25 -1 12 hhcurveto
            33 44 -9 -10 49 hvcurveto
            -13 66 76 -16 83 hhcurveto
            209 204 127 229 -2 hvcurveto
            -2 197 -225 103 -164 73 -117 52 -111 59 -1 104 rrcurveto
            112 -1 78 51 111 hhcurveto
            154 64 -57 -156 2 hvcurveto
            124 hlineto
            return
          </CharString>
          <CharString index="13">
            110 52 119 53 110 52 327 -157 rcurveline
            64 111 -391 265 -396 -273 rlineto
            endchar
          </CharString>
          <CharString index="14">
            -32 54 62 -36 60 hhcurveto
            165 88 154 35 8 hvcurveto
            -89 97 rlineto
            -69 -57 -35 -33 -60 hhcurveto
            -35 -42 27 27 -40 hvcurveto
            return
          </CharString>
          <CharString index="15">
            1172 hlineto
            1 20 5 26 6 31 rrcurveto
            13 71 19 100 106 vvcurveto
            30 -2 34 -3 29 vhcurveto
            -124 hlineto
            -174 -19 -45 -163 -287 hhcurveto
            -165 hlineto
            -88 -72 18 152 hvcurveto
            943 vlineto
            11 -1 10 10 vvcurveto
            147 58 12 158 vhcurveto
            14 117 rlineto
            -600 hlineto
            -16 -126 rlineto
            2 10 1 2 hhcurveto
            5 23 21 4 27 hhcurveto
            60 21 -17 -149 hvcurveto
            1 -917 rlineto
            -181 -59 -38 -120 3 vhcurveto
            return
          </CharString>
          <CharString index="16">
            108 304 rmoveto
            -196 128 -131 245 83 173 69 97 100 vhcurveto
            -108 40 79 -57 82 hhcurveto
            51 14 92 93 4 68 rrcurveto
            return
          </CharString>
          <CharString index="17">
            rmoveto
            296 70 238 83 hvcurveto
            -130 16 rlineto
            0 -60 -170 -176 -204 -40 167 1 -1 vhcurveto
            -1 1 -109 -15 0 vvcurveto
            -101 59 -220 296 vhcurveto
            endchar
          </CharString>
          <CharString index="18">
            hintmask 00000000
            hintmask 11001000
            119 87 rmoveto
            39 -87 rlineto
            906 hlineto
            47 387 rlineto
            -125 hlineto
            -39 -190 -73 -50 -83 -14 -110 -15 -120 -1 -165 -1 rrcurveto
            hintmask 10101000
            188 313 214 274 199 284 rrcurveto
            43 59 34 41 0 vvcurveto
            hintmask 11001000
            -17 103 rlineto
            -876 hlineto
            -34 -343 rlineto
            129 hlineto
            14 148 53 46 106 17 rrcurveto
            10 65 87 3 74 hhcurveto
            48 38 -1 -1 38 hvcurveto
            -98 -161 -216 -301 -173 -244 -78 -110 -70 -98 -45 -66 rrcurveto
            hintmask 00010100
            return
          </CharString>
          <CharString index="19">
            rmoveto
            296 70 232 84 hvcurveto
            -130 18 rlineto
            0 -60 -167 -176 -176 -55 158 9 -4 vhcurveto
            -120 -18 rlineto
            -101 59 -215 296 vhcurveto
            endchar
          </CharString>
          <CharString index="20">
            rmoveto
            326 175 312 -175 86 106 -398 302 -405 -301 rlineto
            endchar
          </CharString>
          <CharString index="21">
            -8 43 -9 42 -16 39 rrcurveto
            -61 169 -134 304 128 vvcurveto
            65 35 13 61 18 32 -2 -5 27 vhcurveto
            20 115 rlineto
            -552 hlineto
            -14 -108 rlineto
            75 52 -21 -79 27 hvcurveto
            4 -12 374 -985 0 vvcurveto
            return
          </CharString>
          <CharString index="22">
            8 9 -1 -3 8 hvcurveto
            -1 -69 -3 -86 -6 -115 rrcurveto
            -21 vlineto
            -86 -70 -116 -72 -96 hhcurveto
            return
          </CharString>
          <CharString index="23">
            rmoveto
            83 66 65 78 86 -66 66 -83 -88 -67 -66 -86 -78 67 -65 88 hvcurveto
            -466 hmoveto
            83 63 65 78 86 -63 66 -83 -89 -69 -66 -86 -78 69 -65 89 hvcurveto
            endchar
          </CharString>
          <CharString index="24">
            241 -13 130 -116 111 612 127 566 115 -101 116 hstemhm
            273 217 766 239 hintmask 00000000
            hintmask 10101110
            93 2 rmoveto
            281 -1 rlineto
            35 67 -4 -3 63 hvcurveto
            hintmask 01101110
            -4 65 66 -3 38 hhcurveto
            475 312 327 497 490 -262 246 -514 -78 -61 -4 -4 -58 hvcurveto
            hintmask 10101110
            -4 -54 -51 -3 -63 hhcurveto
            -252 hlineto
            -10 -127 rlineto
            9 30 22 3 20 hhcurveto
            hintmask 10110110
            71 38 -42 -144 hvcurveto
            -380 -144 vlineto
            -20 -127 rlineto
            164 -436 hlineto
            -147 -62 -29 -111 vhcurveto
            390 98 rmoveto
            514 332 vlineto
            20 127 rlineto
            -352 hlineto
            hintmask 10101110
            560 vlineto
            12 53 61 8 54 hhcurveto
            353 245 -145 -521 -459 -214 -189 -297 hvcurveto
            hintmask 10110110
            -260 5 5 -9 callsubr
          </CharString>
          <CharString index="25">
            hintmask 00000000
            hintmask 11001000
            101 68 rmoveto
            45 -68 rlineto
            1084 hlineto
            12 75 22 128 21 132 -1 85 rlinecurve
            -126 1 rlineto
            -222 -58 -116 -84 -167 hhcurveto
            -426 hlineto
            hintmask 10101000
            882 1345 rlineto
            hintmask 11001000
            -36 70 rlineto
            -710 hlineto
            -116 -242 7 0 -121 -16 -195 -26 -95 hvcurveto
            141 hlineto
            166 50 34 122 179 hhcurveto
            453 hlineto
            hintmask 00010100
            return
          </CharString>
          <CharString index="26">
            141 hmoveto
            590 hlineto
            11 126 rlineto
            -9 -37 -38 -7 -37 hhcurveto
            -98 -14 55 115 hvcurveto
            404 84 vlineto
            187 48 -43 -158 95 hvcurveto
            33 -55 25 -67 25 -65 27 -70 25 -66 45 -57 rrcurveto
            -55 51 68 -48 125 hhcurveto
            152 hlineto
            return
          </CharString>
          <CharString index="27">
            57 hmoveto
            489 hlineto
            15 120 rlineto
            -8 -17 -40 -6 -18 hhcurveto
            -56 -15 14 116 hvcurveto
            345 vlineto
            30 -35 38 -52 42 -57 rrcurveto
            -186 137 186 -251 160 hhcurveto
            207 hlineto
            10 120 rlineto
            -8 -17 -32 -6 -14 hhcurveto
            -54 -67 55 75 -71 hvcurveto
            -181 174 -193 232 -5 6 56 54 170 155 154 121 rrcurveto
            39 42 69 62 75 hhcurveto
            30 hlineto
            10 111 rlineto
            -523 hlineto
            -12 -111 rlineto
            114 16 -12 -33 -52 -251 -215 -126 -99 hvcurveto
            527 vlineto
            271 9 175 15 64 vhcurveto
            -401 -59 -12 -114 rlineto
            76 -8 callsubr
            -77 vvcurveto
            -1052 vlineto
            -154 -22 -53 -122 vhcurveto
            return
          </CharString>
          <CharString index="28">
            5 132 -29 -9 -27 -5 -29 1 rlinecurve
            -55 1 -64 110 -74 127 -79 136 -89 160 -109 56 rrcurveto
            165 41 195 161 243 vvcurveto
            239 -160 152 -336 -44 -88 -4 -4 -84 vhcurveto
            return
          </CharString>
          <CharString index="29">
            90 hmoveto
            563 hlineto
            15 126 rlineto
            -6 -27 -47 -10 -47 hhcurveto
            -53 -11 14 145 hvcurveto
            457 738 -399 vlineto
            -149 -25 -68 -136 vhcurveto
            -18 -110 rlineto
            551 hlineto
            12 124 rlineto
            -7 -27 -38 -7 -19 hhcurveto
            -54 -30 33 115 hvcurveto
            955 vlineto
            169 45 32 111 vhcurveto
            14 -64 callgsubr
            -556 hlineto
            -19 -128 rlineto
            6 29 30 6 46 hhcurveto
            66 18 -27 -173 hvcurveto
            -362 -738 356 vlineto
            195 28 11 122 vhcurveto
            15 -64 callgsubr
            -533 hlineto
            -12 -25 callgsubr
            37 31 1 10 hhcurveto
            54 31 -52 -141 hvcurveto
            -914 vlineto
            -147 -21 -20 callsubr
            return
          </CharString>
          <CharString index="30">
            rmoveto
            612 hlineto
            13 126 rlineto
            -9 -40 -49 -6 -58 hhcurveto
            -55 -5 78 96 hvcurveto
            453 vlineto
            32 5 67 3 31 vhcurveto
            4 31 8 30 9 27 -481 -123 rcurveline
            29 -109 rlineto
            12 54 56 18 55 hhcurveto
            44 13 -36 -101 hvcurveto
            -359 vlineto
            -132 -8 -14 -95 2 vhcurveto
            -101 hlineto
            endchar
          </CharString>
          <CharString index="31">
            216 237 rmoveto
            -194 7 74 -58 166 hhcurveto
            122 152 73 70 74 hvcurveto
            -44 85 rlineto
            -27 -42 -74 -31 -74 hhcurveto
            -117 -42 23 175 hvcurveto
            684 377 153 -369 307 -109 vlineto
            -36 -231 -34 -93 -197 -34 -8 -102 rcurveline
            174 hlineto
            return
          </CharString>
          <CharString index="32">
            rmoveto
            390 302 -84 105 -100 -58 -106 -58 -100 -58 rlinecurve
            -320 174 -77 -105 rlineto
            endchar
          </CharString>
          <CharString index="33">
            -15 -135 rlineto
            5 33 36 6 30 hhcurveto
            75 14 -39 -146 hvcurveto
            -937 vlineto
            -166 -65 -8 -106 vhcurveto
            return
          </CharString>
          <CharString index="34">
            rmoveto
            801 hlineto
            35 294 rlineto
            -139 hlineto
            -15 -85 -26 -36 -59 -13 rrcurveto
            -14 -123 -77 -8 -156 hhcurveto
            112 56 402 254 225 vvcurveto
            200 -155 79 -193 -112 -70 -23 -17 -58 vhcurveto
            -13 -39 -34 -10 -34 hhcurveto
            -13 -14 1 3 -16 hvcurveto
            -34 1 -52 1 -40 vhcurveto
            1 -52 1 -58 -58 vvcurveto
            142 hlineto
            138 60 104 157 82 70 -50 -115 -214 -233 -161 -187 -131 vhcurveto
            -50 -35 -50 -34 -38 -31 rrcurveto
            -3 2 -48 24 -19 vhcurveto
            return
          </CharString>
          <CharString index="35">
            21 callsubr
            -98 callgsubr
            endchar
          </CharString>
          <CharString index="36">
            13 129 rlineto
            -7 -29 -59 -4 -17 hhcurveto
            -65 1 -17 34 -31 126 -73 306 -38 244 -44 303 -19 133 rcurveline
            -3 23 -2 22 16 vvcurveto
            74 37 14 128 vhcurveto
            15 -64 callgsubr
            -449 hlineto
            -49 -218 -179 -523 -163 -473 -178 478 -179 546 -33 190 rrcurveto
            -452 hlineto
            -16 -128 rlineto
            6 27 30 6 46 hhcurveto
            65 15 -45 -51 -26 -3 -28 -4 -24 hvcurveto
            -73 -460 -40 -263 -63 -252 rrcurveto
            return
          </CharString>
          <CharString index="37">
            rmoveto
            145 157 92 170 169 -127 104 -175 -146 -156 -92 -169 -170 126 -104 176 hvcurveto
            121 vmoveto
            -76 -65 69 84 81 56 59 85 75 65 -68 -84 -82 -56 -59 -84 hvcurveto
            endchar
          </CharString>
          <CharString index="38">
            521 24 callgsubr
            -9 -36 -48 -2 -20 hhcurveto
            -48 -28 16 86 hvcurveto
            697 vlineto
            44 71 122 79 154 hhcurveto
            192 5 -239 -137 -275 -8 -110 -22 -77 hvcurveto
            -68 -20 -60 -16 -63 hhcurveto
            -14 -106 rlineto
            513 hlineto
            12 117 rlineto
            -6 -33 -40 -5 -18 hhcurveto
            -40 -27 8 85 hvcurveto
            2 229 19 212 213 vvcurveto
            241 -138 115 -181 -198 -158 -122 -58 -70 vhcurveto
            166 vlineto
            return
          </CharString>
          <CharString index="39">
            -39 hmoveto
            568 hlineto
            16 127 -40 -14 -83 -4 -32 1 rlinecurve
            -24 2 -33 12 37 vvcurveto
            16 15 29 9 17 vhcurveto
            241 455 rlineto
            377 -409 hlineto
            -133 -53 -26 -106 vhcurveto
            -4 -22 -13 -86 0 vvcurveto
            7 -2 rlineto
            1145 hlineto
            22 114 32 184 -1 112 rrcurveto
            -121 20 callsubr
            -196 hlineto
            -159 5 -36 28 131 vvcurveto
            399 184 vlineto
            return
          </CharString>
          <CharString index="40">
            -68 -112 26 161 98 4 89 4 88 hvcurveto
            return
          </CharString>
          <CharString index="41">
            342 244 305 352 430 -250 137 -224 -109 -158 -63 -83 -104 hvcurveto
            8 132 rlineto
            271 4 174 15 65 vhcurveto
            -402 21 callgsubr
            52 return
          </CharString>
          <CharString index="42">
            rmoveto
            596 -185 39 118 -563 260 rlineto
            endchar
          </CharString>
          <CharString index="43">
            92 -5 80 69 4 93 5 85 -55 66 -83 14 14 106 125 173 50 49 rrcurveto
            0 -13 35 -54 2 vhcurveto
            -54 2 -269 -247 -14 -238 -6 -102 56 -96 122 -6 rrcurveto
            return
          </CharString>
          <CharString index="44">
            -103 -17 173 430 116 386 121 return
          </CharString>
          <CharString index="45">
            -5 -249 177 -165 193 -7 rrcurveto
            246 -9 214 174 308 0 callgsubr
            -171 -207 -255 -6 vhcurveto
            return
          </CharString>
          <CharString index="46">
            rmoveto
            73 113 -431 344 -122 -170 rlineto
            endchar
          </CharString>
          <CharString index="47">
            -103 -23 145 453 106 397 131 return
          </CharString>
          <CharString index="48">
            1157 rmoveto
            0 35 -33 50 49 167 191 210 112 -56 83 -107 -92 -75 -74 -91 -85 63 -68 80 -11 vhcurveto
            -2 -95 -67 -90 -45 -49 rrcurveto
            return
          </CharString>
          <CharString index="49">
            288 240 rmoveto
            -2 -274 -34 -243 -222 -182 71 -61 rcurveline
            167 80 227 173 -3 370 rrcurveto
            71 -2 52 -2 59 vhcurveto
            -3 90 -4 106 217 vvcurveto
            211 9 227 29 74 vhcurveto
            -423 12 callsubr
            60 -44 -142 hvcurveto
            -493 1 -107 -2 vvcurveto
            return
          </CharString>
          <CharString index="50">
            61 hhcurveto
            35 46 -28 -28 48 hvcurveto
            return
          </CharString>
          <CharString index="51">
            411 -15 127 1306 128 return
          </CharString>
          <CharString index="52">
            rmoveto
            386 301 -118 148 -355 -357 rlineto
            -360 -92 rmoveto
            386 301 -119 148 -355 -357 rlineto
            endchar
          </CharString>
          <CharString index="53">
            130 304 rmoveto
            -196 140 -131 234 143 189 101 123 79 vhcurveto
            -141 73 132 -77 205 hhcurveto
            127 196 77 107 128 hvcurveto
            -45 87 -104 -55 -127 -35 -118 -8 rlinecurve
            -221 4 -125 148 278 vvcurveto
            return
          </CharString>
          <CharString index="54">
            rmoveto
            358 218 -91 156 -347 -274 rlineto
            -338 -100 rmoveto
            327 238 -102 136 -305 -274 rlineto
            endchar
          </CharString>
          <CharString index="55">
            -266 0 -110 -12 -192 vhcurveto
            213 235 rmoveto
            1 -1 rlineto
            728 vlineto
            -2 -1 rlineto
            27 25 148 73 105 hhcurveto
            215 149 -165 -258 -313 -134 -192 -239 -99 -132 45 57 -37 hvcurveto
            return
          </CharString>
          <CharString index="56">
            71 -61 167 80 227 173 -3 370 rlinecurve
            209 -11 193 193 vvcurveto
            211 9 227 29 74 vhcurveto
            -423 12 callsubr
            61 -44 -142 hvcurveto
            1 -493 0 -28 -81 vvcurveto
            endchar
          </CharString>
          <CharString index="57">
            14 96 18 91 93 vvcurveto
            19 -2 15 -1 8 vhcurveto
            return
          </CharString>
          <CharString index="58">
            183 -182 198 -46 callgsubr
            return
          </CharString>
          <CharString index="59">
            106 -1 157 74 11 158 5 82 -55 49 -49 41 return
          </CharString>
          <CharString index="60">
            67 -15 127 976 121 return
          </CharString>
          <CharString index="61">
            97 hlineto
            16 54 31 157 -1 167 rrcurveto
            0 -86 -16 -272 vhcurveto
            -1182 hlineto
            -9 -155 rlineto
            19 64 140 19 71 hhcurveto
            140 hlineto
            -219 -378 -253 -431 -215 -372 rrcurveto
            return
          </CharString>
          <CharString index="62">
            rmoveto
            -367 200 -193 259 119 156 76 64 90 vhcurveto
            return
          </CharString>
          <CharString index="63">
            -117 -79 86 109 hvcurveto
            return
          </CharString>
          <CharString index="64">
            -153 -35 -7 hvcurveto
            endchar
          </CharString>
          <CharString index="65">
            438 -1263 rlineto
            18 59 39 12 50 hhcurveto
            74 263 93 270 88 255 50 144 51 149 49 154 46 -250 62 -337 58 -340 rrcurveto
            4 -24 1 -24 -19 vvcurveto
            return
          </CharString>
          <CharString index="66">
            rmoveto
            750 hlineto
            19 156 rlineto
            -750 hlineto
            endchar
          </CharString>
          <CharString index="67">
            0 -90 -16 -271 vhcurveto
            return
          </CharString>
          <CharString index="68">
            161 3 97 44 119 hhcurveto
            90 57 -64 -85 -122 -81 -58 -193 -10 hvcurveto
            -15 -1 23 -76 6 hhcurveto
            20 3 rlineto
            1 6 7 1 2 hhcurveto
            1 13 12 0 12 hhcurveto
            return
          </CharString>
          <CharString index="69">
            237 5 93 83 104 hhcurveto
            121 87 -169 -191 -201 -81 -135 -125 return
          </CharString>
          <CharString index="70">
            79 hmoveto
            539 hlineto
            11 129 rlineto
            -7 -38 -49 -8 -31 hhcurveto
            -90 -11 48 59 179 42 174 31 169 hvcurveto
            29 159 32 177 24 167 rrcurveto
            return
          </CharString>
          <CharString index="71">
            rmoveto
            507 -533 116 84 -305 449 305 447 -113 75 rlineto
            return
          </CharString>
          <CharString index="72">
            rmoveto
            8 -1 111 18 281 810 rlineto
            return
          </CharString>
          <CharString index="73">
            -4 -71 -80 -5 -161 hhcurveto
            -202 hlineto
            -18 -119 rlineto
            7 31 26 4 49 hhcurveto
            95 -3 -36 -146 hvcurveto
            1 -909 rlineto
            -149 -35 -73 -122 vhcurveto
            return
          </CharString>
          <CharString index="74">
            116 133 -3 callsubr
            return
          </CharString>
          <CharString index="75">
            127 1302 116 return
          </CharString>
          <CharString index="76">
            579 3 -21 23 -21 1097 108 -107 108 return
          </CharString>
          <CharString index="77">
            0 110 return
          </CharString>
          <CharString index="78">
            159 60 -68 -104 -90 -47 -85 -162 -139 -92 62 135 -6 hvcurveto
            -100 hlineto
            -5 -36 -2 -49 -42 vvcurveto
            -41 2 -33 6 -50 vhcurveto
            endchar
          </CharString>
          <CharString index="79">
            204 -182 206 -206 -260 return
          </CharString>
          <CharString index="80">
            -445 -24 callsubr
            return
          </CharString>
          <CharString index="81">
            184 -60 183 hstemhm
            return
          </CharString>
          <CharString index="82">
            241 -15 130 -116 111 1305 115 -101 116 return
          </CharString>
          <CharString index="83">
            0 -32 callgsubr
            return
          </CharString>
          <CharString index="84">
            hlineto
            20 162 rlineto
            return
          </CharString>
          <CharString index="85">
            117 hlineto
            8 122 11 172 147 vvcurveto
            49 vlineto
            -117 -1 rlineto
            -111 -11 -29 -58 -147 hhcurveto
            -190 612 hlineto
            return
          </CharString>
          <CharString index="86">
            -508 111 -111 121 372 127 928 169 return
          </CharString>
          <CharString index="87">
            -50 -138 vhcurveto
            return
          </CharString>
          <CharString index="88">
            67 0 115 1299 116 -70 70 return
          </CharString>
          <CharString index="89">
            -9 -52 -46 -8 -35 hhcurveto
            -6 hlineto
            -2 -9 1 -2 hhcurveto
            -5 -45 -2 -38 -35 vvcurveto
            -52 4 -42 7 -53 vhcurveto
            120 hlineto
            return
          </CharString>
          <CharString index="90">
            65 85 92 return
          </CharString>
          <CharString index="91">
            -615 0 106 1104 -20 return
          </CharString>
          <CharString index="92">
            vvcurveto
            -142 125 -81 132 78 88 27 41 8 callgsubr
            -76 -77 41 89 return
          </CharString>
          <CharString index="93">
            -103 0 116 955 119 -103 103 return
          </CharString>
          <CharString index="94">
            134 376 hstemhm
            return
          </CharString>
          <CharString index="95">
            -497 -21 518 return
          </CharString>
          <CharString index="96">
            -4 -54 31 -61 32 -29 -56 callgsubr
            return
          </CharString>
          <CharString index="97">
            rmoveto
            65 61 33 21 47 hhcurveto
            64 57 -37 -29 50 hvcurveto
            return
          </CharString>
          <CharString index="98">
            88 hvcurveto
            endchar
          </CharString>
          <CharString index="99">
            60 -1 -30 28 hvcurveto
            18 -23 9 -36 return
          </CharString>
          <CharString index="100">
            hstemhm
            209 200 return
          </CharString>
          <CharString index="101">
            hstemhm
            110 209 return
          </CharString>
          <CharString index="102">
            0 55 -18 144 -1 vhcurveto
            return
          </CharString>
          <CharString index="103">
            50 vhcurveto
            95 vlineto
            -12 -27 return
          </CharString>
          <CharString index="104">
            378 hstemhm
            return
          </CharString>
          <CharString index="105">
            584 92 hstemhm
            150 209 410 207 262 208 410 207 return
          </CharString>
          <CharString index="106">
            rmoveto
            142 hlineto
            64 654 rlineto
            -270 hlineto
            return
          </CharString>
          <CharString index="107">
            hstemhm
            1 callsubr
            return
          </CharString>
          <CharString index="108">
            195 219 return
          </CharString>
          <CharString index="109">
            238 -16 116 -101 111 630 115 559 116 -101 116 return
          </CharString>
          <CharString index="110">
            -87 -54 -11 -36 -91 hhcurveto
            683 692 rmoveto
            312 587 -1 -587 rlineto
            return
          </CharString>
          <CharString index="111">
            728 hlineto
            31 -1 84 43 hvcurveto
            321 -1 -131 175 -294 hhcurveto
            return
          </CharString>
          <CharString index="112">
            336 hlineto
            19 163 rlineto
            -355 362 -186 -362 -335 hlineto
            return
          </CharString>
          <CharString index="113">
            921 0 114 -114 118 -114 -21 1431 116 return
          </CharString>
          <CharString index="114">
            -57 callgsubr
            -108 -43 callsubr
          </CharString>
          <CharString index="115">
            248 173 121 174 81 -58 113 -157 32 hvcurveto
            return
          </CharString>
          <CharString index="116">
            -213 -337 124 925 127 925 124 hstemhm
            return
          </CharString>
          <CharString index="117">
            66 -30 callsubr
            487 122 703 108 -98 113 return
          </CharString>
          <CharString index="118">
            116 -13 callsubr
            return
          </CharString>
          <CharString index="119">
            -56 -16 -126 rlineto
            147 return
          </CharString>
          <CharString index="120">
            16 -64 callgsubr
            return
          </CharString>
          <CharString index="121">
            -203 -76 -143 -308 -236 -64 22 114 vhcurveto
            return
          </CharString>
          <CharString index="122">
            -127 -73 -31 -98 3 vhcurveto
            -13 -99 rlineto
            599 hlineto
            return
          </CharString>
          <CharString index="123">
            rmoveto
            47 38 -9 -10 42 hvcurveto
            -12 52 58 -13 91 hhcurveto
            return
          </CharString>
          <CharString index="124">
            rmoveto
            21 callsubr
            return
          </CharString>
          <CharString index="125">
            hlineto
            63 341 rlineto
            -147 hlineto
            -63 -341 rlineto
            return
          </CharString>
          <CharString index="126">
            -12 -168 rlineto
            -5 callsubr
            return
          </CharString>
          <CharString index="127">
            hlineto
            -181 -21 -108 -114 -179 hhcurveto
            return
          </CharString>
          <CharString index="128">
            537 -30 callgsubr
            return
          </CharString>
          <CharString index="129">
            6 -21 1429 116 return
          </CharString>
          <CharString index="130">
            hstemhm
            26 callsubr
            return
          </CharString>
          <CharString index="131">
            hstemhm
            2 callgsubr
            return
          </CharString>
          <CharString index="132">
            113 4 callgsubr
            return
          </CharString>
          <CharString index="133">
            -4 1555 return
          </CharString>
          <CharString index="134">
            687 hstemhm
            231 404 95 404 return
          </CharString>
          <CharString index="135">
            110 1303 117 hstem
            253 return
          </CharString>
        <CharString name=".notdef">
          1053 endchar
        </CharString>
        <CharString name=".null">
          endchar
        </CharString>
        <CharString name="A">
          -58 callgsubr
          hstem
          26 callsubr
          vstem
          -105 callsubr
          endchar
        </CharString>
        <CharString name="AE">
          3 callgsubr
          hstemhm
          975 208 hintmask 00000000
          hintmask 01110100
          -68 callsubr
          hintmask 01101100
          128 38 -61 -136 8 hvcurveto
          hintmask 10110100
          -22 callsubr
          hintmask 01110100
          376 hlineto
          188 53 -20 -225 14 hvcurveto
          hintmask 10110100
          -46 callsubr
          hintmask 01110100
          3 callsubr
          endchar
        </CharString>
        <CharString name="AEacute">
          3 callgsubr
          137 -3 callsubr
          953 635 -613 208 hintmask 00000000
          hintmask 01110001
          -68 callsubr
          hintmask 01101001
          128 38 -61 -136 8 hvcurveto
          hintmask 10110001
          -22 callsubr
          hintmask 01110001
          376 hlineto
          188 53 -20 -225 14 hvcurveto
          hintmask 10110001
          -46 callsubr
          hintmask 01110001
          3 callsubr
          hintmask 00000110
          17 862 -83 callgsubr
        </CharString>
        <CharString name="Aacute">
          -58 callgsubr
          153 378 23 callsubr
          -1016 635 hintmask 11101000
          -105 callsubr
          hintmask 00010100
          -384 983 -83 callgsubr
        </CharString>
        <CharString name="Abreve">
          -58 callgsubr
          194 167 23 callsubr
          -1148 721 hintmask 11101000
          -105 callsubr
          hintmask 00010100
          -200 1024 -88 callsubr
        </CharString>
        <CharString name="Acircumflex">
          -58 callgsubr
          154 376 23 callsubr
          -1176 787 hintmask 11101000
          -105 callsubr
          hintmask 00010100
          -526 984 rmoveto
          -94 callsubr
        </CharString>
        <CharString name="Adieresis">
          -58 callgsubr
          23 callsubr
          vstemhm
          -105 callsubr
          50 1056 -91 callgsubr
        </CharString>
        <CharString name="Agrave">
          -58 callgsubr
          153 378 23 callsubr
          -1221 635 hintmask 11101000
          -105 callsubr
          hintmask 00010100
          -628 1168 -65 callsubr
        </CharString>
        <CharString name="Amacron">
          -58 callgsubr
          304 156 23 callsubr
          -1174 769 hintmask 11101000
          -105 callsubr
          hintmask 00010100
          -581 1134 -41 callsubr
        </CharString>
        <CharString name="Aogonek">
          224 -509 135 374 110 382 115 932 -20 hstem
          845 169 vstem
          0 vmoveto
          510 hlineto
          16 128 rlineto
          -14 -37 -69 -4 -35 hhcurveto
          -41 -41 31 42 17 hvcurveto
          110 309 rlineto
          594 hlineto
          33 -91 34 -91 34 -92 17 -93 -36 -79 -79 -47 rrcurveto
          -90 -62 -117 -76 -147 vvcurveto
          -142 145 -81 130 80 95 32 36 47 vhcurveto
          93 vlineto
          -3 -11 -84 -23 -54 hhcurveto
          -77 -77 41 89 150 204 94 110 hvcurveto
          185 hlineto
          21 133 rlineto
          -21 -33 -27 -2 -20 hhcurveto
          -41 -62 96 129 -47 hvcurveto
          -459 1236 rlineto
          -23 -71 -69 -9 -29 hhcurveto
          -495 -1307 rlineto
          -96 -39 -27 -27 -102 hhcurveto
          459 498 rmoveto
          83 233 84 233 84 234 87 -238 85 -230 86 -232 rrcurveto
          endchar
        </CharString>
        <CharString name="Aring">
          235 -30 callsubr
          447 123 822 122 -94 -20 407 120 23 callsubr
          -1082 162 281 161 hintmask 11010100
          -105 callsubr
          hintmask 00101011
          -187 822 -69 callgsubr
        </CharString>
        <CharString name="Atilde">
          -58 callgsubr
          153 -26 callsubr
          -4 1555 -1192 817 hintmask 11100100
          -105 callsubr
          hintmask 00000000
          -500 1005 15 callgsubr
          hintmask 00001010
          -93 callsubr
          hintmask 00010010
          7 callsubr
        </CharString>
        <CharString name="B">
          2 callsubr
          hstemhm
          294 217 567 239 -120 243 hintmask 00000000
          hintmask 01101101
          19 callgsubr
          hintmask 10101101
          -10 callgsubr
          hintmask 10101110
          -11 callgsubr
          hintmask 01110101
          -31 callgsubr
          hintmask 10101101
          -51 callgsubr
          hintmask 10101110
          14 callsubr
          endchar
        </CharString>
        <CharString name="C">
          -28 callgsubr
          hstem
          137 247 vstem
          137 759 rmoveto
          -583 438 -191 373 303 162 62 45 91 vhcurveto
          -99 callsubr
          endchar
        </CharString>
        <CharString name="CR">
          -658 endchar
        </CharString>
        <CharString name="Cacute">
          -28 callgsubr
          118 -3 callsubr
          137 247 342 635 hintmask 11010000
          137 759 rmoveto
          -583 438 -191 373 303 162 62 45 91 vhcurveto
          -99 callsubr
          hintmask 00101000
          628 904 -83 callgsubr
        </CharString>
        <CharString name="Ccaron">
          -28 callgsubr
          1 callgsubr
          137 247 182 788 hintmask 11010000
          137 759 rmoveto
          -583 438 -191 373 303 162 62 45 91 vhcurveto
          -99 callsubr
          hintmask 00101000
          826 905 -79 callgsubr
        </CharString>
        <CharString name="Ccedilla">
          411 -4 callgsubr
          500 109 -106 106 1340 111 hstemhm
          137 247 646 186 hintmask 00000000
          hintmask 01101100
          137 759 rmoveto
          -578 430 -192 370 -4 vhcurveto
          hintmask 10011110
          -9 -15 -4 -11 -1 -17 -4 -54 31 -61 32 -29 -22 callgsubr
          hintmask 10101110
          -48 callsubr
          -34 30 -29 32 -5 38 239 12 135 52 81 40 rrcurveto
          -99 callsubr
          endchar
        </CharString>
        <CharString name="Ccircumflex">
          -28 callgsubr
          1 callgsubr
          137 247 182 787 hintmask 11010000
          137 759 rmoveto
          -583 438 -191 373 303 162 62 45 91 vhcurveto
          -99 callsubr
          hintmask 00101000
          486 905 rmoveto
          -94 callsubr
        </CharString>
        <CharString name="Cdotaccent">
          -28 callgsubr
          184 -3 callgsubr
          137 247 424 315 hintmask 11010000
          137 759 rmoveto
          -583 438 -191 373 303 162 62 45 91 vhcurveto
          -99 callsubr
          hintmask 00101000
          833 970 -86 callgsubr
        </CharString>
        <CharString name="D">
          -25 callsubr
          hstemhm
          272 217 766 239 hintmask 00000000
          hintmask 01011100
          92 hmoveto
          281 -1 rlineto
          35 67 -4 -3 63 hvcurveto
          hintmask 10011100
          -4 65 66 -3 38 hhcurveto
          475 312 327 497 490 -262 246 -514 -78 -61 -4 -4 -58 hvcurveto
          hintmask 01101100
          -4 -54 -51 -3 -63 hhcurveto
          -252 hlineto
          -10 -127 rlineto
          9 30 22 3 20 hhcurveto
          71 38 -42 -144 hvcurveto
          -943 vlineto
          -147 -62 -29 -111 vhcurveto
          hintmask 10011100
          390 98 rmoveto
          1201 vlineto
          12 53 61 8 54 hhcurveto
          353 245 -145 -521 -459 -214 -189 -297 -260 5 5 -9 callsubr
        </CharString>
        <CharString name="Dcaron">
          -25 callsubr
          1 callgsubr
          272 217 -180 788 158 -75 callgsubr
          217 1456 -79 callgsubr
        </CharString>
        <CharString name="Dcroat">
          -83 callsubr
        </CharString>
        <CharString name="Delta">
          579 1 143 1422 -20 hstem
          194 1483 vstem
          194 24 rmoveto
          16 -23 rlineto
          1449 hlineto
          18 28 -742 1537 rlineto
          -44 hlineto
          -505 -1422 rmoveto
          490 1104 512 -1104 rlineto
          endchar
        </CharString>
        <CharString name="E">
          -85 callgsubr
          endchar
        </CharString>
        <CharString name="Eacute">
          -80 callgsubr
          137 378 -12 callgsubr
          23 635 -308 -107 callsubr
          438 1553 -83 callgsubr
        </CharString>
        <CharString name="Ebreve">
          -80 callgsubr
          178 167 -12 callgsubr
          -96 721 -275 -107 callsubr
          635 1594 -88 callsubr
        </CharString>
        <CharString name="Ecaron">
          -80 callgsubr
          138 376 -12 callgsubr
          -137 788 -301 -107 callsubr
          636 1554 -79 callgsubr
        </CharString>
        <CharString name="Ecircumflex">
          -80 callgsubr
          138 376 -12 callgsubr
          -137 787 -300 -107 callsubr
          296 1554 rmoveto
          -94 callsubr
        </CharString>
        <CharString name="Edieresis">
          -85 callgsubr
          -46 callgsubr
          872 1626 -91 callgsubr
        </CharString>
        <CharString name="Edotaccent">
          -80 callgsubr
          203 308 -12 callgsubr
          105 315 -70 -107 callsubr
          643 1619 -86 callgsubr
        </CharString>
        <CharString name="Egrave">
          -80 callgsubr
          137 378 -12 callgsubr
          -182 635 -103 -107 callsubr
          194 1738 -65 callsubr
        </CharString>
        <CharString name="Emacron">
          -80 callgsubr
          288 156 -12 callgsubr
          -122 769 -297 -107 callsubr
          254 1704 -41 callsubr
        </CharString>
        <CharString name="Eng">
          407 -30 callsubr
          1296 124 -115 115 hstemhm
          269 145 938 145 hintmask 00000000
          hintmask 10111000
          -76 callgsubr
          265 -333 274 -341 179 -257 rlinecurve
          -14 -262 -94 -118 -126 -173 1 -2 rcurveline
          74 -76 rlineto
          150 83 212 302 155 1 -1 1 1 vvcurveto
          -1 19 -3 99 114 vvcurveto
          1016 vlineto
          150 19 -4 152 vhcurveto
          14 115 rlineto
          -514 hlineto
          -11 -126 rlineto
          5 35 54 6 21 hhcurveto
          74 11 -12 -159 hvcurveto
          -858 vlineto
          -156 190 -158 204 -156 204 -97 126 -97 126 -96 122 rrcurveto
          -69 87 -19 85 0 vvcurveto
          -408 hlineto
          hintmask 11011000
          -74 callsubr
          endchar
        </CharString>
        <CharString name="Eogonek">
          70 -509 135 376 115 646 113 535 121 -116 116 16 -20 hstemhm
          264 217 274 495 -419 125 -105 123 -46 callgsubr
          hintmask 1111001100000000
          88 2 rmoveto
          893 hlineto
          -11 -2 rlineto
          -57 -27 -158 -104 -155 vvcurveto
          -142 125 -81 131 79 88 27 41 8 callgsubr
          -77 -77 41 89 162 200 73 71 9 hvcurveto
          17 callgsubr
          43 hlineto
          22 114 32 184 -1 112 rrcurveto
          -124 hlineto
          -181 -21 -109 -114 -178 hhcurveto
          -191 hlineto
          -158 5 -34 28 131 vvcurveto
          482 201 vlineto
          hintmask 1111001010000000
          128 13 -57 -136 8 hvcurveto
          123 hlineto
          8 2 15 9 vvcurveto
          hintmask 1111001001000000
          8 117 10 143 131 17 -1 19 17 vvcurveto
          -122 -1 rlineto
          -111 -12 -5 -58 -146 hhcurveto
          -207 535 368 hlineto
          187 53 -16 -225 14 hvcurveto
          hintmask 1110011100000000
          102 hlineto
          15 54 31 157 -1 167 rrcurveto
          hintmask 1111001100000000
          11 callgsubr
          hintmask 1110101100000000
          -12 -25 callgsubr
          36 31 1 9 hhcurveto
          56 31 -52 -141 hvcurveto
          -914 vlineto
          -147 -21 -20 callsubr
          endchar
        </CharString>
        <CharString name="Eth">
          -83 callsubr
        </CharString>
        <CharString name="Euro">
          237 -15 117 429 131 -124 118 211 136 -122 118 428 117 hstemhm
          224 243 812 146 hintmask 00000000
          hintmask 11001111
          60 520 rmoveto
          60 4 61 4 62 3 rrcurveto
          -401 89 319 -145 281 hhcurveto
          256 237 50 154 86 -10 43 -13 25 hvcurveto
          -123 hlineto
          -91 -69 -150 -276 vhcurveto
          hintmask 10101110
          -186 -184 138 298 -69 hvcurveto
          11 hlineto
          144 155 -7 -11 150 14 callgsubr
          -51 hlineto
          -5 47 -3 50 53 vvcurveto
          25 1 25 1 24 vhcurveto
          1 28 27 0 27 hhcurveto
          145 154 -7 -11 151 14 callgsubr
          -87 hlineto
          273 56 175 155 220 hhcurveto
          276 39 -150 -91 hvcurveto
          122 hlineto
          40 31 24 90 52 vvcurveto
          125 -273 60 -155 vhcurveto
          hintmask 11010110
          -389 -284 -202 -339 -88 hvcurveto
          -38 1 -38 2 -37 2 -29 -145 rcurveline
          118 8 rlineto
          -3 -34 -2 -35 -35 vvcurveto
          -38 2 -35 3 -35 vhcurveto
          -135 6 rlineto
          endchar
        </CharString>
        <CharString name="F">
          -5 callgsubr
          hstemhm
          262 217 411 134 hintmask 00000000
          hintmask 01110011
          -61 callgsubr
          hintmask 01100111
          16 54 30 166 -1 167 rrcurveto
          hintmask 01110011
          0 -85 -16 -274 vhcurveto
          -827 hlineto
          hintmask 10101011
          -12 -25 callgsubr
          36 31 1 9 hhcurveto
          56 30 -52 -141 hvcurveto
          -914 vlineto
          -147 -20 -20 callsubr
          endchar
        </CharString>
        <CharString name="G">
          -24 callgsubr
          hstem
          112 242 917 200 vstem
          -99 callgsubr
          endchar
        </CharString>
        <CharString name="Gbreve">
          -24 callgsubr
          159 167 hstemhm
          112 242 179 721 17 200 hintmask 11101010
          -99 callgsubr
          hintmask 00010100
          776 957 -88 callsubr
        </CharString>
        <CharString name="Gcircumflex">
          -24 callgsubr
          1 callgsubr
          112 242 138 787 -8 200 hintmask 11101010
          -99 callgsubr
          hintmask 00010100
          437 917 rmoveto
          -94 callsubr
        </CharString>
        <CharString name="Gcommaaccent">
          411 -497 -21 502 121 554 128 652 106 hstemhm
          112 242 405 306 206 200 hintmask 01111010
          -99 callgsubr
          hintmask 10000100
          647 -951 -97 callgsubr
        </CharString>
        <CharString name="Gdotaccent">
          -24 callgsubr
          184 -3 callgsubr
          112 242 380 315 222 200 hintmask 11101010
          -99 callgsubr
          hintmask 00010100
          784 982 -86 callgsubr
        </CharString>
        <CharString name="H">
          408 -30 callsubr
          616 126 562 116 hstem
          266 217 738 216 vstem
          -78 callsubr
          endchar
        </CharString>
        <CharString name="Hbar">
          408 2 110 616 126 222 108 232 116 hstem
          267 217 738 216 vstem
          91 2 rmoveto
          563 hlineto
          15 126 rlineto
          -6 -27 -47 -10 -47 hhcurveto
          -53 -11 14 145 hvcurveto
          457 738 -399 vlineto
          -149 -25 -68 -136 vhcurveto
          -18 -110 rlineto
          551 hlineto
          12 124 rlineto
          -7 -27 -38 -7 -19 hhcurveto
          -54 -30 33 115 hvcurveto
          816 189 vlineto
          30 108 rlineto
          -219 31 hlineto
          169 45 32 111 vhcurveto
          14 -64 callgsubr
          -556 hlineto
          -19 -128 rlineto
          6 29 30 6 46 hhcurveto
          66 18 -27 -173 hvcurveto
          -32 -738 26 vlineto
          195 28 11 122 vhcurveto
          15 -64 callgsubr
          -533 hlineto
          -12 -25 callgsubr
          37 31 1 10 hhcurveto
          54 31 -52 -141 hvcurveto
          -39 -201 vlineto
          -30 -108 rlineto
          231 -767 hlineto
          -147 -21 -20 callsubr
          376 742 rmoveto
          222 738 -222 vlineto
          endchar
        </CharString>
        <CharString name="Hcircumflex">
          408 -30 callsubr
          616 126 562 11 callsubr
          266 217 -13 787 -36 216 hintmask 11101010
          -78 callsubr
          hintmask 00010100
          420 1554 rmoveto
          -94 callsubr
        </CharString>
        <CharString name="I">
          -27 callsubr
          hstem
          318 216 vstem
          114 hmoveto
          -101 callgsubr
          endchar
        </CharString>
        <CharString name="IJ">
          410 -24 callsubr
          hstemhm
          318 216 648 216 hintmask 11100000
          114 hmoveto
          -101 callgsubr
          hintmask 01010000
          802 -420 -77 callgsubr
          endchar
        </CharString>
        <CharString name="Iacute">
          -27 callsubr
          133 378 hstemhm
          186 635 -503 216 hintmask 11001000
          114 hmoveto
          -101 callgsubr
          hintmask 00110000
          100 1553 -83 callgsubr
        </CharString>
        <CharString name="Ibreve">
          -27 callsubr
          174 167 hstemhm
          67 721 -470 216 hintmask 11001000
          114 hmoveto
          -101 callgsubr
          hintmask 00110000
          297 1594 -88 callsubr
        </CharString>
        <CharString name="Icircumflex">
          -27 callsubr
          134 376 hstemhm
          26 787 -495 216 hintmask 11001000
          114 hmoveto
          -101 callgsubr
          hintmask 00110000
          -42 1554 rmoveto
          -94 callsubr
        </CharString>
        <CharString name="Idieresis">
          -27 callsubr
          hstemhm
          318 216 vstemhm
          114 hmoveto
          -101 callgsubr
          534 1626 -91 callgsubr
        </CharString>
        <CharString name="Idotaccent">
          -27 callsubr
          199 -3 callgsubr
          268 315 -265 216 hintmask 11001000
          114 hmoveto
          -101 callgsubr
          hintmask 00110000
          305 1619 -86 callgsubr
        </CharString>
        <CharString name="Igrave">
          -27 callsubr
          133 378 hstemhm
          -19 635 -298 216 hintmask 11001000
          114 hmoveto
          -101 callgsubr
          hintmask 00110000
          -144 1738 -65 callsubr
        </CharString>
        <CharString name="Imacron">
          -445 2 -32 callgsubr
          283 157 hstemhm
          88 671 -440 216 hintmask 00110000
          88 1815 rmoveto
          652 hlineto
          19 157 rlineto
          -652 hlineto
          hintmask 11001000
          8 -1970 rmoveto
          -101 callgsubr
          endchar
        </CharString>
        <CharString name="Iogonek">
          -445 -509 135 376 -32 callgsubr
          hstemhm
          139 181 -1 216 hintmask 00000000
          hintmask 11101000
          115 2 rmoveto
          191 hlineto
          hintmask 11110000
          -35 -23 -146 -103 -162 -15 callsubr
          162 166 73 72 9 hvcurveto
          17 callgsubr
          190 hlineto
          12 125 rlineto
          -6 -26 -49 -9 -17 hhcurveto
          hintmask 11101000
          -101 -12 41 120 hvcurveto
          950 vlineto
          158 19 35 154 vhcurveto
          13 callsubr
          hintmask 11110000
          -585 hlineto
          -16 -125 rlineto
          hintmask 11101000
          8 42 36 1 32 hhcurveto
          47 38 -28 -172 hvcurveto
          1 -873 rlineto
          -184 -71 -47 -122 vhcurveto
          endchar
        </CharString>
        <CharString name="Itilde">
          -27 callsubr
          133 -26 callsubr
          10 817 -509 216 hintmask 11000100
          114 hmoveto
          -101 callgsubr
          hintmask 00000000
          -16 1575 15 callgsubr
          hintmask 00011000
          -93 callsubr
          hintmask 00101000
          7 callsubr
        </CharString>
        <CharString name="J">
          -443 1414 116 hstem
          329 216 vstem
          74 -310 -77 callgsubr
          endchar
        </CharString>
        <CharString name="Jcircumflex">
          -443 1414 11 callsubr
          47 787 -505 216 hintmask 10010000
          74 -310 -77 callgsubr
          hintmask 01100000
          30 1974 rmoveto
          -94 callsubr
        </CharString>
        <CharString name="K">
          238 -30 callsubr
          627 115 562 116 -109 109 hstemhm
          296 217 hintmask 00000000
          hintmask 11101000
          -70 callgsubr
          hintmask 11011000
          -45 callgsubr
          hintmask 11101000
          -38 callgsubr
          endchar
        </CharString>
        <CharString name="Kcommaaccent">
          238 -12 callsubr
          110 627 115 562 116 -109 109 hstemhm
          296 217 169 306 hintmask 00000000
          hintmask 01110100
          -70 callgsubr
          hintmask 01101100
          -45 callgsubr
          hintmask 01110100
          -38 callgsubr
          hintmask 10000010
          539 -314 -97 callgsubr
        </CharString>
        <CharString name="L">
          69 0 28 callsubr
          220 vstem
          -93 callgsubr
          endchar
        </CharString>
        <CharString name="Lacute">
          69 -30 callsubr
          1303 117 133 -3 callsubr
          253 220 -80 635 hintmask 11010000
          -93 callgsubr
          hintmask 00101000
          358 1548 -83 callgsubr
        </CharString>
        <CharString name="Lcaron">
          69 2 110 1012 596 -305 117 hstemhm
          254 220 524 187 hintmask 01001000
          884 -59 callsubr
          hintmask 10110000
          -821 -1155 rmoveto
          -92 callsubr
          endchar
        </CharString>
        <CharString name="Lcommaaccent">
          69 -12 callsubr
          110 1303 117 hstemhm
          253 220 16 306 hintmask 01110000
          -93 callgsubr
          hintmask 10001000
          415 -319 -97 callgsubr
        </CharString>
        <CharString name="Ldot">
          69 -30 callsubr
          657 335 311 117 hstemhm
          253 220 469 340 hintmask 10110000
          -93 callgsubr
          hintmask 01001000
          1037 652 -33 callgsubr
        </CharString>
        <CharString name="Lslash">
          69 2 28 callsubr
          221 vstem
          63 2 rmoveto
          1172 hlineto
          1 20 5 26 6 31 rrcurveto
          13 71 19 100 106 vvcurveto
          30 -2 34 -3 29 vhcurveto
          -124 hlineto
          -174 -19 -45 -163 -287 hhcurveto
          -165 hlineto
          -88 -72 18 152 hvcurveto
          436 vlineto
          396 153 -38 142 -358 -138 rlineto
          350 vlineto
          11 -1 10 10 vvcurveto
          147 58 12 158 vhcurveto
          14 117 rlineto
          -600 hlineto
          -16 -126 rlineto
          2 10 1 2 hhcurveto
          5 23 21 4 27 hhcurveto
          60 21 -17 -149 hvcurveto
          -460 vlineto
          -235 -90 38 -143 197 76 1 -300 rlineto
          -181 -59 -38 -120 3 vhcurveto
          endchar
        </CharString>
        <CharString name="M">
          6 callsubr
          hstemhm
          79 2079 hintmask 00000000
          hintmask 10011000
          -37 callsubr
          hintmask 00111000
          -42 callsubr
          hintmask 10011000
          15 callsubr
          hintmask 01011000
          -71 callsubr
          hintmask 10011000
          -29 -117 -8 -36 -121 2 rrcurveto
          endchar
        </CharString>
        <CharString name="N">
          -44 callgsubr
          hstemhm
          269 145 938 145 hintmask 00000000
          hintmask 10011100
          -76 callgsubr
          rlineto
          hintmask 01011100
          -95 callgsubr
          hintmask 10101100
          -74 callsubr
          endchar
        </CharString>
        <CharString name="Nacute">
          -44 callgsubr
          133 -3 callsubr
          269 145 227 635 76 145 hintmask 00000000
          hintmask 10010101
          -76 callgsubr
          rlineto
          hintmask 01010101
          -95 callgsubr
          hintmask 10100101
          -74 callsubr
          hintmask 00001010
          582 1553 -83 callgsubr
        </CharString>
        <CharString name="Ncaron">
          -44 callgsubr
          -13 callsubr
          269 145 67 788 83 145 hintmask 00000000
          hintmask 10010101
          -76 callgsubr
          rlineto
          hintmask 01010101
          -95 callgsubr
          hintmask 10100101
          -74 callsubr
          hintmask 00001010
          780 1554 -79 callgsubr
        </CharString>
        <CharString name="Ncommaaccent">
          408 -12 callsubr
          -35 callgsubr
          hstemhm
          269 145 293 306 339 145 hintmask 00000000
          hintmask 01001101
          -76 callgsubr
          rlineto
          hintmask 00101101
          -95 callgsubr
          hintmask 01010101
          -74 callsubr
          hintmask 10000010
          609 -314 -97 callgsubr
        </CharString>
        <CharString name="Ntilde">
          -44 callgsubr
          133 -26 callsubr
          269 145 51 817 70 145 -46 callgsubr
          hintmask 1001001010000000
          -76 callgsubr
          rlineto
          hintmask 0101001010000000
          -95 callgsubr
          hintmask 1010001010000000
          -74 callsubr
          -46 callgsubr
          466 1575 15 callgsubr
          hintmask 0000010100000000
          -93 callsubr
          hintmask 0000100100000000
          7 callsubr
        </CharString>
        <CharString name="O">
          -56 callsubr
          hstem
          2 callgsubr
          988 241 vstem
          -104 callsubr
          endchar
        </CharString>
        <CharString name="OE">
          916 -15 127 -112 115 646 113 535 121 -112 128 hstemhm
          123 241 690 216 380 126 -106 124 -46 callgsubr
          hintmask 1010111010000000
          123 736 rmoveto
          -481 -7 289 -270 406 hhcurveto
          hintmask 0111011100000000
          58 55 6 9 51 hvcurveto
          1087 hlineto
          22 114 32 184 -1 112 rrcurveto
          -124 20 callsubr
          -190 hlineto
          -160 5 -63 28 131 vvcurveto
          482 232 vlineto
          127 13 -57 -136 8 hvcurveto
          124 hlineto
          8 2 15 9 vvcurveto
          hintmask 0111011010000000
          8 117 10 143 131 17 -1 19 17 vvcurveto
          -123 -1 rlineto
          -111 -12 -5 -58 -145 hhcurveto
          -238 535 398 hlineto
          188 52 -16 -225 14 hvcurveto
          102 hlineto
          hintmask 0110111010000000
          15 54 31 157 -1 167 rrcurveto
          hintmask 0111011010000000
          -40 callsubr
          -667 hlineto
          hintmask 0110111010000000
          10 -53 -55 6 -57 hhcurveto
          hintmask 1010111010000000
          -499 -247 -370 -440 -7 hvcurveto
          738 -624 rmoveto
          -334 -170 285 404 7 hvcurveto
          418 6 217 199 267 hhcurveto
          61 55 -10 -20 50 hvcurveto
          22 -28 12 -53 -86 vvcurveto
          -914 vlineto
          -88 -8 -53 -35 -29 vhcurveto
          -17 -47 -50 -8 -53 hhcurveto
          endchar
        </CharString>
        <CharString name="Oacute">
          -56 callsubr
          117 378 24 callsubr
          279 635 74 241 hintmask 11010100
          -104 callsubr
          hintmask 00101000
          -180 1551 -83 callgsubr
        </CharString>
        <CharString name="Obreve">
          -56 callsubr
          158 167 24 callsubr
          160 721 107 241 hintmask 11010100
          -104 callsubr
          hintmask 00101000
          17 1592 -88 callsubr
        </CharString>
        <CharString name="Ocircumflex">
          -56 callsubr
          118 376 24 callsubr
          119 787 82 241 hintmask 11010100
          -104 callsubr
          hintmask 00101000
          -322 1552 rmoveto
          -94 callsubr
        </CharString>
        <CharString name="Odieresis">
          -56 callsubr
          24 callsubr
          988 241 vstemhm
          -104 callsubr
          254 1624 -91 callgsubr
        </CharString>
        <CharString name="Ograve">
          -56 callsubr
          117 378 24 callsubr
          74 635 279 241 hintmask 11010100
          -104 callsubr
          hintmask 00101000
          -424 1736 -65 callsubr
        </CharString>
        <CharString name="Ohungarumlaut">
          -56 callsubr
          104 374 24 callsubr
          263 856 -131 241 hintmask 11010100
          -104 callsubr
          hintmask 00101000
          263 1538 -53 callsubr
        </CharString>
        <CharString name="Omacron">
          -56 callsubr
          268 156 24 callsubr
          134 769 85 241 hintmask 11010100
          -104 callsubr
          hintmask 00101000
          -364 1702 -41 callsubr
        </CharString>
        <CharString name="Omega">
          583 0 168 1268 109 hstem
          252 227 241 135 202 135 229 227 vstem
          188 2 rmoveto
          7 -2 rlineto
          660 274 hlineto
          -241 69 -135 329 219 vvcurveto
          249 143 296 348 348 103 -296 -249 -219 -123 -319 -241 -69 vhcurveto
          -284 631 vlineto
          9 47 rlineto
          23 113 32 153 97 vvcurveto
          -123 hlineto
          -181 -21 -95 -61 -181 hhcurveto
          -140 56 hlineto
          255 85 201 297 285 vvcurveto
          371 -222 283 -456 -408 -310 -283 -371 -289 194 -306 274 -77 vhcurveto
          -51 -149 vlineto
          -183 -110 61 181 -21 hvcurveto
          -123 hlineto
          -111 31 -183 23 -114 vhcurveto
          endchar
        </CharString>
        <CharString name="Oslash">
          411 -13 127 1306 128 hstem
          2 callgsubr
          988 241 vstem
          326 -119 rmoveto
          156 -69 94 208 rlineto
          -21 71 78 -12 83 hhcurveto
          492 275 379 433 14 hvcurveto
          316 -129 230 -207 116 vhcurveto
          93 194 -161 64 -90 -195 rlineto
          16 -60 -65 8 -67 hhcurveto
          -499 -277 -370 -440 -7 hvcurveto
          -5 -308 117 -221 191 -120 rrcurveto
          435 25 rmoveto
          -334 -171 285 404 7 hvcurveto
          418 7 217 199 267 hhcurveto
          334 170 -281 -404 -7 hvcurveto
          -418 -6 -216 -203 -268 hhcurveto
          endchar
        </CharString>
        <CharString name="Otilde">
          -56 callsubr
          117 -26 callsubr
          120 240 103 817 68 241 hintmask 11001010
          -104 callsubr
          hintmask 00000000
          -296 1573 15 callgsubr
          hintmask 00010100
          -93 callsubr
          hintmask 00100100
          7 callsubr
        </CharString>
        <CharString name="P">
          10 callsubr
          hstemhm
          293 219 580 229 hintmask 00000000
          hintmask 11011100
          -65 callgsubr
          hintmask 11101100
          -34 callsubr
          endchar
        </CharString>
        <CharString name="Q">
          411 -401 197 191 127 1306 128 hstem
          149 240 988 241 vstem
          149 738 rmoveto
          -481 -7 289 -270 406 hhcurveto
          19 19 1 1 18 hvcurveto
          55 -24 42 -43 70 -91 rrcurveto
          -104 80 102 -128 168 hhcurveto
          125 75 65 16 15 hvcurveto
          -34 130 -50 -11 -42 -6 -45 3 rlinecurve
          -90 5 -62 58 -65 60 -43 41 -55 37 -55 26 336 104 186 318 12 354 rrcurveto
          470 1 -287 279 -400 hhcurveto
          -499 -277 -370 -440 -7 hvcurveto
          240 65 rmoveto
          418 7 217 199 267 hhcurveto
          334 170 -281 -404 -7 hvcurveto
          -418 -6 -216 -203 -268 hhcurveto
          -334 -171 285 404 7 hvcurveto
          endchar
        </CharString>
        <CharString name="R">
          -36 callgsubr
          hstemhm
          308 210 565 235 hintmask 00000000
          hintmask 10110110
          -81 callsubr
          hintmask 01101110
          -79 callsubr
          hintmask 10110110
          -74 callgsubr
          hintmask 10101110
          -62 callgsubr
          endchar
        </CharString>
        <CharString name="Racute">
          -36 callgsubr
          118 -3 callsubr
          308 210 -58 635 -12 235 -46 callgsubr
          hintmask 1011001010000000
          -81 callsubr
          hintmask 0110101010000000
          -79 callsubr
          hintmask 1011001010000000
          -74 callgsubr
          hintmask 1010101010000000
          -62 callgsubr
          hintmask 0000010100000000
          -260 859 -83 callgsubr
        </CharString>
        <CharString name="Rcaron">
          -36 callgsubr
          1 callgsubr
          300 788 -780 210 565 235 -46 callgsubr
          hintmask 1011000110000000
          -81 callsubr
          hintmask 0110100110000000
          -79 callsubr
          hintmask 1011000110000000
          -74 callgsubr
          hintmask 1010100110000000
          -62 callgsubr
          hintmask 0000011000000000
          -62 860 -79 callgsubr
        </CharString>
        <CharString name="Rcommaaccent">
          237 -12 callsubr
          110 -110 119 565 120 610 116 -101 116 hstemhm
          308 210 159 306 100 235 -46 callgsubr
          hintmask 0101101010000000
          -81 callsubr
          hintmask 0011011010000000
          -79 callsubr
          hintmask 0101101010000000
          -74 callgsubr
          hintmask 0101011010000000
          -62 callgsubr
          hintmask 1000000100000000
          -82 -1008 -97 callgsubr
        </CharString>
        <CharString name="S">
          -20 callgsubr
          hstem
          191 215 601 232 vstem
          -105 callgsubr
          endchar
        </CharString>
        <CharString name="Sacute">
          -20 callgsubr
          118 -3 callsubr
          191 215 50 635 -84 232 hintmask 11010100
          -105 callgsubr
          hintmask 00101000
          325 1631 -83 callgsubr
        </CharString>
        <CharString name="Scaron">
          -20 callgsubr
          1 callgsubr
          191 215 -110 788 -77 232 hintmask 11010100
          -105 callgsubr
          hintmask 00101000
          523 1632 -79 callgsubr
        </CharString>
        <CharString name="Scedilla">
          66 -4 callgsubr
          500 108 1342 110 hstemhm
          191 215 339 429 -167 232 hintmask 00000000
          hintmask 01111100
          170 32 rmoveto
          8 -2 rlineto
          hintmask 10111100
          4 27 27 2 25 hhcurveto
          70 69 -13 -13 71 hvcurveto
          61 -11 61 -11 63 -3 -9 -15 -4 -11 -1 -17 rrcurveto
          hintmask 01111010
          -11 callsubr
          -11 -2 rlineto
          hintmask 01111100
          19 callsubr
          -48 callsubr
          -34 30 -29 32 -5 37 271 22 203 138 1 257 -16 234 -242 134 -220 98 -191 84 -157 84 -7 158 rrcurveto
          108 -5 50 131 247 hhcurveto
          hintmask 01111010
          196 132 -80 -242 6 hvcurveto
          110 hlineto
          14 78 18 114 142 vvcurveto
          24 -1 29 -1 26 vhcurveto
          -9 -42 -40 -4 -37 hhcurveto
          -68 -75 11 8 -63 hvcurveto
          7 -50 -47 6 -38 hhcurveto
          -308 -218 -153 -233 5 hvcurveto
          5 -231 189 -144 202 -88 12 -4 16 -8 12 -5 192 -82 177 -83 11 -166 rrcurveto
          hintmask 10111100
          -146 -1 -131 -109 -204 hhcurveto
          -254 -100 121 246 -12 hvcurveto
          -113 hlineto
          -13 -76 -10 -125 -141 vvcurveto
          -28 0 -29 1 -29 vhcurveto
          endchar
        </CharString>
        <CharString name="Scircumflex">
          -20 callgsubr
          1 callgsubr
          191 215 -110 787 -76 232 hintmask 11010100
          -105 callgsubr
          hintmask 00101000
          183 1632 rmoveto
          -94 callsubr
        </CharString>
        <CharString name="Scommaaccent">
          66 -497 -21 502 109 1342 110 hstemhm
          191 215 137 306 158 232 hintmask 01110100
          -105 callgsubr
          hintmask 10001000
          373 -236 -97 callgsubr
        </CharString>
        <CharString name="T">
          27 callgsubr
          hstem
          657 13 callgsubr
          vstem
          -92 callgsubr
          endchar
        </CharString>
        <CharString name="Tbar">
          237 0 112 612 127 556 123 hstem
          657 13 callgsubr
          vstem
          377 1 rmoveto
          768 -1 12 128 rlineto
          -7 -26 -110 -9 -21 hhcurveto
          -105 -17 25 153 hvcurveto
          434 267 vlineto
          20 127 rlineto
          -287 556 189 hlineto
          222 -4 4 -41 -234 vvcurveto
          141 hlineto
          1 64 3 75 3 60 rrcurveto
          3 57 2 51 41 vvcurveto
          21 0 19 -2 14 vhcurveto
          -1321 hlineto
          -9 -66 -10 -68 -10 -62 -12 -76 -10 -72 -7 -58 rrcurveto
          140 hlineto
          20 214 53 61 222 4 rrcurveto
          157 -556 -265 hlineto
          -20 -127 rlineto
          285 -412 hlineto
          -181 -11 -19 -261 vhcurveto
          endchar
        </CharString>
        <CharString name="Tcaron">
          27 callgsubr
          -13 callsubr
          370 788 -501 13 callgsubr
          hintmask 11001100
          -92 callgsubr
          hintmask 00110000
          382 1552 -79 callgsubr
        </CharString>
        <CharString name="Tcommaaccent">
          237 -12 callsubr
          22 callgsubr
          hstemhm
          601 306 -250 13 callgsubr
          hintmask 01101100
          -92 callgsubr
          hintmask 10010000
          216 -316 -97 callgsubr
        </CharString>
        <CharString name="Thorn">
          66 -30 callsubr
          200 122 713 113 156 116 hstem
          292 220 585 229 vstem
          125 hmoveto
          646 hlineto
          12 130 rlineto
          -7 -28 -53 -13 -39 hhcurveto
          -122 -29 32 119 hvcurveto
          1 271 3 324 1 270 rrcurveto
          12 54 83 7 50 hhcurveto
          230 163 -93 -257 -227 -150 -136 -215 -45 -51 7 13 -57 hvcurveto
          19 -117 rlineto
          -17 63 61 -8 60 hhcurveto
          293 251 196 302 258 -137 187 -371 5 hvcurveto
          -81 -50 -3 -3 -56 hvcurveto
          -114 -5 rlineto
          136 1 17 31 144 hhcurveto
          13 callsubr
          -584 hlineto
          -16 -25 callgsubr
          42 35 1 32 hhcurveto
          47 41 -28 -172 hvcurveto
          1 -883 rlineto
          -149 -35 -73 -122 vhcurveto
          endchar
        </CharString>
        <CharString name="U">
          -47 callgsubr
          hstem
          1 callsubr
          795 151 vstem
          -106 callgsubr
          endchar
        </CharString>
        <CharString name="Uacute">
          -47 callgsubr
          133 378 0 callsubr
          190 635 -30 151 hintmask 11010100
          -106 callgsubr
          hintmask 00101000
          448 1046 -83 callgsubr
        </CharString>
        <CharString name="Ubreve">
          -47 callgsubr
          174 167 0 callsubr
          71 721 3 151 hintmask 11010100
          -106 callgsubr
          hintmask 00101000
          645 1087 -88 callsubr
        </CharString>
        <CharString name="Ucircumflex">
          -47 callgsubr
          134 376 0 callsubr
          30 787 -22 151 hintmask 11010100
          -106 callgsubr
          hintmask 00101000
          306 1047 rmoveto
          -94 callsubr
        </CharString>
        <CharString name="Udieresis">
          -47 callgsubr
          0 callsubr
          795 151 vstemhm
          -106 callgsubr
          884 1119 -91 callgsubr
        </CharString>
        <CharString name="Ugrave">
          -47 callgsubr
          133 378 0 callsubr
          -15 635 175 151 hintmask 11010100
          -106 callgsubr
          hintmask 00101000
          204 1231 -65 callsubr
        </CharString>
        <CharString name="Uhungarumlaut">
          -47 callgsubr
          120 374 0 callsubr
          128 856 -189 151 hintmask 11010100
          -106 callgsubr
          hintmask 00101000
          845 1033 -53 callsubr
        </CharString>
        <CharString name="Umacron">
          -47 callgsubr
          284 156 0 callsubr
          45 769 -19 151 hintmask 11010100
          -106 callgsubr
          hintmask 00101000
          264 1197 -41 callsubr
        </CharString>
        <CharString name="Uogonek">
          239 -509 135 361 -32 callsubr
          hstem
          196 219 249 195 169 108 74 151 vstem
          196 619 rmoveto
          -378 169 -254 425 12 12 0 1 12 vhcurveto
          -42 -30 -120 -97 -147 -15 callsubr
          149 131 90 59 34 hvcurveto
          211 81 101 196 306 vvcurveto
          583 vlineto
          177 8 44 131 vhcurveto
          15 -64 callgsubr
          -481 hlineto
          -11 -128 rlineto
          7 30 35 5 20 hhcurveto
          76 26 -52 -166 hvcurveto
          -560 vlineto
          -445 -190 -79 -231 -218 -156 134 400 vhcurveto
          575 vlineto
          170 18 23 166 vhcurveto
          15 -64 callgsubr
          -563 hlineto
          -14 -128 rlineto
          6 29 38 6 10 hhcurveto
          58 23 -1 -153 hvcurveto
          -17 1 -99 -527 vvcurveto
          endchar
        </CharString>
        <CharString name="Uring">
          -47 callgsubr
          -28 122 293 120 0 callsubr
          124 162 281 161 67 151 hintmask 11001001
          -106 callgsubr
          hintmask 00110110
          645 885 -69 callgsubr
        </CharString>
        <CharString name="Utilde">
          -47 callgsubr
          133 -26 callsubr
          195 219 14 817 -36 151 hintmask 11001010
          -106 callgsubr
          hintmask 00000000
          332 1068 15 callgsubr
          hintmask 00010100
          -93 callsubr
          hintmask 00100100
          7 callsubr
        </CharString>
        <CharString name="V">
          66 22 callsubr
          hstem
          -57 1500 vstem
          645 -15 rmoveto
          9 -1 rlineto
          20 37 62 9 41 hhcurveto
          0 413 1110 59 171 vhcurveto
          102 37 20 18 107 hhcurveto
          13 -64 callgsubr
          -510 hlineto
          -10 -128 rlineto
          6 24 36 6 32 hhcurveto
          50 38 -11 -64 3 hvcurveto
          1 -84 -280 -773 -86 -237 -97 242 -297 794 -10 34 rrcurveto
          -4 11 -2 11 8 vvcurveto
          41 41 28 151 vhcurveto
          18 -64 callgsubr
          -584 hlineto
          -14 -126 rlineto
          7 23 14 3 20 hhcurveto
          59 38 -97 -141 54 hvcurveto
          169 -444 325 -747 0 vvcurveto
          endchar
        </CharString>
        <CharString name="W">
          916 22 callsubr
          hstem
          -9 2320 vstem
          -106 callsubr
          endchar
        </CharString>
        <CharString name="Wacute">
          916 6 -21 1429 -33 callsubr
          -9 2320 -1411 635 hintmask 11010000
          -106 callsubr
          hintmask 00101000
          290 1678 -83 callgsubr
        </CharString>
        <CharString name="Wcircumflex">
          916 6 -21 1429 11 callsubr
          -9 2320 -1571 787 hintmask 11010000
          -106 callsubr
          hintmask 00101000
          148 1679 rmoveto
          -94 callsubr
        </CharString>
        <CharString name="Wdieresis">
          916 22 callsubr
          hstemhm
          -9 2320 vstemhm
          -106 callsubr
          724 1751 -91 callgsubr
        </CharString>
        <CharString name="Wgrave">
          916 6 -21 1429 -33 callsubr
          -9 2320 -1616 635 hintmask 11010000
          -106 callsubr
          hintmask 00101000
          46 1863 -65 callsubr
        </CharString>
        <CharString name="X">
          237 0 115 1299 116 hstem
          29 1498 vstem
          29 hmoveto
          539 hlineto
          19 124 rlineto
          -5 -28 -42 -2 -21 hhcurveto
          -52 -23 18 36 1 hvcurveto
          1 48 148 198 169 225 252 -337 rcurveline
          37 -50 24 -45 1 -28 rrcurveto
          -47 1 -27 -20 -86 hhcurveto
          -18 -29 2 3 -23 hvcurveto
          -7 -120 rlineto
          649 hlineto
          13 123 rlineto
          -5 -21 -12 -3 -33 hhcurveto
          -68 -49 61 59 -45 hvcurveto
          -177 233 -138 182 -108 144 59 75 71 92 62 80 89 116 89 118 74 90 rrcurveto
          38 29 69 11 56 hhcurveto
          20 -64 callgsubr
          -520 hlineto
          -21 -128 rlineto
          6 32 42 6 19 hhcurveto
          52 26 -7 -35 -43 -199 -273 -125 -160 hvcurveto
          -122 162 -74 102 -46 65 rrcurveto
          -65 92 -7 18 15 vvcurveto
          54 -2 36 10 148 hhcurveto
          5 callgsubr
          -621 hlineto
          -11 -116 rlineto
          107 47 -59 -121 90 hvcurveto
          364 -489 -5 -6 -5 -6 -4 -6 rlinecurve
          -144 -192 -138 -181 -154 -179 rrcurveto
          -34 -34 -75 -24 -55 hhcurveto
          endchar
        </CharString>
        <CharString name="Y">
          66 0 109 1305 116 hstem
          605 214 vstem
          -100 callgsubr
          endchar
        </CharString>
        <CharString name="Yacute">
          66 0 109 1305 -33 callsubr
          487 635 -517 214 hintmask 11001000
          -100 callgsubr
          hintmask 00110000
          165 1554 -83 callgsubr
        </CharString>
        <CharString name="Ycircumflex">
          66 0 109 1305 11 callsubr
          327 787 -509 214 hintmask 11001000
          -100 callgsubr
          hintmask 00110000
          23 1555 rmoveto
          -94 callsubr
        </CharString>
        <CharString name="Ydieresis">
          66 0 109 1305 116 hstemhm
          605 214 vstemhm
          -100 callgsubr
          599 1627 -91 callgsubr
        </CharString>
        <CharString name="Ygrave">
          66 0 109 1305 -33 callsubr
          282 635 -312 214 hintmask 11001000
          -100 callgsubr
          hintmask 00110000
          -79 1739 -65 callsubr
        </CharString>
        <CharString name="Z">
          -19 callsubr
          hstemhm
          101 1183 hintmask 00000000
          hintmask 11010000
          101 68 rmoveto
          45 -68 rlineto
          1084 hlineto
          12 75 22 128 21 132 -1 85 rlinecurve
          -126 1 rlineto
          -222 -58 -116 -84 -167 hhcurveto
          -426 hlineto
          hintmask 10110000
          882 1345 rlineto
          hintmask 11010000
          -36 70 rlineto
          -710 hlineto
          -116 -242 7 0 -121 -16 -195 -26 -95 hvcurveto
          141 hlineto
          166 50 34 122 179 hhcurveto
          453 hlineto
          endchar
        </CharString>
        <CharString name="Zacute">
          -19 callsubr
          133 -3 callsubr
          101 1183 -814 635 -82 callsubr
          -475 249 -83 callgsubr
        </CharString>
        <CharString name="Zcaron">
          -19 callsubr
          -13 callsubr
          101 1183 -974 788 -82 callsubr
          -277 250 -79 callgsubr
        </CharString>
        <CharString name="Zdotaccent">
          -19 callsubr
          199 -3 callgsubr
          101 1183 -732 315 -82 callsubr
          -270 315 -86 callgsubr
        </CharString>
        <CharString name="a">
          -60 callsubr
          -48 callgsubr
          460 183 -182 198 hintmask 00000000
          hintmask 11110010
          -91 callsubr
          hintmask 11110100
          -67 callsubr
          hintmask 11101010
          -103 callsubr
          hintmask 11110010
          -82 callgsubr
          hintmask 11110100
          -85 callsubr
          hintmask 11110010
          -44 callsubr
          endchar
        </CharString>
        <CharString name="aacute">
          -60 callsubr
          94 457 -48 callgsubr
          98 554 -192 -102 callgsubr
          199 986 -81 callgsubr
        </CharString>
        <CharString name="abreve">
          -60 callsubr
          166 167 -48 callgsubr
          -123 721 -138 -102 callgsubr
          260 1058 -90 callsubr
        </CharString>
        <CharString name="acircumflex">
          -60 callsubr
          132 408 -48 callgsubr
          -173 803 -170 -102 callgsubr
          -66 1024 -87 callsubr
        </CharString>
        <CharString name="acute">
          -11 1303 457 hstem
          584 554 vstem
          657 1303 -81 callgsubr
        </CharString>
        <CharString name="acute.cap">
          -11 1663 378 hstem
          482 635 vstem
          521 1663 -83 callgsubr
        </CharString>
        <CharString name="adieresis">
          -60 callsubr
          -48 callgsubr
          460 183 -182 198 hintmask 00000000
          hintmask 11110010
          -91 callsubr
          hintmask 11110100
          -67 callsubr
          hintmask 11101010
          -103 callsubr
          hintmask 11110010
          -82 callgsubr
          hintmask 11110100
          -85 callsubr
          hintmask 11110010
          -44 callsubr
          hintmask 00000000
          498 1081 -84 callsubr
        </CharString>
        <CharString name="ae">
          -8 callgsubr
          hstemhm
          130 226 -180 196 472 192 527 231 -46 callgsubr
          hintmask 1010100111000000
          -54 callsubr
          hintmask 1010011011000000
          4 callsubr
          hintmask 0101010111000000
          -59 callgsubr
          hintmask 1010100111000000
          -396 -305 -125 -252 hvcurveto
          hintmask 1010011011000000
          -39 callgsubr
          hintmask 1001011011000000
          -17 callgsubr
          endchar
        </CharString>
        <CharString name="aeacute">
          -8 callgsubr
          26 callgsubr
          130 226 -180 196 443 554 -525 192 527 231 -46 callgsubr
          hintmask 1010100010110000
          -54 callsubr
          hintmask 1010010100110000
          4 callsubr
          hintmask 0101010010110000
          -59 callgsubr
          hintmask 1010100010110000
          -396 -305 -125 -252 hvcurveto
          hintmask 1010010100110000
          -39 callgsubr
          hintmask 1001010100110000
          -17 callgsubr
          hintmask 0000001001000000
          532 986 -81 callgsubr
        </CharString>
        <CharString name="agrave">
          -60 callsubr
          26 callgsubr
          108 226 -183 553 -545 203 460 -90 callgsubr
          hintmask 1110001010000000
          -100 callsubr
          hintmask 0001010000000000
          297 986 -61 callsubr
        </CharString>
        <CharString name="amacron">
          -60 callsubr
          249 162 -48 callgsubr
          -167 785 -158 -102 callgsubr
          -139 1141 -40 callgsubr
        </CharString>
        <CharString name="ampersand">
          583 -16 141 362 126 197 142 473 119 hstemhm
          259 236 -62 187 471 174 hintmask 00000000
          hintmask 11111000
          259 438 rmoveto
          -273 214 -181 400 372 269 230 274 66 vhcurveto
          85 1 73 4 45 6 rrcurveto
          15 13 12 22 41 vvcurveto
          16 -2 18 -3 20 vhcurveto
          -45 -8 -75 -4 -88 -2 rrcurveto
          264 -172 73 -143 -302 -194 -300 -112 -18 10 -26 22 7 35 0 -1 33 vhcurveto
          -3 112 217 -5 195 hhcurveto
          -205 -19 -193 -157 -285 hhcurveto
          -245 -180 128 266 177 169 155 97 66 hvcurveto
          11 9 -1 36 -37 27 rrcurveto
          hintmask 11110110
          -50 39 -64 98 88 vvcurveto
          124 150 87 94 130 97 -92 -147 -9 36 -7 33 25 23 3 8 6 vhcurveto
          25 28 26 88 53 vvcurveto
          138 -161 56 -176 -274 -221 -198 -214 -84 34 -86 79 -80 vhcurveto
          hintmask 11111000
          -78 -69 -209 -185 -190 vvcurveto
          727 172 rmoveto
          0 41 200 160 149 67 -133 -64 15 vhcurveto
          -340 -67 0 -3 -25 hvcurveto
          endchar
        </CharString>
        <CharString name="aogonek">
          -103 -508 134 353 145 453 106 397 131 hstemhm
          109 226 -175 203 302 194 -36 -49 callsubr
          hintmask 1111100010000000
          109 306 rmoveto
          -196 128 -131 245 83 173 69 97 100 vhcurveto
          20 -54 29 -41 35 -28 rrcurveto
          hintmask 1111101000000000
          -63 -34 -194 -118 -156 -15 callgsubr
          120 118 64 50 27 hvcurveto
          10 5 8 4 3 3 rrcurveto
          1 -1 1 -2 1 vhcurveto
          52 19 85 89 4 65 rrcurveto
          hintmask 1111100100000000
          -67 callsubr
          hintmask 1111010010000000
          -103 callsubr
          hintmask 1111100010000000
          -82 callgsubr
          hintmask 1111100100000000
          -85 callsubr
          hintmask 1111100010000000
          -44 callsubr
          endchar
        </CharString>
        <CharString name="approxequal">
          -274 218 170 -31 169 110 28 callgsubr
          -792 796 hintmask 00000000
          hintmask 01001000
          174 271 -10 callsubr
          hintmask 10001000
          -52 callgsubr
          hintmask 01001000
          -14 callgsubr
          hintmask 00000000
          68 312 -10 callsubr
          hintmask 00010100
          -52 callgsubr
          hintmask 00100100
          -14 callgsubr
          endchar
        </CharString>
        <CharString name="aring">
          -60 callsubr
          72 121 293 121 -48 callgsubr
          -69 161 281 162 -75 -49 callsubr
          hintmask 1110010000100000
          -91 callsubr
          hintmask 1110010001000000
          -67 callsubr
          hintmask 1110001000100000
          -103 callsubr
          hintmask 1110010000100000
          -82 callgsubr
          hintmask 1110010001000000
          -85 callsubr
          hintmask 1110010000100000
          -44 callsubr
          hintmask 0001100110000000
          261 964 -70 callsubr
        </CharString>
        <CharString name="asciicircum">
          66 1530 -20 hstem
          194 972 vstem
          194 562 rmoveto
          177 hlineto
          305 763 293 -763 rlineto
          197 hlineto
          -373 968 rlineto
          -216 hlineto
          endchar
        </CharString>
        <CharString name="asciitilde">
          -274 446 28 callgsubr
          hintmask 00000000
          hintmask 01100000
          174 499 -10 callsubr
          hintmask 10100000
          -52 callgsubr
          hintmask 01100000
          -14 callgsubr
          endchar
        </CharString>
        <CharString name="asterisk">
          66 601 1097 hstem
          157 1049 vstem
          310 773 rmoveto
          35 32 15 15 26 hvcurveto
          90 53 77 103 64 111 -3 -394 rcurveline
          -55 15 -20 83 99 10 80 58 102 -53 120 -67 116 vhcurveto
          63 -38 100 -57 191 -105 rrcurveto
          -10 17 15 -6 15 hhcurveto
          26 19 16 43 25 hvcurveto
          12 21 5 18 15 vvcurveto
          49 -48 34 -40 22 vhcurveto
          1 hlineto
          -47 27 -178 40 -129 10 68 37 106 60 168 101 rrcurveto
          28 17 17 14 22 vvcurveto
          15 -8 21 -17 29 vhcurveto
          39 -22 -29 13 -33 hhcurveto
          -33 -36 -17 -14 -25 hvcurveto
          -50 -33 -110 -119 -72 -100 rrcurveto
          75 -1 131 -3 177 vhcurveto
          48 -1 -17 26 -79 hhcurveto
          -100 -10 -79 -59 -53 54 -164 55 -116 hvcurveto
          -323 187 rlineto
          9 -16 -17 7 -15 hhcurveto
          -26 -21 -17 -43 -23 hvcurveto
          -12 -21 -5 -17 -15 vvcurveto
          -49 47 -34 37 -23 vhcurveto
          -51 88 126 -14 125 hhcurveto
          17 hlineto
          -353 -202 rlineto
          -29 -17 -15 -15 -22 vvcurveto
          -15 8 -21 17 -29 vhcurveto
          -40 22 31 -12 32 hhcurveto
          endchar
        </CharString>
        <CharString name="at">
          750 -170 132 263 142 -123 162 658 123 250 127 hstemhm
          132 192 227 214 716 8 225 191 -46 callgsubr
          hintmask 1101111110000000
          132 624 rmoveto
          -605 -12 432 -189 471 hhcurveto
          250 225 67 129 168 hvcurveto
          10 8 7 11 9 vvcurveto
          24 -27 27 -34 17 vhcurveto
          -140 -157 -308 -20 -134 hhcurveto
          -397 -311 232 431 9 hvcurveto
          459 10 302 353 480 hhcurveto
          398 200 -186 -289 -254 -84 -341 -240 -37 -21 12 56 30 9 58 13 60 hvcurveto
          5 22 7 23 5 22 50 197 96 343 -36 -45 -2 -4 -114 -14 -54 -6 rrcurveto
          17 -21 -90 49 -93 hhcurveto
          -248 -285 -233 -372 -23 hvcurveto
          hintmask 1011111110000000
          -227 -14 173 -111 112 hhcurveto
          122 107 50 60 82 hvcurveto
          hintmask 1101111110000000
          29 -87 89 -41 70 -1 rrcurveto
          393 -5 191 406 363 vvcurveto
          319 -266 256 -513 -595 -389 -420 -520 -10 vhcurveto
          hintmask 1011111110000000
          633 -24 rmoveto
          230 10 136 234 215 hhcurveto
          60 45 -10 -13 32 hvcurveto
          -119 -460 rlineto
          0 -11 -54 -6 -53 vhcurveto
          -34 -43 -68 -34 -100 hhcurveto
          -79 -77 74 120 5 hvcurveto
          endchar
        </CharString>
        <CharString name="atilde">
          -60 callsubr
          176 184 -60 183 -48 callgsubr
          -170 807 -177 -49 callsubr
          hintmask 1110010001000000
          -91 callsubr
          hintmask 1110010010000000
          -67 callsubr
          hintmask 1110001001000000
          -103 callsubr
          hintmask 1110010001000000
          -82 callgsubr
          hintmask 1110010010000000
          -85 callsubr
          hintmask 1110010001000000
          -44 callsubr
          -46 callgsubr
          -54 1089 rmoveto
          70 57 35 33 -57 callsubr
          hintmask 0000100100000000
          -93 callsubr
          hintmask 0001000100000000
          -57 callgsubr
          -98 -43 callsubr
        </CharString>
        <CharString name="b">
          20 callgsubr
          hstemhm
          208 202 640 -9 callgsubr
          hintmask 01111000
          196 -21 rmoveto
          hintmask 10111000
          10 -2 128 64 rlineto
          -27 64 102 -29 161 hhcurveto
          -66 callsubr
          61 1 -32 26 hvcurveto
          19 -22 4 -33 -81 vvcurveto
          hintmask 01111000
          6 -818 rlineto
          hintmask 10111000
          -52 callsubr
          endchar
        </CharString>
        <CharString name="backslash">
          -275 21 -21 hstem
          65 893 vstem
          223 1668 rmoveto
          -158 hlineto
          737 -1668 rlineto
          156 hlineto
          endchar
        </CharString>
        <CharString name="bar">
          10 callgsubr
          -339 rmoveto
          153 2207 -153 hlineto
          endchar
        </CharString>
        <CharString name="braceleft">
          9 callsubr
          323 497 -383 195 cntrmask 11100000
          hintmask 00000000
          hintmask 11110000
          323 68 rmoveto
          -222 167 -183 241 28 33 2 2 27 vhcurveto
          2 142 rlineto
          -14 -29 -32 -8 -36 hhcurveto
          -150 -47 69 151 78 27 74 26 74 hvcurveto
          hintmask 11101000
          26 74 26 74 78 vvcurveto
          128 -69 117 -119 71 vhcurveto
          118 72 70 117 127 vvcurveto
          79 -26 74 -26 74 vhcurveto
          hintmask 11110000
          -26 73 -27 75 78 vvcurveto
          150 47 70 150 36 32 -8 -14 29 vhcurveto
          -2 142 rlineto
          -11 hlineto
          2 -24 -27 2 -26 hhcurveto
          -241 -167 -183 -222 -81 28 -72 29 -74 hvcurveto
          hintmask 11101000
          28 -74 29 -74 -77 vvcurveto
          -130 -61 -62 -181 vhcurveto
          -127 vlineto
          181 61 -62 -130 -75 -28 -74 -28 -74 hvcurveto
          hintmask 11110000
          -29 -75 -29 -74 -80 vvcurveto
          endchar
        </CharString>
        <CharString name="braceright">
          9 callsubr
          243 497 -309 195 cntrmask 11100000
          hintmask 00000000
          hintmask 11110000
          740 68 rmoveto
          80 -29 74 -29 75 vhcurveto
          -28 74 -28 74 75 vvcurveto
          130 61 62 181 vhcurveto
          127 vlineto
          hintmask 11101000
          -181 -61 62 130 77 29 74 28 74 hvcurveto
          29 74 28 72 81 vvcurveto
          222 -167 183 -241 -26 -27 -2 -2 -24 vhcurveto
          -11 hlineto
          -2 -142 rlineto
          14 29 32 8 36 hhcurveto
          hintmask 11110000
          150 47 -70 -150 -78 -27 -75 -26 -73 hvcurveto
          -26 -74 -26 -74 -79 vvcurveto
          -127 70 -117 118 -72 vhcurveto
          hintmask 11101000
          -119 -71 -69 -117 -128 vvcurveto
          -78 26 -74 26 -74 vhcurveto
          26 -74 27 -74 -78 vvcurveto
          -151 -47 -69 -150 -36 -32 8 14 -29 vhcurveto
          2 -142 rlineto
          -2 27 33 -2 28 hhcurveto
          hintmask 11110000
          241 167 183 222 hvcurveto
          endchar
        </CharString>
        <CharString name="bracketleft">
          -213 -339 119 1972 116 hstem
          278 190 vstem
          278 -339 rmoveto
          459 hlineto
          14 135 rlineto
          -6 -25 -143 -10 -50 hhcurveto
          -54 -11 14 95 hvcurveto
          1707 vlineto
          145 20 11 228 vhcurveto
          13 callsubr
          -454 hlineto
          endchar
        </CharString>
        <CharString name="bracketright">
          -213 -338 116 1972 119 hstem
          595 190 vstem
          785 1869 rmoveto
          -459 hlineto
          -14 -135 rlineto
          6 25 143 10 50 hhcurveto
          54 11 -14 -95 hvcurveto
          -1707 vlineto
          -145 -20 -11 -228 vhcurveto
          -16 -116 rlineto
          454 hlineto
          endchar
        </CharString>
        <CharString name="breve">
          -279 1375 167 hstem
          154 721 vstem
          509 1375 -90 callsubr
        </CharString>
        <CharString name="breve.cap">
          -276 1704 167 hstem
          149 721 vstem
          504 1704 -88 callsubr
        </CharString>
        <CharString name="brokenbar">
          10 callgsubr
          903 rmoveto
          153 965 -153 hlineto
          -2207 vmoveto
          153 953 -153 hlineto
          endchar
        </CharString>
        <CharString name="bullet">
          -103 349 546 hstem
          327 539 vstem
          595 349 rmoveto
          150 121 116 157 156 -121 117 -150 -148 -120 -117 -156 -157 120 -116 148 hvcurveto
          endchar
        </CharString>
        <CharString name="c">
          -13 callgsubr
          hstem
          113 215 566 173 vstem
          -96 callgsubr
          endchar
        </CharString>
        <CharString name="cacute">
          -13 callgsubr
          26 callgsubr
          113 215 201 554 -189 173 hintmask 11010100
          -96 callgsubr
          hintmask 00101000
          489 764 -81 callgsubr
        </CharString>
        <CharString name="caron">
          -69 1567 -20 hstem
          199 787 vstem
          596 1334 -75 callsubr
        </CharString>
        <CharString name="caron.cap">
          -69 1664 376 hstem
          197 788 vstem
          594 1664 -79 callgsubr
        </CharString>
        <CharString name="ccaron">
          -13 callgsubr
          358 -20 hstemhm
          113 215 -59 787 -162 173 hintmask 11010100
          -96 callgsubr
          hintmask 00101000
          553 795 -75 callsubr
        </CharString>
        <CharString name="ccedilla">
          -107 -4 callgsubr
          499 178 -152 -21 1100 120 hstemhm
          113 215 332 186 48 173 hintmask 00000000
          hintmask 01101100
          385 -328 rmoveto
          -12 -168 rlineto
          hintmask 10101111
          -5 callsubr
          -48 callsubr
          -33 29 -28 31 -7 36 193 10 173 135 40 43 -38 81 rcurveline
          -49 -90 -106 -42 -133 hhcurveto
          -264 -126 173 275 314 159 165 183 203 21 -116 -130 hvcurveto
          -9 21 38 0 30 hhcurveto
          31 25 0 10 6 hvcurveto
          6 32 16 102 73 vvcurveto
          37 -1 49 -7 15 vhcurveto
          -13 3 -20 6 -17 5 rrcurveto
          18 -61 -88 25 -133 hhcurveto
          -327 -287 -240 -430 hvcurveto
          hintmask 10011110
          -312 187 -202 269 -36 vhcurveto
          -10 -17 -5 -12 -1 -18 -11 callsubr
          endchar
        </CharString>
        <CharString name="ccircumflex">
          -13 callgsubr
          132 408 hstemhm
          113 215 -70 803 -167 173 hintmask 11010100
          -96 callgsubr
          hintmask 00101000
          224 802 -87 callsubr
        </CharString>
        <CharString name="cdotaccent">
          -13 callgsubr
          25 callgsubr
          113 215 180 305 81 173 hintmask 11010100
          -96 callgsubr
          hintmask 00101000
          551 856 -84 callgsubr
        </CharString>
        <CharString name="cedilla">
          409 -4 callgsubr
          hstemhm
          453 125 -18 186 hintmask 00000000
          hintmask 01100000
          285 -328 rmoveto
          -12 -168 rlineto
          hintmask 10010000
          -5 callsubr
          -48 callsubr
          rrcurveto
          hintmask 01100000
          -50 44 -38 48 29 64 rrcurveto
          -81 hlineto
          -38 -57 -14 -13 -2 -32 -4 -54 31 -61 32 -29 rrcurveto
          hintmask 10010000
          -56 callgsubr
          endchar
        </CharString>
        <CharString name="cent">
          -107 -17 179 -140 -21 1208 -20 hstemhm
          121 211 554 170 hintmask 00000000
          hintmask 10111000
          504 1 rmoveto
          -25 -251 rlineto
          121 hlineto
          24 234 rlineto
          10 10 -1 10 hhcurveto
          198 181 146 43 40 hvcurveto
          -36 81 rlineto
          -49 -89 -105 -42 -129 hhcurveto
          -25 -24 2 3 -23 hvcurveto
          93 916 rlineto
          135 -24 16 -103 -113 vvcurveto
          -9 21 37 0 29 hhcurveto
          31 24 0 10 7 hvcurveto
          6 32 15 102 73 vvcurveto
          37 -1 49 -7 15 vhcurveto
          -49 14 -55 17 -80 23 -116 3 rlinecurve
          24 234 rlineto
          -121 hlineto
          -25 -241 rlineto
          hintmask 01111000
          -278 -43 -227 -234 -386 vvcurveto
          -286 154 -194 229 -58 vhcurveto
          21 202 rmoveto
          -130 67 -63 144 196 vvcurveto
          283 126 161 156 30 vhcurveto
          endchar
        </CharString>
        <CharString name="circumflex">
          -250 1341 408 hstem
          188 803 vstem
          267 1341 -87 callsubr
        </CharString>
        <CharString name="circumflex.cap">
          -611 1664 376 hstem
          -57 787 vstem
          1664 vmoveto
          -94 callsubr
        </CharString>
        <CharString name="colon">
          -786 -8 -21 926 -21 hstemhm
          92 320 -317 320 hintmask 10010000
          95 129 rmoveto
          -67 callgsubr
          hintmask 01100000
          -3 905 rmoveto
          -67 callgsubr
          endchar
        </CharString>
        <CharString name="comma">
          -786 -1 -21 hstem
          212 204 vstem
          89 124 -37 callgsubr
        </CharString>
        <CharString name="commaaccent">
          -591 -497 -21 hstem
          231 306 vstem
          231 -204 -97 callgsubr
        </CharString>
        <CharString name="copyright">
          746 -2 104 261 127 703 121 267 103 hstem
          173 137 233 209 974 136 vstem
          -60 callgsubr
          233 -28 rmoveto
          -319 239 -131 217 157 85 18 16 92 vhcurveto
          9 41 29 224 0 vvcurveto
          -99 hlineto
          -137 -48 -54 -35 -97 hhcurveto
          -172 -149 73 283 202 88 145 215 133 21 -36 -120 36 hvcurveto
          99 hlineto
          29 251 rlineto
          0 -193 26 -129 -336 -172 -252 -249 vhcurveto
          endchar
        </CharString>
        <CharString name="currency">
          237 263 132 641 133 hstem
          308 170 571 172 vstem
          227 310 rmoveto
          120 -117 138 155 rlineto
          0 119 -85 161 159 102 75 10 13 vhcurveto
          146 -158 121 120 -53 49 -52 51 -53 48 rlinecurve
          0 73 109 148 vvcurveto
          162 -77 106 -2 3 vhcurveto
          159 142 -120 123 -45 -52 -52 -58 -46 -52 rlinecurve
          0 -118 80 -152 -155 -93 -65 -17 -22 vhcurveto
          -147 166 -124 -125 158 -148 rlineto
          0 -77 -102 -165 vvcurveto
          -160 69 -99 2 -3 vhcurveto
          99 266 rmoveto
          207 118 112 166 162 125 -106 -215 -208 -114 -112 -167 -172 -118 112 210 vhcurveto
          endchar
        </CharString>
        <CharString name="d">
          64 -15 -7 callgsubr
          hstemhm
          109 212 604 -9 callgsubr
          hintmask 10111000
          109 545 -45 callsubr
          hintmask 01111000
          -78 callgsubr
          hintmask 10111000
          -71 callgsubr
          endchar
        </CharString>
        <CharString name="dagger">
          -97 1203 -20 hstem
          84 1031 vstem
          451 -169 rmoveto
          174 hlineto
          145 -31 114 0 hvcurveto
          -1 vlineto
          -90 1075 52 -13 214 7 callgsubr
          97 542 rlineto
          -174 -29 callgsubr
          rrcurveto
          endchar
        </CharString>
        <CharString name="daggerdbl">
          -102 1203 -20 hstem
          81 1031 vstem
          81 284 rmoveto
          465 89 -98 -542 rlineto
          175 hlineto
          134 -17 99 14 -3 hvcurveto
          -92 429 467 -90 rlineto
          153 vlineto
          131 -104 -20 -16 -3 vhcurveto
          -115 -26 -116 -29 -114 -26 66 287 rcurveline
          -66 269 52 -13 213 7 callgsubr
          98 542 rlineto
          -175 -29 callgsubr
          -66 -273 rcurveline
          65 -283 -345 77 rlineto
          0 -119 26 -134 vvcurveto
          endchar
        </CharString>
        <CharString name="dcaron">
          237 -13 -7 callgsubr
          -87 596 hstemhm
          110 212 604 197 264 186 hintmask 00010010
          1272 1157 rmoveto
          0 35 -33 51 49 166 191 210 112 -56 83 -106 -93 -75 -74 -91 -85 63 -68 81 -11 vhcurveto
          -2 -95 -68 -90 -45 -49 rrcurveto
          hintmask 00000000
          -1162 -610 -45 callsubr
          hintmask 10101100
          -78 callgsubr
          hintmask 01101100
          -71 callgsubr
          endchar
        </CharString>
        <CharString name="dcroat">
          64 -15 -7 callgsubr
          104 127 hstemhm
          109 212 599 204 -199 -9 callgsubr
          hintmask 10111010
          109 545 -45 callsubr
          18 -70 33 -70 6 -3 314 78 rcurveline
          0 6 96 4 32 vhcurveto
          -29 -9 rlineto
          -9 -27 -31 -10 -26 hhcurveto
          hintmask 01111010
          -58 -21 39 103 hvcurveto
          912 vlineto
          99 181 vlineto
          20 127 rlineto
          -199 hlineto
          5 189 9 45 3 18 rrcurveto
          1 3 0 4 5 vvcurveto
          -416 -58 -15 -114 rlineto
          hintmask 10111100
          19 hlineto
          68 66 0 -38 36 hvcurveto
          10 -9 6 -16 4 -29 rrcurveto
          -240 hlineto
          -20 -127 rlineto
          265 -112 hlineto
          -20 vlineto
          15 -54 -70 13 -97 hhcurveto
          -334 -261 -309 -355 hvcurveto
          511 -378 rmoveto
          -156 -143 160 250 hvcurveto
          hintmask 10111010
          372 145 133 221 88 115 -45 -57 36 vhcurveto
          -1 1 rlineto
          -727 vlineto
          hintmask 10111100
          2 1 -20 -21 -147 -59 -140 -8 rlinecurve
          endchar
        </CharString>
        <CharString name="degree">
          -105 847 131 590 130 hstem
          162 157 552 156 vstem
          595 847 rmoveto
          233 199 191 235 235 -199 190 -233 -233 -200 -190 -235 -235 200 -191 233 hvcurveto
          131 vmoveto
          -149 -127 123 172 171 127 124 149 149 127 -124 -171 -172 -127 -123 -149 hvcurveto
          endchar
        </CharString>
        <CharString name="dieresis">
          -273 1398 295 hstemhm
          125 304 165 304 hintmask 00000000
          hintmask 11100000
          749 1398 -84 callsubr
        </CharString>
        <CharString name="dieresis.cap">
          -273 1736 293 hstemhm
          137 298 161 298 hintmask 00000000
          hintmask 11100000
          748 1736 -91 callgsubr
        </CharString>
        <CharString name="divide">
          -105 -6 -21 533 163 227 -21 hstemhm
          156 879 -594 320 hintmask 01010000
          156 506 rmoveto
          860 hlineto
          19 163 rlineto
          -860 hlineto
          hintmask 00101000
          266 364 rmoveto
          -67 callgsubr
          hintmask 10001000
          -902 vmoveto
          -67 callgsubr
          endchar
        </CharString>
        <CharString name="dollar">
          66 -14 107 -104 104 1340 107 -11 -20 hstemhm
          183 142 -137 206 176 221 -149 81 274 221 -188 145 -46 callgsubr
          hintmask 0101011001000000
          174 32 rmoveto
          8 -2 rlineto
          4 24 26 2 23 hhcurveto
          64 62 -13 -12 64 hvcurveto
          42 -8 44 -9 47 -5 rrcurveto
          hintmask 1010010110000000
          -15 -224 rlineto
          153 hlineto
          15 221 267 17 224 130 -4 271 rlinecurve
          -4 219 -205 132 -271 118 -163 71 -176 92 -5 137 rrcurveto
          hintmask 1010011001000000
          134 -5 59 126 258 hhcurveto
          210 108 -83 -242 6 hvcurveto
          hintmask 1001011001000000
          145 hlineto
          hintmask 1010011001000000
          421 vlineto
          -9 -45 -41 -4 -37 hhcurveto
          -65 -67 8 8 -61 hvcurveto
          -25 3 -23 3 -22 2 rrcurveto
          hintmask 1010010110000000
          6 230 rlineto
          -150 hlineto
          -6 -230 rlineto
          -273 -26 -178 -159 -217 vvcurveto
          -204 207 -158 201 -82 vhcurveto
          184 -74 217 -98 -152 vvcurveto
          hintmask 1001101001000000
          -172 -105 -105 -225 -274 -53 176 190 -15 vhcurveto
          -142 hlineto
          hintmask 0101101001000000
          -77 vlineto
          -116 -2 -149 -7 -85 vhcurveto
          endchar
        </CharString>
        <CharString name="dotaccent">
          -620 1395 308 hstem
          184 305 vstem
          340 1395 -84 callgsubr
        </CharString>
        <CharString name="dotaccent.cap">
          -611 1729 308 hstem
          185 315 vstem
          347 1729 -86 callgsubr
        </CharString>
        <CharString name="dotlessi">
          -16 callsubr
          hstem
          277 194 vstem
          97 hmoveto
          -72 callsubr
        </CharString>
        <CharString name="dotlessj">
          -615 1210 -20 hstem
          287 194 vstem
          -58 callsubr
          endchar
        </CharString>
        <CharString name="e">
          -63 callsubr
          hstem
          110 209 539 227 vstem
          -104 callgsubr
          endchar
        </CharString>
        <CharString name="eacute">
          -63 callsubr
          94 457 -6 callsubr
          152 554 -167 227 hintmask 11101010
          -104 callgsubr
          hintmask 00010100
          -313 589 -81 callgsubr
        </CharString>
        <CharString name="ebreve">
          -63 callsubr
          166 167 -6 callsubr
          -69 721 -113 227 hintmask 11101010
          -104 callgsubr
          hintmask 00010100
          -252 661 -90 callsubr
        </CharString>
        <CharString name="ecaron">
          -63 callsubr
          358 -20 -6 callsubr
          -108 787 -140 227 hintmask 11101010
          -104 callgsubr
          hintmask 00010100
          -249 620 -75 callsubr
        </CharString>
        <CharString name="ecircumflex">
          -63 callsubr
          132 408 -6 callsubr
          -119 803 -145 227 hintmask 11101010
          -104 callgsubr
          hintmask 00010100
          -578 627 -87 callsubr
        </CharString>
        <CharString name="edieresis">
          -63 callsubr
          -6 callsubr
          539 227 vstemhm
          -104 callgsubr
          -14 684 -84 callsubr
        </CharString>
        <CharString name="edotaccent">
          -63 callsubr
          186 308 -6 callsubr
          131 305 103 227 hintmask 11101010
          -104 callgsubr
          hintmask 00010100
          -251 681 -84 callgsubr
        </CharString>
        <CharString name="egrave">
          -63 callsubr
          94 457 -6 callsubr
          -157 553 143 227 hintmask 11101010
          -104 callgsubr
          hintmask 00010100
          -215 589 -61 callsubr
        </CharString>
        <CharString name="eight">
          67 -16 121 1335 104 hstemhm
          153 232 -182 199 535 215 -143 203 hintmask 00000000
          hintmask 11100100
          153 361 rmoveto
          -268 320 -109 195 336 208 159 268 198 -169 116 -185 97 vhcurveto
          hintmask 11011000
          142 44 152 137 179 vvcurveto
          215 -201 147 -254 -258 -236 -123 -251 -193 139 -120 159 -93 vhcurveto
          hintmask 11100100
          -155 -48 -193 -149 -206 vvcurveto
          604 514 rmoveto
          -186 96 -169 83 159 vvcurveto
          168 145 59 145 150 95 -104 -180 -104 -70 -117 -110 -60 vhcurveto
          -372 -481 rmoveto
          hintmask 11011000
          128 77 132 147 53 vhcurveto
          16 -9 17 -8 17 -8 rrcurveto
          178 -90 172 -86 -159 vvcurveto
          -184 -157 -58 -165 -166 -136 121 168 vhcurveto
          endchar
        </CharString>
        <CharString name="ellipsis">
          238 -24 305 hstemhm
          101 310 200 310 201 309 hintmask 00000000
          hintmask 11110000
          1122 129 rmoveto
          -84 70 -69 84 85 70 69 84 84 -70 68 -85 -84 -70 -68 -84 vhcurveto
          -511 hmoveto
          -84 71 -69 84 84 71 69 84 84 -71 68 -84 -84 -71 -68 -84 vhcurveto
          -510 hmoveto
          -84 71 -69 83 85 71 69 84 84 -71 68 -85 -83 -71 -68 -84 vhcurveto
          endchar
        </CharString>
        <CharString name="emacron">
          -63 callsubr
          249 162 -6 callsubr
          -113 785 -133 227 hintmask 11101010
          -104 callgsubr
          hintmask 00010100
          -651 744 -40 callgsubr
        </CharString>
        <CharString name="emdash">
          1085 23 callgsubr
          178 2034 vstem
          178 506 rmoveto
          2015 hlineto
          19 163 rlineto
          -2015 hlineto
          endchar
        </CharString>
        <CharString name="endash">
          235 23 callgsubr
          169 1195 vstem
          169 506 rmoveto
          1175 hlineto
          20 163 rlineto
          -1175 hlineto
          endchar
        </CharString>
        <CharString name="eng">
          -23 callgsubr
          hstem
          248 197 527 195 vstem
          89 hmoveto
          520 24 callgsubr
          -6 -25 -44 -5 -19 hhcurveto
          -75 -17 10 125 hvcurveto
          672 vlineto
          -3 -2 rlineto
          30 45 137 87 137 hhcurveto
          194 17 -98 -260 hvcurveto
          -431 vlineto
          -2 -114 -12 -92 -14 -76 -31 -171 -93 -125 -97 -123 73 -59 rcurveline
          319 219 61 198 -5 193 rrcurveto
          -4 151 0 224 255 vvcurveto
          132 vlineto
          261 -151 97 -180 -167 -171 -129 -43 -53 vhcurveto
          102 11 69 0 vhcurveto
          -355 -54 -16 -126 rlineto
          76 39 -16 -24 18 hvcurveto
          20 -25 10 -57 -77 vvcurveto
          -483 vlineto
          -210 -39 -30 -104 vhcurveto
          endchar
        </CharString>
        <CharString name="eogonek">
          -103 -508 131 362 173 430 116 386 121 hstem
          111 209 221 204 114 227 vstem
          111 562 rmoveto
          -365 167 -212 340 31 36 5 8 38 vhcurveto
          -80 -60 -102 -102 -132 vvcurveto
          -135 129 -77 118 83 86 25 38 63 vhcurveto
          90 vlineto
          -1 -10 -1 -1 hhcurveto
          -5 -17 -58 -16 -57 hhcurveto
          -66 -65 29 95 134 163 156 91 81 hvcurveto
          24 16 24 17 21 18 -44 84 rcurveline
          -103 -49 callgsubr
          rrcurveto
          -226 4 -129 148 278 vvcurveto
          736 hlineto
          31 -1 84 43 hvcurveto
          10 vlineto
          311 -1 -130 175 -294 hhcurveto
          -282 -268 -254 -395 hvcurveto
          209 130 rmoveto
          196 1 137 202 156 hhcurveto
          181 64 -105 -204 -28 0 -9 -1 -28 hvcurveto
          endchar
        </CharString>
        <CharString name="equal">
          66 339 162 178 162 hstem
          185 991 vstem
          189 679 rmoveto
          967 -23 callsubr
          -968 hlineto
          -23 -502 rmoveto
          967 -23 callsubr
          -968 hlineto
          endchar
        </CharString>
        <CharString name="eth">
          24 -15 111 945 120 386 -20 hstem
          117 228 669 223 vstem
          117 570 rmoveto
          -216 72 -369 488 359 201 311 317 492 -270 317 -316 169 vhcurveto
          112 173 -116 79 -39 -61 -44 -66 -40 -61 rlinecurve
          -96 38 -100 32 -100 22 rrcurveto
          -1 -14 -39 -85 0 vvcurveto
          83 -21 85 -35 95 -45 -131 -198 rcurveline
          123 -78 130 203 119 -76 110 -110 81 -147 rlinecurve
          12 -46 -57 8 -81 hhcurveto
          -346 -236 -307 -284 hvcurveto
          228 -8 rmoveto
          252 63 227 281 134 93 -58 -54 54 vhcurveto
          28 -97 16 -107 -118 vvcurveto
          -404 -148 -107 -198 -196 -127 239 227 vhcurveto
          endchar
        </CharString>
        <CharString name="exclam">
          -614 -8 -21 hstem
          181 320 vstem
          271 429 rmoveto
          5 12 1 5 hhcurveto
          39 1 29 1 47 23 82 1192 rcurveline
          -28 51 rlineto
          -51 -178 -48 -38 -27 hvcurveto
          -25 -1483 rmoveto
          -87 73 -71 86 88 73 71 87 87 -73 70 -88 -86 -73 -70 -87 vhcurveto
          endchar
        </CharString>
        <CharString name="exclamdown">
          -614 1544 21 hstem
          182 320 vstem
          412 1107 rmoveto
          -5 -12 -1 -5 hhcurveto
          -39 -1 -29 -1 -47 -23 -82 -1192 rcurveline
          28 -51 rlineto
          51 178 48 38 27 hvcurveto
          25 1483 rmoveto
          87 -73 71 -86 -88 -73 -71 -87 -87 73 -70 88 86 73 70 87 vhcurveto
          endchar
        </CharString>
        <CharString name="f">
          -446 -50 callgsubr
          hintmask 00000000
          hintmask 10110100
          69 hmoveto
          684 hlineto
          13 -64 callgsubr
          -8 -63 -110 -2 -19 hhcurveto
          -93 -23 15 125 hvcurveto
          264 -1 262 265 vvcurveto
          318 hlineto
          12 153 rlineto
          hintmask 10111010
          -88 callgsubr
          hintmask 11010100
          -68 callgsubr
          hintmask 10110100
          -63 callgsubr
          endchar
        </CharString>
        <CharString name="ff">
          406 -50 callgsubr
          119 191 -187 200 348 181 -46 callgsubr
          hintmask 1011010000000000
          69 hmoveto
          684 hlineto
          13 -64 callgsubr
          -8 -63 -110 -2 -19 hhcurveto
          -93 -23 15 125 hvcurveto
          264 -1 262 265 vvcurveto
          318 hlineto
          12 153 rlineto
          hintmask 1011101000000000
          -88 callgsubr
          hintmask 1101010000000000
          -68 callgsubr
          hintmask 1011010000000000
          -63 callgsubr
          -46 callgsubr
          839 -106 rmoveto
          684 hlineto
          13 -64 callgsubr
          -8 -63 -110 -2 -19 hhcurveto
          -93 -23 15 125 hvcurveto
          264 -1 262 265 vvcurveto
          318 hlineto
          12 153 rlineto
          hintmask 1011000010000000
          -88 callgsubr
          hintmask 1011000101000000
          -68 callgsubr
          hintmask 1101000010000000
          -63 callgsubr
          endchar
        </CharString>
        <CharString name="fi">
          237 -27 callgsubr
          20 -20 383 151 hstemhm
          254 191 -187 200 348 181 79 311 -46 callgsubr
          hintmask 1010101000000000
          69 hmoveto
          684 hlineto
          13 -64 callgsubr
          -8 -63 -110 -2 -19 hhcurveto
          -93 -23 15 125 hvcurveto
          264 -1 262 265 vvcurveto
          318 hlineto
          12 153 rlineto
          hintmask 1010110100000000
          -88 callgsubr
          hintmask 1100101000000000
          -68 callgsubr
          hintmask 1010101000000000
          -63 callgsubr
          -46 callgsubr
          1143 1289 -53 callgsubr
          hintmask 1001000010000000
          -98 callgsubr
          endchar
        </CharString>
        <CharString name="five">
          67 -169 124 681 151 399 173 hstem
          974 239 vstem
          216 -70 rmoveto
          -66 99 183 -33 129 hhcurveto
          297 289 181 339 308 -221 128 -272 -131 -141 -54 -13 -35 hvcurveto
          80 466 rlineto
          614 hlineto
          38 65 22 149 89 vvcurveto
          -116 hlineto
          -119 -45 -60 -11 -77 hhcurveto
          -552 hlineto
          -58 -733 96 -34 rlineto
          31 91 105 13 78 hhcurveto
          187 158 -107 -200 -199 -108 -175 -263 -157 -154 51 41 -55 hvcurveto
          endchar
        </CharString>
        <CharString name="fl">
          237 -50 callgsubr
          119 202 hintmask 00000000
          hintmask 10110100
          69 hmoveto
          684 hlineto
          13 -64 callgsubr
          -8 -63 -110 -2 -19 hhcurveto
          -93 -23 15 125 hvcurveto
          264 -1 262 265 vvcurveto
          318 hlineto
          12 153 rlineto
          hintmask 10111010
          -88 callgsubr
          hintmask 11010100
          -68 callgsubr
          hintmask 10110100
          -63 callgsubr
          hintmask 10000001
          827 -106 -55 callgsubr
        </CharString>
        <CharString name="florin">
          -438 1041 149 458 121 hstemhm
          134 939 -216 216 hintmask 00000000
          hintmask 11100000
          174 -354 rmoveto
          143 -2 rlineto
          0 116 356 109 1041 vhcurveto
          257 hlineto
          30 149 rlineto
          -272 hlineto
          19 181 rlineto
          hintmask 11010000
          15 127 62 147 99 3 rrcurveto
          81 1 24 -38 -60 vvcurveto
          -25 -5 -28 -6 -30 vhcurveto
          -7 16 48 -1 13 hhcurveto
          41 -1 51 7 0 vvcurveto
          19 37 32 67 7 64 9 88 -98 46 -150 1 -314 2 -120 -233 -30 -155 -12 -66 -13 -63 -8 -64 -179 -21 rcurveline
          -24 -128 rlineto
          188 hlineto
          -95 -893 -53 -502 0 vvcurveto
          endchar
        </CharString>
        <CharString name="four">
          67 169 153 hstem
          813 209 vstem
          96 169 rmoveto
          717 hlineto
          -186 -19 -181 0 vhcurveto
          33 -38 rlineto
          73 20 125 55 0 0 -3 125 137 vvcurveto
          73 vlineto
          247 -1 33 149 rlineto
          -280 1069 hlineto
          -48 -18 -53 -7 -36 -5 rrcurveto
          1 hlineto
          -18 -2 -213 -319 -336 -437 -192 -249 rlinecurve
          -27 -35 -25 -31 -20 -27 rrcurveto
          255 61 rmoveto
          68 102 66 95 68 98 101 144 101 144 99 156 rrcurveto
          -739 vlineto
          endchar
        </CharString>
        <CharString name="fraction">
          -102 -233 1955 hstem
          31 1131 vstem
          31 -173 rmoveto
          107 -60 1024 1896 -8 4 -11 7 -7 4 rlinecurve
          -82 44 rlineto
          endchar
        </CharString>
        <CharString name="g">
          -41 callgsubr
          -18 callgsubr
          468 199 -107 164 hintmask 00000000
          hintmask 11110001
          101 -238 rmoveto
          -176 196 -104 303 312 217 164 248 194 -157 61 -238 28 vhcurveto
          -96 12 rlineto
          hintmask 11100110
          -163 18 -70 9 78 vvcurveto
          40 49 41 14 11 vhcurveto
          -3 33 39 1 26 hhcurveto
          239 267 164 268 91 -23 73 -38 57 hvcurveto
          164 3 rlineto
          170 vlineto
          -314 -45 rlineto
          30 -65 -71 14 -68 hhcurveto
          hintmask 11101001
          -326 -219 -209 -220 -138 55 -161 181 -66 hvcurveto
          hintmask 11100101
          -61 -37 -75 -102 -79 vvcurveto
          -50 32 -51 86 -38 vhcurveto
          hintmask 11110001
          -138 -57 -91 -110 -129 vvcurveto
          hintmask 11101010
          511 742 rmoveto
          -172 -125 142 151 244 145 38 130 182 101 -128 -176 -175 -110 -96 -151 hvcurveto
          -300 -695 rmoveto
          hintmask 11110001
          80 30 82 97 56 vhcurveto
          102 -14 291 -40 134 -19 -1 -142 rlinecurve
          -118 -1 -96 -83 -241 hhcurveto
          -181 -134 69 129 hvcurveto
          endchar
        </CharString>
        <CharString name="gbreve">
          -41 callgsubr
          166 167 -18 callgsubr
          -160 721 -93 -98 callsubr
          288 1566 -90 callsubr
        </CharString>
        <CharString name="gcircumflex">
          -41 callgsubr
          132 408 hstemhm
          101 211 -200 203 -120 803 -786 193 468 199 -107 164 -46 callgsubr
          hintmask 1110100001000000
          101 -238 rmoveto
          -176 196 -104 303 312 217 164 248 194 -157 61 -238 28 vhcurveto
          -96 12 rlineto
          hintmask 1110000110000000
          -163 18 -70 9 78 vvcurveto
          40 49 41 14 11 vhcurveto
          -3 33 39 1 26 hhcurveto
          239 267 164 268 91 -23 73 -38 57 hvcurveto
          164 3 rlineto
          170 vlineto
          -314 -45 rlineto
          30 -65 -71 14 -68 hhcurveto
          hintmask 1110010001000000
          -326 -219 -209 -220 -138 55 -161 181 -66 hvcurveto
          hintmask 1110000101000000
          -61 -37 -75 -102 -79 vvcurveto
          -50 32 -51 86 -38 vhcurveto
          hintmask 1110100001000000
          -138 -57 -91 -110 -129 vvcurveto
          hintmask 1110010010000000
          511 742 rmoveto
          -172 -125 142 151 244 145 38 130 182 101 -128 -176 -175 -110 -96 -151 hvcurveto
          -300 -695 rmoveto
          hintmask 1110100001000000
          80 30 82 97 56 vhcurveto
          102 -14 291 -40 134 -19 -1 -142 rlinecurve
          -118 -1 -96 -83 -241 hhcurveto
          -181 -134 69 129 hvcurveto
          hintmask 0001001000000000
          -38 1532 -87 callsubr
        </CharString>
        <CharString name="gcommaaccent">
          -41 callgsubr
          623 21 -18 callgsubr
          15 306 147 -98 callsubr
          414 1730 rmoveto
          76 -38 51 -83 8 vhcurveto
          -1 51 12 44 42 41 rrcurveto
          0 -13 43 -53 -45 -127 -130 -174 -90 40 -65 117 92 57 66 79 vhcurveto
          endchar
        </CharString>
        <CharString name="gdotaccent">
          -41 callgsubr
          186 308 -18 callgsubr
          68 305 95 -98 callsubr
          317 1586 -84 callgsubr
        </CharString>
        <CharString name="germandbls">
          237 -14 113 -99 106 932 107 503 121 hstemhm
          294 215 176 139 -86 185 104 228 -23 207 -46 callgsubr
          hintmask 0111110010000000
          92 hmoveto
          404 3 rlineto
          0 13 28 843 vvcurveto
          207 vlineto
          471 105 96 190 159 64 -133 -95 -152 -78 -80 -75 -76 vhcurveto
          -69 -71 -67 -68 -116 vvcurveto
          -187 127 -72 132 -64 vhcurveto
          117 -57 118 -54 -143 vvcurveto
          hintmask 0111101100000000
          -114 -64 -67 -131 -116 -93 40 205 -3 vhcurveto
          -133 hlineto
          -13 -303 rlineto
          hintmask 1011110010000000
          -41 144 86 -14 111 hhcurveto
          231 188 122 256 184 -193 104 -152 75 hvcurveto
          -91 43 -80 47 90 vvcurveto
          67 55 46 64 52 vhcurveto
          95 80 118 99 196 vvcurveto
          148 -100 174 -328 -417 -108 -409 -155 -7 vhcurveto
          hintmask 0111101100000000
          1 vlineto
          -25 -93 -34 -70 -2 vhcurveto
          -11 -107 rlineto
          174 -5 hlineto
          -1 -752 rlineto
          -131 -30 -44 -157 vhcurveto
          endchar
        </CharString>
        <CharString name="grave">
          -11 1303 457 hstem
          275 553 vstem
          755 1303 -61 callsubr
        </CharString>
        <CharString name="grave.cap">
          -11 1663 378 hstem
          277 635 vstem
          277 1848 -65 callsubr
        </CharString>
        <CharString name="greater">
          66 127 944 hstem
          206 958 vstem
          1164 644 rmoveto
          -958 427 rlineto
          -177 vlineto
          655 -297 -655 -292 rlineto
          -178 vlineto
          958 434 rlineto
          endchar
        </CharString>
        <CharString name="greaterequal">
          66 176 151 hstem
          228 958 vstem
          1186 1019 rmoveto
          -958 427 rlineto
          -177 vlineto
          712 -293 -712 -296 rlineto
          -179 vlineto
          958 435 rlineto
          -609 vmoveto
          -958 -151 958 hlineto
          endchar
        </CharString>
        <CharString name="guillemotleft">
          407 67 1055 hstemhm
          265 623 -72 623 hintmask 11000000
          265 600 -36 callsubr
          hintmask 10100000
          41 -522 -36 callsubr
          endchar
        </CharString>
        <CharString name="guillemotright">
          407 67 1055 hstemhm
          266 623 -72 623 hintmask 11000000
          379 1122 9 callgsubr
          507 533 rlineto
          41 522 9 callgsubr
          rlineto
          hintmask 10100000
          507 533 rlineto
          endchar
        </CharString>
        <CharString name="guilsinglleft">
          -105 67 1055 hstem
          229 623 vstem
          229 600 -36 callsubr
          endchar
        </CharString>
        <CharString name="guilsinglright">
          -105 67 1055 hstem
          317 623 vstem
          940 589 rmoveto
          -507 533 -116 -84 305 -449 -305 -447 113 -75 rlineto
          endchar
        </CharString>
        <CharString name="h">
          -23 callgsubr
          hstem
          215 200 544 201 vstem
          58 hmoveto
          -69 callsubr
          271 7 175 15 64 vhcurveto
          -401 21 callgsubr
          51 -8 callsubr
          -77 vvcurveto
          -1008 vlineto
          -184 -8 -67 -133 vhcurveto
          endchar
        </CharString>
        <CharString name="hbar">
          67 2 106 922 181 32 135 hstem
          216 200 544 201 vstem
          59 2 rmoveto
          -69 callsubr
          46 180 vlineto
          19 135 rlineto
          -198 hlineto
          2 168 7 112 12 49 -401 -59 rcurveline
          -12 -114 rlineto
          25 hlineto
          51 60 -1 -30 28 hvcurveto
          17 -22 9 -34 1 -69 rrcurveto
          -165 hlineto
          -19 -135 rlineto
          184 -884 hlineto
          -184 -8 -67 -133 vhcurveto
          endchar
        </CharString>
        <CharString name="hcircumflex">
          -23 callgsubr
          457 376 hstemhm
          215 200 -132 787 -111 201 hintmask 11010100
          58 hmoveto
          521 24 callgsubr
          -9 -36 -48 -2 -20 hhcurveto
          -48 -28 16 86 hvcurveto
          697 vlineto
          -3 -2 2 2 6 3 3 2 rlinecurve
          42 66 125 76 148 hhcurveto
          192 5 -239 -137 -275 -8 -110 -22 -77 hvcurveto
          -68 -20 -60 -16 -63 hhcurveto
          -14 -106 rlineto
          513 hlineto
          12 117 rlineto
          -6 -33 -40 -5 -18 hhcurveto
          -40 -27 8 85 hvcurveto
          30 -1 22 17 vvcurveto
          25 0 14 1 15 vhcurveto
          1 89 5 86 5 85 rrcurveto
          5 92 5 89 90 vvcurveto
          241 -138 115 -181 -198 -158 -122 -58 -70 vhcurveto
          166 vlineto
          211 7 166 15 64 vhcurveto
          -401 -59 -12 -115 rlineto
          25 hlineto
          51 -8 callsubr
          -76 vvcurveto
          -939 vlineto
          -184 -8 -67 -133 vhcurveto
          hintmask 00101000
          266 1560 rmoveto
          -94 callsubr
        </CharString>
        <CharString name="hungarumlaut">
          -11 1342 449 hstem
          316 921 vstem
          851 1342 -55 callsubr
        </CharString>
        <CharString name="hungarumlaut.cap">
          -276 1650 374 hstem
          87 856 vstem
          585 1650 -53 callsubr
        </CharString>
        <CharString name="hyphen">
          -267 23 callgsubr
          155 719 vstem
          155 506 rmoveto
          699 hlineto
          20 163 rlineto
          -699 hlineto
          endchar
        </CharString>
        <CharString name="i">
          -16 callsubr
          hstemhm
          214 311 -248 194 hintmask 00000000
          hintmask 11100000
          373 1395 -53 callgsubr
          hintmask 11010000
          -98 callgsubr
          endchar
        </CharString>
        <CharString name="iacute">
          -16 callsubr
          25 callsubr
          213 554 -490 194 hintmask 11001000
          97 hmoveto
          21 callsubr
          -98 callgsubr
          hintmask 00110000
          171 1197 -81 callgsubr
        </CharString>
        <CharString name="ibreve">
          -16 callsubr
          185 167 hstemhm
          -8 721 -436 194 hintmask 11001000
          97 hmoveto
          21 callsubr
          -98 callgsubr
          hintmask 00110000
          232 1269 -90 callsubr
        </CharString>
        <CharString name="icircumflex">
          -16 callsubr
          151 408 hstemhm
          -58 803 -468 194 hintmask 11001000
          97 hmoveto
          21 callsubr
          -98 callgsubr
          hintmask 00110000
          -94 1235 -87 callsubr
        </CharString>
        <CharString name="idieresis">
          -608 2 106 1104 -20 206 295 hstemhm
          -12 304 -14 194 -62 304 hintmask 00000000
          hintmask 00110100
          566 1398 rmoveto
          82 66 65 78 86 -66 66 -82 -89 -67 -66 -86 -78 67 -65 89 hvcurveto
          -421 hmoveto
          83 64 65 78 86 -64 66 -83 -89 -68 -66 -86 -78 68 -65 89 hvcurveto
          hintmask 11001000
          -47 -1396 -72 callgsubr
        </CharString>
        <CharString name="igrave">
          -608 2 106 1104 -20 111 4 callgsubr
          -38 502 -186 194 hintmask 00110000
          392 1303 rmoveto
          72 113 -381 344 -121 -170 rlineto
          hintmask 11001000
          136 -1588 -72 callgsubr
        </CharString>
        <CharString name="ij">
          68 0 106 1104 -20 hstemhm
          214 311 -248 194 313 437 -249 192 hintmask 00000000
          hintmask 11100000
          373 1395 -53 callgsubr
          hintmask 11010000
          -98 callgsubr
          hintmask 00000000
          954 1289 6 callgsubr
          hintmask 01001000
          -97 -1155 rmoveto
          hintmask 01000100
          -274 -37 -243 -222 -182 vhcurveto
          hintmask 01001000
          -51 callsubr
        </CharString>
        <CharString name="imacron">
          -615 2 106 1104 -20 266 162 hstemhm
          16 705 -428 194 hintmask 00110000
          16 1458 rmoveto
          685 -23 callsubr
          -685 hlineto
          hintmask 11001000
          77 -1618 -72 callgsubr
        </CharString>
        <CharString name="infinity">
          579 134 178 -171 186 579 186 -172 179 hstemhm
          150 109 1354 110 hintmask 00000000
          hintmask 01101100
          542 141 rmoveto
          190 4 122 194 41 101 rrcurveto
          hintmask 10101100
          79 -213 157 -96 155 3 246 5 197 224 -6 304 -4 220 -130 210 -258 -5 -192 -4 -122 -197 -40 -99 rrcurveto
          hintmask 10011100
          -79 212 -158 98 -154 -3 -247 -5 -195 -224 6 -304 rrcurveto
          hintmask 01101100
          4 -220 130 -211 258 6 rrcurveto
          hintmask 10101100
          9 186 rmoveto
          -144 -3 -144 100 -4 191 -3 134 82 167 180 4 152 4 72 -157 108 -237 -59 -131 -122 -70 -118 -2 rrcurveto
          hintmask 01011100
          471 376 rmoveto
          59 130 123 70 118 3 146 3 140 -95 5 -196 4 -135 -84 -163 -179 -8 -148 1 -76 153 -108 237 rrcurveto
          endchar
        </CharString>
        <CharString name="integral">
          -274 -487 141 1934 123 hstemhm
          339 188 -21 189 hintmask 00000000
          hintmask 11010000
          14 -97 rmoveto
          -20 -100 -8 -115 -75 vvcurveto
          -46 4 -31 6 -5 vhcurveto
          121 79 -18 54 hhcurveto
          254 191 176 355 202 -42 202 -42 203 hvcurveto
          hintmask 11100000
          -42 202 -42 201 204 vvcurveto
          227 54 103 178 158 13 -134 -109 21 vhcurveto
          109 hlineto
          17 99 17 144 113 vvcurveto
          0 -41 -2 -86 vhcurveto
          -71 -65 12 -65 hhcurveto
          -264 -163 -236 -278 -202 42 -202 41 -202 hvcurveto
          hintmask 11010000
          42 -202 42 -203 -203 vvcurveto
          -219 -58 -110 -153 -139 -21 148 101 -13 vhcurveto
          endchar
        </CharString>
        <CharString name="iogonek">
          -615 -508 134 376 106 1104 -20 hstemhm
          99 427 -311 79 -16 194 hintmask 00000000
          hintmask 11101000
          374 1397 rmoveto
          86 66 65 85 hvcurveto
          hintmask 11110000
          92 -66 66 -86 -90 -69 -66 -92 -85 69 -65 90 vhcurveto
          -276 -1395 rmoveto
          182 hlineto
          hintmask 11101000
          -35 -23 -146 -103 -162 vvcurveto
          -142 125 -80 131 79 88 27 40 8 callgsubr
          -77 -76 41 89 hvcurveto
          hintmask 11100100
          162 166 73 72 9 vhcurveto
          17 callgsubr
          123 -30 callgsubr
          -8 -24 -37 -4 -21 hhcurveto
          -76 -19 45 81 hvcurveto
          -7 466 -1 213 19 222 27 77 rlinecurve
          hintmask 11101000
          -414 -56 rlineto
          hintmask 11110000
          -16 -126 rlineto
          147 51 -14 -178 hvcurveto
          hintmask 11101000
          -523 vlineto
          -130 -23 -77 -139 vhcurveto
          endchar
        </CharString>
        <CharString name="itilde">
          -16 callsubr
          195 -26 callsubr
          -55 807 -475 194 hintmask 11000100
          97 hmoveto
          21 callsubr
          -98 callgsubr
          hintmask 00000000
          -82 1300 rmoveto
          70 57 35 33 -57 callsubr
          hintmask 00011000
          -93 callsubr
          hintmask 00101000
          -57 callgsubr
          -98 -43 callsubr
        </CharString>
        <CharString name="j">
          -615 1210 -20 hstemhm
          101 437 -249 192 hintmask 00000000
          hintmask 11000000
          386 1395 6 callgsubr
          hintmask 10100000
          -97 -1155 rmoveto
          hintmask 11000000
          -274 -37 -243 -222 -182 vhcurveto
          hintmask 10100000
          -51 callsubr
        </CharString>
        <CharString name="jcircumflex">
          -615 1210 -20 151 408 hstemhm
          -52 803 -464 194 hintmask 10010000
          -58 callsubr
          hintmask 01100000
          -261 1101 -87 callsubr
        </CharString>
        <CharString name="k">
          -105 0 106 973 111 hstem
          217 198 vstem
          -80 callsubr
          endchar
        </CharString>
        <CharString name="kcommaaccent">
          -105 -12 callsubr
          106 973 111 hstemhm
          217 198 133 306 hintmask 01110000
          -80 callsubr
          hintmask 10001000
          475 -310 -97 callgsubr
        </CharString>
        <CharString name="kgreenlandic">
          -107 0 106 -106 109 970 111 0 20 hstemhm
          206 200 hintmask 00000000
          hintmask 10101000
          39 hmoveto
          502 hlineto
          13 118 rlineto
          -6 -28 -32 -6 -18 hhcurveto
          -58 -10 7 125 hvcurveto
          -1 385 34 -28 78 -119 82 -121 rlinecurve
          111 -167 133 -187 51 -1 rrcurveto
          300 hlineto
          hintmask 01101000
          14 113 rlineto
          -3 -21 -14 -1 -10 hhcurveto
          -66 -61 45 79 -70 hvcurveto
          -139 172 -205 287 0 vvcurveto
          3 5 210 213 133 97 42 32 52 38 55 2 rrcurveto
          28 hlineto
          hintmask 10011000
          6 39 5 72 0 vvcurveto
          hintmask 10101000
          -491 hlineto
          -13 -111 rlineto
          2 12 -1 5 hhcurveto
          29 -1 64 -2 -41 vvcurveto
          -58 -279 -264 -80 -71 vhcurveto
          -1 383 rlineto
          hintmask 10011000
          105 10 81 0 vhcurveto
          -357 -56 -16 -126 rlineto
          77 40 -16 -24 17 hvcurveto
          19 -25 10 -57 -77 vvcurveto
          -528 vlineto
          -149 -2 -38 -46 -110 hhcurveto
          endchar
        </CharString>
        <CharString name="l">
          -615 0 106 hstem
          254 202 vstem
          57 hmoveto
          -54 callgsubr
        </CharString>
        <CharString name="lacute">
          -615 0 106 1559 -3 callsubr
          37 635 -418 202 hintmask 10010000
          57 hmoveto
          579 24 callgsubr
          -6 -24 -55 -5 -38 hhcurveto
          -62 -17 22 110 hvcurveto
          -2 887 rlineto
          72 vlineto
          294 6 61 15 84 vhcurveto
          -411 -59 -12 -115 rlineto
          25 hlineto
          53 69 1 -32 27 hvcurveto
          20 -23 8 -32 -80 vvcurveto
          -1059 vlineto
          -95 -39 -36 -141 vhcurveto
          hintmask 01100000
          2 1559 -83 callgsubr
        </CharString>
        <CharString name="lcaron">
          -443 2 106 1016 596 hstemhm
          255 202 259 187 hintmask 01010000
          602 -59 callsubr
          hintmask 10100000
          -544 -1155 -55 callgsubr
        </CharString>
        <CharString name="lcommaaccent">
          -615 -12 callsubr
          106 hstemhm
          191 306 -243 202 hintmask 01010000
          57 hmoveto
          -89 callgsubr
          hintmask 10100000
          117 -310 -97 callgsubr
        </CharString>
        <CharString name="ldot">
          -272 0 106 529 335 hstemhm
          254 202 234 340 hintmask 10100000
          57 hmoveto
          -89 callgsubr
          hintmask 01010000
          785 529 -33 callgsubr
        </CharString>
        <CharString name="less">
          66 127 944 hstem
          173 958 vstem
          173 561 rmoveto
          958 -434 rlineto
          178 vlineto
          -655 292 655 297 rlineto
          177 vlineto
          -958 -427 rlineto
          endchar
        </CharString>
        <CharString name="lessequal">
          66 176 151 hstem
          173 958 vstem
          173 936 rmoveto
          958 -435 rlineto
          179 vlineto
          -712 296 712 293 rlineto
          177 vlineto
          -958 -427 rlineto
          -843 vmoveto
          958 151 -958 hlineto
          endchar
        </CharString>
        <CharString name="logicalnot">
          -105 23 callgsubr
          832 194 vstem
          157 506 rmoveto
          675 -368 194 531 -850 hlineto
          endchar
        </CharString>
        <CharString name="lozenge">
          117 0 139 -118 -21 hstemhm
          182 1049 hintmask 00000000
          hintmask 01100000
          603 hmoveto
          197 hlineto
          hintmask 10100000
          431 672 rlineto
          52 vlineto
          -422 691 rlineto
          -196 hlineto
          -431 -671 rlineto
          -52 vlineto
          533 -553 rmoveto
          -350 597 333 540 349 -597 rlineto
          endchar
        </CharString>
        <CharString name="lslash">
          -615 2 106 hstem
          255 200 vstem
          58 2 rmoveto
          579 24 callgsubr
          -6 -24 -55 -5 -38 hhcurveto
          -62 -17 22 110 hvcurveto
          -1 579 235 88 -40 151 -196 -73 rlineto
          212 vlineto
          72 vlineto
          294 6 61 15 83 vhcurveto
          -411 -59 -12 -114 rlineto
          78 69 1 -32 27 hvcurveto
          20 -23 8 -32 -81 vvcurveto
          -457 vlineto
          -209 -78 40 -152 169 63 rlineto
          -504 vlineto
          -95 -39 -36 -141 vhcurveto
          endchar
        </CharString>
        <CharString name="m">
          751 0 106 924 179 hstem
          277 196 508 184 487 204 vstem
          115 hmoveto
          525 hlineto
          15 117 rlineto
          -6 -33 -32 -5 -22 hhcurveto
          -70 -25 10 125 hvcurveto
          674 vlineto
          -3 -2 rlineto
          0 157 117 122 199 33 -69 -267 -326 0 -120 -17 -77 vhcurveto
          -66 -15 -62 1 -61 hhcurveto
          -17 -106 rlineto
          529 24 callgsubr
          -7 -32 -36 -4 -41 hhcurveto
          -52 -26 38 157 -2 hvcurveto
          -1 106 6 96 6 95 rrcurveto
          5 85 5 83 87 vvcurveto
          27 -2 25 -3 24 vhcurveto
          40 58 102 60 89 hhcurveto
          187 35 -68 -257 -275 -6 -174 -19 -77 hvcurveto
          -66 -16 -48 -6 -50 hhcurveto
          -17 -106 rlineto
          495 hlineto
          14 117 rlineto
          -6 -33 -27 -5 -38 hhcurveto
          -54 -14 38 157 -2 hvcurveto
          -1 105 6 98 5 95 rrcurveto
          5 85 4 82 87 vvcurveto
          241 -137 114 -187 1 vhcurveto
          -156 1 -164 -128 -58 -50 rrcurveto
          119 -50 -105 58 -136 hhcurveto
          -166 -179 -138 -33 -42 hvcurveto
          80 16 90 0 vhcurveto
          -366 -54 -15 -118 rlineto
          75 42 -16 -24 18 hvcurveto
          16 -26 15 -54 -75 vvcurveto
          -495 vlineto
          -177 -39 -63 -107 vhcurveto
          endchar
        </CharString>
        <CharString name="macron">
          -620 1458 162 hstem
          -60 785 vstem
          -60 1458 -40 callgsubr
        </CharString>
        <CharString name="macron.cap">
          -611 1814 156 hstem
          -42 769 vstem
          -42 1814 -41 callsubr
        </CharString>
        <CharString name="minus">
          68 718 158 hstem
          180 906 vstem
          180 718 rmoveto
          906 158 -906 hlineto
          endchar
        </CharString>
        <CharString name="mu">
          239 -42 187 -182 158 1071 -20 hstemhm
          243 221 479 215 hintmask 00000000
          hintmask 01111000
          243 -277 rmoveto
          -121 101 -77 49 51 68 70 139 vhcurveto
          -65 60 -40 101 -24 131 rrcurveto
          -41 58 73 -22 85 hhcurveto
          132 162 91 83 62 hvcurveto
          hintmask 10111000
          -125 12 53 -54 83 hhcurveto
          95 144 55 139 88 hvcurveto
          -64 68 rlineto
          -44 -39 -58 -31 -58 hhcurveto
          -29 -24 20 118 hvcurveto
          380 vlineto
          174 2 102 13 253 vhcurveto
          -269 -56 rlineto
          0 39 -44 -217 vvcurveto
          -600 vlineto
          2 1 rlineto
          hintmask 01111000
          -72 -61 -101 -83 -144 hhcurveto
          -155 -20 114 173 162 8 383 23 239 hvcurveto
          -292 -56 rlineto
          0 43 -44 -207 vvcurveto
          -92 -1 -107 -1 -82 vhcurveto
          -1 -67 0 -66 -68 vvcurveto
          endchar
        </CharString>
        <CharString name="multiply">
          -105 229 735 hstem
          226 739 vstem
          248 352 rmoveto
          123 -116 226 234 236 -241 132 104 -252 257 249 258 -124 116 -244 -253 -237 243 -131 -104 253 -259 rlineto
          endchar
        </CharString>
        <CharString name="n">
          -23 callgsubr
          hstem
          248 200 522 199 vstem
          -101 callsubr
          endchar
        </CharString>
        <CharString name="nacute">
          -23 callgsubr
          26 callgsubr
          248 200 115 554 -147 199 hintmask 11010100
          -101 callsubr
          hintmask 00101000
          531 1197 -81 callgsubr
        </CharString>
        <CharString name="nbspace">
          -615 endchar
        </CharString>
        <CharString name="ncaron">
          -23 callgsubr
          358 -20 hstemhm
          248 200 -145 787 -120 199 hintmask 11010100
          -101 callsubr
          hintmask 00101000
          595 1228 -75 callsubr
        </CharString>
        <CharString name="ncommaaccent">
          67 -12 callsubr
          106 922 181 hstemhm
          248 200 90 306 126 199 hintmask 01110100
          -101 callsubr
          hintmask 10001000
          433 -310 -97 callgsubr
        </CharString>
        <CharString name="nine">
          67 -248 86 495 149 771 126 hstem
          116 227 656 237 vstem
          255 -163 rmoveto
          24 -85 275 6 687 219 -5 792 rlinecurve
          289 -2 -156 321 -382 hhcurveto
          -332 -248 -243 -297 -282 179 -224 296 142 137 57 73 98 hvcurveto
          -93 -338 -289 -247 -325 -38 rrcurveto
          425 642 rmoveto
          -224 -119 177 212 238 96 144 251 184 125 -183 -375 -33 -2 -32 -3 -32 hvcurveto
          -78 -90 -139 -38 -79 hhcurveto
          endchar
        </CharString>
        <CharString name="notequal">
          66 21 -21 341 162 178 162 hstem
          186 991 vstem
          372 hmoveto
          158 hlineto
          132 341 rlineto
          491 -23 callsubr
          -449 hlineto
          69 178 rlineto
          364 -23 callsubr
          -321 hlineto
          133 344 rlineto
          -160 hlineto
          -132 -344 rlineto
          -488 hlineto
          -19 -162 rlineto
          444 hlineto
          -68 -178 rlineto
          -361 hlineto
          -19 -162 rlineto
          317 hlineto
          endchar
        </CharString>
        <CharString name="ntilde">
          -23 callgsubr
          176 -26 callsubr
          248 200 -153 807 -132 199 hintmask 11001010
          -101 callsubr
          hintmask 00000000
          278 1300 rmoveto
          70 57 35 33 -57 callsubr
          hintmask 00010100
          -93 callsubr
          hintmask 00100100
          -57 callgsubr
          -98 -43 callsubr
        </CharString>
        <CharString name="numbersign">
          239 600 131 327 130 341 -20 hstem
          124 1286 vstem
          350 281 rmoveto
          149 hlineto
          58 319 rlineto
          297 hlineto
          -59 -319 rlineto
          147 hlineto
          59 319 319 1 19 130 rlineto
          -314 hlineto
          60 327 rlineto
          305 hlineto
          20 130 rlineto
          -301 18 callsubr
          -297 18 callsubr
          -304 hlineto
          -21 -130 rlineto
          301 hlineto
          -61 -327 rlineto
          -287 hlineto
          -22 -131 rlineto
          285 hlineto
          172 131 rmoveto
          60 327 rlineto
          297 hlineto
          -60 -327 rlineto
          endchar
        </CharString>
        <CharString name="o">
          -47 callsubr
          hstem
          115 228 671 234 vstem
          -102 callsubr
          endchar
        </CharString>
        <CharString name="oacute">
          -47 callsubr
          94 457 -6 callgsubr
          204 554 -87 234 hintmask 11010100
          -102 callsubr
          hintmask 00101000
          -72 1191 -81 callgsubr
        </CharString>
        <CharString name="obreve">
          -47 callsubr
          166 167 -6 callgsubr
          -17 721 -33 234 hintmask 11010100
          -102 callsubr
          hintmask 00101000
          -11 1263 -90 callsubr
        </CharString>
        <CharString name="ocircumflex">
          -47 callsubr
          132 408 -6 callgsubr
          -67 803 -65 234 hintmask 11010100
          -102 callsubr
          hintmask 00101000
          -337 1229 -87 callsubr
        </CharString>
        <CharString name="odieresis">
          -47 callsubr
          -6 callgsubr
          671 234 vstemhm
          -102 callsubr
          227 1286 -84 callsubr
        </CharString>
        <CharString name="oe">
          805 -17 173 -171 127 474 116 386 121 hstemhm
          98 224 665 210 552 227 hintmask 00000000
          hintmask 01111110
          98 595 rmoveto
          -344 178 -266 345 183 161 77 133 108 vhcurveto
          hintmask 10111110
          -137 82 140 -75 200 hhcurveto
          126 197 77 107 127 hvcurveto
          -45 84 -102 -49 callgsubr
          rlinecurve
          -226 4 -129 148 278 vvcurveto
          749 hlineto
          31 -1 84 43 hvcurveto
          10 vlineto
          311 -1 -143 175 -294 hhcurveto
          -156 -153 -76 -135 -104 hvcurveto
          130 -86 -146 81 -190 hhcurveto
          hintmask 01111110
          -316 -289 -230 -384 hvcurveto
          1099 95 rmoveto
          196 1 137 202 146 hhcurveto
          181 87 -105 -204 -28 0 -9 -1 -28 hvcurveto
          -1077 -602 rmoveto
          -220 -129 242 277 317 156 140 172 209 128 -232 -290 -314 -137 -140 -179 hvcurveto
          endchar
        </CharString>
        <CharString name="ogonek">
          -614 -508 131 hstem
          135 185 vstem
          135 -315 rmoveto
          -134 107 -59 120 82 87 25 38 62 vhcurveto
          93 vlineto
          -3 -11 -72 -22 -60 hhcurveto
          -66 -64 29 95 102 89 111 84 84 hvcurveto
          -102 16 rlineto
          0 -256 -157 -218 vvcurveto
          endchar
        </CharString>
        <CharString name="ograve">
          -47 callsubr
          94 457 -6 callgsubr
          -105 553 223 234 hintmask 11010100
          -102 callsubr
          hintmask 00101000
          26 1191 -61 callsubr
        </CharString>
        <CharString name="ohungarumlaut">
          -47 callsubr
          133 449 -6 callgsubr
          -28 921 -222 234 hintmask 11010100
          -102 callsubr
          hintmask 00101000
          158 1230 -55 callsubr
        </CharString>
        <CharString name="omacron">
          -47 callsubr
          249 162 -6 callgsubr
          -61 785 -53 234 hintmask 11010100
          -102 callsubr
          hintmask 00101000
          -410 1346 -40 callgsubr
        </CharString>
        <CharString name="one">
          -443 0 106 hstem
          354 211 vstem
          89 hmoveto
          706 hlineto
          13 124 rlineto
          -9 -39 -97 -9 -10 hhcurveto
          -98 1 46 108 hvcurveto
          466 1 201 176 vvcurveto
          74 4 132 24 73 vhcurveto
          -499 -143 36 -131 rlineto
          15 33 62 29 52 hhcurveto
          44 31 -28 -99 hvcurveto
          -106 1 -263 -285 vvcurveto
          -237 -19 -28 -151 vhcurveto
          -81 hlineto
          endchar
        </CharString>
        <CharString name="onehalf">
          921 -233 2134 -1896 138 572 114 17 111 hstemhm
          450 201 -167 1206 -381 142 369 223 hintmask 10000100
          484 -173 rmoveto
          108 -60 1098 2075 -8 4 -11 7 -7 4 rlinecurve
          -81 44 rlineto
          hintmask 01010011
          -295 -1896 -73 callsubr
          hintmask 00101000
          -1055 710 -77 callsubr
        </CharString>
        <CharString name="onequarter">
          921 2 -21 295 143 296 114 hstemhm
          455 201 994 205 hintmask 11001000
          -66 callgsubr
          hintmask 00110000
          -1412 297 -77 callsubr
        </CharString>
        <CharString name="onesuperior">
          -443 713 114 hstem
          368 201 vstem
          151 713 -77 callsubr
        </CharString>
        <CharString name="ordfeminine">
          -272 677 132 370 85 324 109 hstemhm
          118 225 -185 207 285 211 -203 192 hintmask 00000000
          hintmask 11110010
          414 677 rmoveto
          60 130 38 60 84 hvcurveto
          -66 38 69 -32 68 hhcurveto
          3 hlineto
          44 23 60 39 19 62 rrcurveto
          -52 -87 20 113 65 3 108 3 96 hvcurveto
          hintmask 11101100
          3 98 3 95 63 vvcurveto
          183 -152 55 -141 -199 -159 -101 -28 -47 vhcurveto
          -6 -8 -3 -9 7 -48 rrcurveto
          6 -51 13 -39 0 vvcurveto
          190 hlineto
          -4 22 -2 20 18 vvcurveto
          80 44 35 93 56 88 -19 -129 3 vhcurveto
          3 -176 rlineto
          hintmask 11110010
          -284 -4 -250 -103 -209 vvcurveto
          -163 116 -108 180 vhcurveto
          56 132 rmoveto
          -76 -51 69 89 131 145 80 165 1 hvcurveto
          5 -283 rlineto
          -9 vlineto
          -44 -54 -74 -34 -60 hhcurveto
          endchar
        </CharString>
        <CharString name="ordmasculine">
          -272 678 108 806 105 hstem
          103 223 373 223 vstem
          504 678 rmoveto
          265 148 209 307 5 hvcurveto
          308 5 -126 195 -276 hhcurveto
          -265 -152 -211 -307 -5 hvcurveto
          -308 -5 129 -193 277 hhcurveto
          21 108 rmoveto
          -173 -28 223 204 2 hvcurveto
          3 245 31 136 144 -2 168 -2 29 -229 -2 -201 rrcurveto
          -248 -3 -20 -126 -151 hhcurveto
          endchar
        </CharString>
        <CharString name="oslash">
          67 -13 127 -93 -21 1090 121 -10 -20 hstemhm
          111 228 671 234 hintmask 00000000
          hintmask 10101100
          297 -168 rmoveto
          150 hlineto
          63 168 rlineto
          -8 39 41 -5 45 hhcurveto
          hintmask 01101100
          337 272 274 384 hvcurveto
          hintmask 10011100
          233 -100 192 -181 88 vhcurveto
          77 201 rlineto
          -151 hlineto
          -60 -158 rlineto
          6 -35 -36 4 -38 hhcurveto
          -322 -287 -231 -383 hvcurveto
          hintmask 10101100
          -240 89 -209 179 -100 vhcurveto
          309 66 rmoveto
          -224 -125 212 307 317 150 140 176 213 132 -202 -320 -314 -141 -140 -181 hvcurveto
          endchar
        </CharString>
        <CharString name="otilde">
          -47 callsubr
          176 -26 callsubr
          115 228 -64 807 -72 234 hintmask 11001010
          -102 callsubr
          hintmask 00000000
          -325 1294 rmoveto
          70 57 35 33 -57 callsubr
          hintmask 00010100
          -93 callsubr
          hintmask 00100100
          -57 callgsubr
          -98 -43 callsubr
        </CharString>
        <CharString name="p">
          67 -21 callsubr
          hstemhm
          247 202 614 208 hintmask 00000000
          hintmask 10111100
          247 -178 rmoveto
          -202 -56 -1 callgsubr
          hintmask 01111100
          -73 callgsubr
          endchar
        </CharString>
        <CharString name="paragraph">
          66 1283 128 hstem
          666 169 143 167 vstem
          666 -167 rmoveto
          7 -2 rlineto
          162 1452 hlineto
          145 1 -3 -1453 rlineto
          169 1244 hlineto
          147 18 179 7 25 vhcurveto
          -11 -20 -395 -3 -85 hhcurveto
          -90 -427 -11 -451 -360 295 -82 186 hvcurveto
          31 hlineto
          endchar
        </CharString>
        <CharString name="parenleft">
          -213 -391 2325 hstem
          213 209 vstem
          698 -390 rmoveto
          10 -1 63 54 rlineto
          0 -349 480 642 vvcurveto
          746 348 335 0 vhcurveto
          0 -48 54 -23 14 vhcurveto
          -2 -3 0 -3 -3 hvcurveto
          -67 -51 -411 -308 -787 vvcurveto
          -743 485 -432 0 vhcurveto
          endchar
        </CharString>
        <CharString name="parenright">
          -213 -381 2325 hstem
          641 209 vstem
          365 1943 rmoveto
          -10 1 -63 -54 rlineto
          0 349 -480 -642 vvcurveto
          -746 -348 -335 0 vhcurveto
          0 48 -54 23 -14 vhcurveto
          2 3 0 3 3 hvcurveto
          67 51 411 308 787 vvcurveto
          743 -485 432 0 vhcurveto
          endchar
        </CharString>
        <CharString name="partialdiff">
          66 -12 111 803 135 413 109 hstem
          136 216 666 205 vstem
          136 532 rmoveto
          -123 45 -421 498 374 170 341 396 823 -666 11 -237 vhcurveto
          -27 -20 -1 -33 hhcurveto
          -11 -29 -98 0 vhcurveto
          37 17 1 22 hhcurveto
          172 425 -37 -449 108 hvcurveto
          49 -89 -102 24 -101 hhcurveto
          -329 -235 -207 -298 hvcurveto
          216 -16 rmoveto
          213 92 173 250 132 117 -51 -40 72 vhcurveto
          1 -26 2 -26 -26 vvcurveto
          -577 -223 -57 -125 -200 -118 205 212 vhcurveto
          endchar
        </CharString>
        <CharString name="percent">
          918 -15 95 -59 -21 661 94 21 92 -2 callsubr
          -46 callgsubr
          hintmask 1001111110000000
          -21 callgsubr
          -19 callgsubr
          47 94 rmoveto
          hintmask 0111111110000000
          -16 callgsubr
          675 -349 rmoveto
          -62 callsubr
          208 50 rmoveto
          -38 callsubr
          -123 -86 150 226 5 hvcurveto
          endchar
        </CharString>
        <CharString name="period">
          -786 -8 -21 hstem
          95 320 vstem
          95 129 rmoveto
          -67 callgsubr
          endchar
        </CharString>
        <CharString name="periodcentered">
          -446 585 335 hstem
          255 340 vstem
          424 585 -33 callgsubr
        </CharString>
        <CharString name="perthousand">
          1935 -15 95 -80 80 581 207 -2 callsubr
          186 208 410 207 -46 callgsubr
          hintmask 0111111111000000
          -21 callgsubr
          hintmask 1010001100000000
          -19 callgsubr
          hintmask 0111111111000000
          47 94 rmoveto
          -16 callgsubr
          1686 -349 rmoveto
          -62 callsubr
          -1011 hmoveto
          -62 callsubr
          1219 50 rmoveto
          -38 callsubr
          -123 -86 150 226 5 hvcurveto
          -1011 hmoveto
          hintmask 1010000011000000
          -38 callsubr
          hvcurveto
          hintmask 0111111111000000
          -123 -86 150 226 5 hvcurveto
          endchar
        </CharString>
        <CharString name="pi">
          239 8 -21 26 -21 921 178 114 -20 hstemhm
          893 180 221 133 hintmask 00000000
          hintmask 01111100
          242 101 rmoveto
          -66 45 -48 96 138 38 191 301 33 vhcurveto
          47 433 327 2 rlineto
          -22 -170 -51 -379 -125 vvcurveto
          -177 69 -71 158 123 174 114 236 10 vhcurveto
          -133 hlineto
          -10 -81 -38 -70 -51 -13 rrcurveto
          -79 -10 -43 59 158 vvcurveto
          82 26 298 11 150 vhcurveto
          30 31 1 30 hhcurveto
          91 -1 62 52 21 68 55 170 rcurveline
          -96 hlineto
          0 -27 -114 -234 vhcurveto
          -578 hlineto
          -293 -40 -203 -84 -16 hvcurveto
          -2 -11 -2 -8 -2 -7 7 -3 rcurveline
          110 hlineto
          5 11 3 12 4 10 rrcurveto
          hintmask 10111100
          30 80 8 22 160 1 rrcurveto
          34 hlineto
          -74 -432 -28 -185 -92 -110 -42 -50 rlinecurve
          hintmask 01111100
          -15 -18 -8 -11 -4 vvcurveto
          endchar
        </CharString>
        <CharString name="plus">
          -105 23 callgsubr
          502 186 vstem
          148 506 rmoveto
          354 -337 186 337 5 callsubr
          endchar
        </CharString>
        <CharString name="plusminus">
          72 11 162 333 163 hstem
          502 186 vstem
          152 11 rmoveto
          866 -23 callsubr
          -350 333 5 callsubr
          -19 -163 rlineto
          354 -333 -330 hlineto
          endchar
        </CharString>
        <CharString name="product">
          237 -170 109 1474 116 hstem
          239 214 602 214 vstem
          87 -63 rmoveto
          -17 -107 rlineto
          557 hlineto
          15 125 rlineto
          -6 -27 -49 -10 -47 hhcurveto
          -55 -11 14 146 hvcurveto
          1108 vlineto
          195 28 11 118 vhcurveto
          348 hlineto
          97 11 -36 -164 hvcurveto
          -1057 vlineto
          -149 -25 -68 -138 vhcurveto
          -19 -109 rlineto
          584 hlineto
          12 123 rlineto
          -7 -27 -67 -7 -20 hhcurveto
          -55 -31 33 116 hvcurveto
          1124 vlineto
          169 56 32 112 vhcurveto
          14 -64 callgsubr
          -1376 hlineto
          -12 -25 callgsubr
          37 41 1 11 hhcurveto
          57 30 -52 -141 hvcurveto
          -1083 vlineto
          -148 -48 -50 -97 vhcurveto
          endchar
        </CharString>
        <CharString name="q">
          67 -509 104 -104 112 382 181 916 127 hstemhm
          126 208 609 198 hintmask 00000000
          hintmask 01111100
          126 552 rmoveto
          -409 233 -158 228 117 129 42 107 116 vhcurveto
          -6 -177 rlineto
          -182 vlineto
          -149 -80 -23 -150 vhcurveto
          -11 -112 rlineto
          597 hlineto
          hintmask 10111100
          13 113 rlineto
          -6 -31 -37 -3 -22 hhcurveto
          -70 -11 26 130 hvcurveto
          967 vlineto
          212 3 109 10 172 vhcurveto
          -175 -41 rlineto
          19 -57 -82 20 -117 hhcurveto
          hintmask 01111100
          -334 -263 -312 -345 hvcurveto
          208 25 rmoveto
          372 151 133 221 88 114 -45 -57 36 vhcurveto
          -1 1 rlineto
          -728 vlineto
          2 1 rlineto
          -27 -25 -116 -61 -97 hhcurveto
          -220 -153 123 288 hvcurveto
          endchar
        </CharString>
        <CharString name="question">
          239 -8 -21 487 131 1025 110 hstemhm
          262 176 109 197 -145 320 92 260 hintmask 00000000
          hintmask 11111010
          547 651 rmoveto
          -121 95 -72 118 61 58 2 8 26 vhcurveto
          -1 128 rlineto
          0 -27 -7 -22 -50 -61 7 90 93 101 73 114 80 vhcurveto
          146 103 166 115 188 vvcurveto
          323 -319 63 -180 -165 -96 -42 -41 -95 vhcurveto
          -46 -19 -46 -20 -57 -15 rrcurveto
          -3 -35 -2 -42 -44 vvcurveto
          -61 4 -64 11 -48 vhcurveto
          0 82 -14 79 vhcurveto
          111 33 224 270 143 127 -114 -192 -148 -116 -90 -113 -89 vhcurveto
          -118 -92 -117 -92 -146 vvcurveto
          hintmask 11100110
          52 -522 rmoveto
          -67 callgsubr
          endchar
        </CharString>
        <CharString name="questiondown">
          239 -175 110 1025 131 466 21 hstemhm
          266 260 92 320 -145 197 109 176 hintmask 00000000
          hintmask 11110110
          990 898 rmoveto
          121 -95 72 -118 -61 -58 -2 -8 -26 vhcurveto
          1 -128 rlineto
          0 27 7 22 50 61 -7 -90 -93 -101 -73 -114 -80 vhcurveto
          -146 -103 -166 -115 -188 vvcurveto
          -323 319 -63 180 165 96 42 41 95 vhcurveto
          46 19 46 20 57 15 rrcurveto
          3 35 2 42 44 vvcurveto
          61 -4 64 -11 48 vhcurveto
          0 -82 14 -79 vhcurveto
          -111 -33 -224 -270 -143 -127 114 192 148 116 90 113 89 vhcurveto
          118 92 117 92 146 vvcurveto
          hintmask 11111000
          -52 522 rmoveto
          87 -73 71 -87 -87 -73 -71 -87 -87 73 -70 87 87 73 70 87 vhcurveto
          endchar
        </CharString>
        <CharString name="quotedbl">
          -104 1214 654 hstem
          242 708 vstem
          744 1214 -1 callsubr
          -374 -654 -1 callsubr
          endchar
        </CharString>
        <CharString name="quotedblbase">
          -272 -346 687 hstemhm
          76 404 66 404 hintmask 11000000
          308 341 rmoveto
          -87 callgsubr
          hintmask 10100000
          470 hmoveto
          -87 callgsubr
          endchar
        </CharString>
        <CharString name="quotedblleft">
          68 1158 27 callsubr
          hintmask 11000000
          403 1158 rmoveto
          -64 callsubr
          hintmask 10100000
          499 hmoveto
          -64 callsubr
          endchar
        </CharString>
        <CharString name="quotedblright">
          68 1064 687 -686 27 callsubr
          hintmask 01100000
          463 1752 rmoveto
          -87 callgsubr
          hintmask 10010000
          499 -1 rmoveto
          -87 callgsubr
          endchar
        </CharString>
        <CharString name="quoteleft">
          -615 1158 687 hstem
          139 404 vstem
          311 1158 rmoveto
          -64 callsubr
          endchar
        </CharString>
        <CharString name="quoteright">
          -615 1065 687 hstem
          140 404 vstem
          372 1752 rmoveto
          -87 callgsubr
          endchar
        </CharString>
        <CharString name="quotesinglbase">
          -615 -344 687 hstem
          119 404 vstem
          351 343 rmoveto
          -87 callgsubr
          endchar
        </CharString>
        <CharString name="quotesingle">
          -615 1214 654 hstem
          206 270 vstem
          270 1214 -1 callsubr
          endchar
        </CharString>
        <CharString name="r">
          18 callgsubr
          hstem
          247 200 344 188 vstem
          -94 callgsubr
          endchar
        </CharString>
        <CharString name="racute">
          18 callgsubr
          26 callgsubr
          247 200 -101 554 -109 188 hintmask 11010100
          -94 callgsubr
          hintmask 00101000
          330 1197 -81 callgsubr
        </CharString>
        <CharString name="radical">
          404 -353 2221 hstem
          164 1509 vstem
          258 467 rmoveto
          123 81 405 -901 rlineto
          169 hlineto
          718 2221 rlineto
          -237 hlineto
          -576 -1991 -293 833 rlineto
          -230 hlineto
          -173 -121 rlineto
          endchar
        </CharString>
        <CharString name="rcaron">
          18 callgsubr
          358 -20 hstemhm
          86 787 -626 200 344 188 hintmask 11001100
          -94 callgsubr
          hintmask 00110000
          394 1228 -75 callsubr
        </CharString>
        <CharString name="rcommaaccent">
          -274 -12 callsubr
          106 932 171 hstemhm
          200 306 -259 200 344 188 hintmask 01101100
          -94 callgsubr
          hintmask 10010000
          111 -310 -97 callgsubr
        </CharString>
        <CharString name="registered">
          741 -2 104 261 100 -99 114 311 97 335 113 -104 100 251 103 hstemhm
          173 137 429 187 242 204 354 136 -46 callgsubr
          hintmask 1101011111100000
          -60 callgsubr
          329 -477 rmoveto
          398 -1 16 113 rlineto
          -8 -37 -37 -4 -8 hhcurveto
          -45 -2 0 21 57 vvcurveto
          249 vlineto
          43 -2 46 -12 56 -96 5 -8 5 -8 4 -8 rrcurveto
          hintmask 1011011111100000
          60 -105 45 -81 51 -55 rrcurveto
          -36 32 57 -14 49 hhcurveto
          138 3 rlineto
          111 vlineto
          -29 -4 -62 3 -14 16 -62 73 -46 71 -142 178 -7 8 -7 7 -8 6 rrcurveto
          103 23 129 93 140 vvcurveto
          180 -134 62 -189 -44 -40 -1 -1 -37 vhcurveto
          -1 -34 -33 -1 -32 hhcurveto
          -215 -102 hlineto
          0 20 2 70 35 -1 -11 -71 vhcurveto
          1 -567 rlineto
          -75 -22 -39 -72 1 vhcurveto
          281 418 rmoveto
          hintmask 1101101111100000
          324 vlineto
          10 44 32 1 26 hhcurveto
          60 80 -27 -123 -101 -59 -80 -99 -10 hvcurveto
          hintmask 1011011111100000
          -27 3 -28 2 -29 1 rrcurveto
          endchar
        </CharString>
        <CharString name="ring">
          -793 1281 121 293 121 hstem
          -49 161 281 162 vstem
          253 1281 -70 callsubr
        </CharString>
        <CharString name="ring.cap">
          -617 1502 122 293 120 hstem
          37 162 281 161 vstem
          339 1502 -69 callgsubr
        </CharString>
        <CharString name="s">
          -34 callgsubr
          hstemhm
          132 187 423 -9 callgsubr
          hintmask 11011000
          -95 callsubr
          hintmask 10111000
          -50 callsubr
          hintmask 11011000
          -96 callsubr
          endchar
        </CharString>
        <CharString name="sacute">
          -34 callgsubr
          122 4 callgsubr
          132 187 78 554 -209 -9 callgsubr
          hintmask 11001010
          -95 callsubr
          hintmask 10101010
          -50 callsubr
          hintmask 11001010
          -96 callsubr
          hintmask 00010100
          344 1272 -81 callgsubr
        </CharString>
        <CharString name="scaron">
          -34 callgsubr
          386 -20 hstemhm
          132 187 -182 787 -182 -9 callgsubr
          hintmask 11001010
          -95 callsubr
          hintmask 10101010
          -50 callsubr
          hintmask 11001010
          -96 callsubr
          hintmask 00010100
          408 1303 -75 callsubr
        </CharString>
        <CharString name="scedilla">
          -267 -4 callgsubr
          501 120 -95 -21 1102 117 -8 -20 hstemhm
          132 187 220 186 17 197 -46 callgsubr
          hintmask 0110101010000000
          126 31 rmoveto
          3 14 25 -1 12 hhcurveto
          hintmask 1010101110000000
          33 44 -9 -10 49 hvcurveto
          44 -9 49 -10 53 -5 -11 -18 -5 -12 -1 -18 -4 -54 31 -61 32 -29 rrcurveto
          hintmask 0110101010000000
          -22 callgsubr
          hintmask 0110011010000000
          -48 callsubr
          rrcurveto
          hintmask 0110101010000000
          -34 30 -28 31 -6 37 198 12 185 125 -2 218 -2 197 -225 103 -164 73 -117 52 -111 59 -1 104 rrcurveto
          112 -1 78 51 111 hhcurveto
          154 64 -57 -156 2 hvcurveto
          124 hlineto
          14 96 18 91 93 vvcurveto
          hintmask 1001101110000000
          19 -2 15 -1 8 vhcurveto
          -96 callsubr
          endchar
        </CharString>
        <CharString name="scircumflex">
          -34 callgsubr
          160 408 hstemhm
          126 803 -797 187 423 -9 callgsubr
          hintmask 11000110
          -95 callsubr
          hintmask 10100110
          -50 callsubr
          hintmask 11000110
          -96 callsubr
          hintmask 00011000
          79 1310 -87 callsubr
        </CharString>
        <CharString name="scommaaccent">
          -267 -497 -21 503 121 986 117 -8 -20 hstemhm
          132 187 18 306 99 -9 callgsubr
          hintmask 01101010
          -95 callsubr
          hintmask 01011010
          -50 callsubr
          hintmask 01101010
          -96 callsubr
          hintmask 10000100
          211 -235 -97 callgsubr
        </CharString>
        <CharString name="section">
          22 -171 104 1663 103 hstemhm
          192 188 -152 198 461 196 -157 -9 callgsubr
          hintmask 11011000
          249 -160 rmoveto
          2 32 37 1 29 hhcurveto
          61 54 -4 -4 49 hvcurveto
          -3 41 38 -3 35 hhcurveto
          259 199 153 214 109 -49 90 -72 70 hvcurveto
          hintmask 11010100
          94 60 67 86 110 vvcurveto
          240 -234 69 -242 81 vhcurveto
          -129 43 -92 67 164 vvcurveto
          85 45 126 213 155 51 -73 -205 26 vhcurveto
          114 8 32 362 rlineto
          -2 -32 -36 -1 -29 hhcurveto
          -61 -53 4 4 -50 hvcurveto
          3 -40 -39 3 -35 hhcurveto
          -258 -201 -153 -214 -108 44 -94 68 -73 hvcurveto
          hintmask 11101000
          -83 -63 -65 -97 -108 vvcurveto
          -233 237 -73 239 -81 vhcurveto
          129 -44 90 -71 -144 vvcurveto
          -115 -46 -95 -213 -153 -51 72 205 -27 vhcurveto
          -115 -8 rlineto
          101 632 rmoveto
          hintmask 11100100
          -13 59 32 44 40 36 35 -23 38 -19 39 -14 rrcurveto
          197 -74 175 -57 -137 vvcurveto
          -47 -30 -28 -42 -27 vhcurveto
          -30 19 -31 16 -31 14 rrcurveto
          hintmask 11101000
          -136 59 -210 23 -33 156 rrcurveto
          endchar
        </CharString>
        <CharString name="semicolon">
          -786 -1 -21 919 -21 hstemhm
          92 320 -200 204 hintmask 01100000
          92 1034 rmoveto
          -67 callgsubr
          hintmask 10010000
          -3 -910 -37 callgsubr
        </CharString>
        <CharString name="seven">
          67 1179 180 hstem
          132 1089 vstem
          410 -274 rmoveto
          48 -64 rlineto
          207 hlineto
          556 1634 -56 63 rlineto
          -984 hlineto
          -21 -137 -12 -85 -16 -164 rrcurveto
          108 hlineto
          134 44 33 72 133 hhcurveto
          105 424 4 1 53 hvcurveto
          endchar
        </CharString>
        <CharString name="six">
          67 -15 127 770 150 hstem
          121 236 657 227 vstem
          121 595 rmoveto
          -289 2 176 -321 382 hhcurveto
          325 235 253 317 282 -169 195 -296 -142 -144 -57 -74 -99 hvcurveto
          96 337 290 249 325 39 -24 87 rcurveline
          -276 -6 -686 -220 5 -792 rrcurveto
          567 -483 rmoveto
          -196 -135 172 376 32 1 32 4 31 hvcurveto
          82 92 147 45 80 hhcurveto
          224 109 -146 -213 -248 -51 -163 -275 hvcurveto
          endchar
        </CharString>
        <CharString name="slash">
          -275 21 -21 hstem
          64 893 vstem
          64 hmoveto
          156 hlineto
          737 1668 rlineto
          -158 hlineto
          endchar
        </CharString>
        <CharString name="space">
          -540 endchar
        </CharString>
        <CharString name="sterling">
          237 -40 150 -119 -21 133 130 485 118 619 106 -106 117 hstemhm
          346 208 -42 212 467 189 -46 callgsubr
          hintmask 0101101010000000
          157 111 rmoveto
          hintmask 0111100110000000
          -7 -47 73 -106 17 12 rrcurveto
          0 162 133 134 85 64 -35 -35 66 vhcurveto
          -36 68 67 -37 100 hhcurveto
          242 152 128 195 106 -144 86 0 hvcurveto
          -108 -53 rlineto
          0 63 -130 -84 vvcurveto
          -44 -42 -54 -57 vhcurveto
          hintmask 1001101010000000
          -75 -63 31 28 -57 hvcurveto
          30 -58 -70 34 -89 hhcurveto
          -69 -62 -22 -21 -47 hvcurveto
          109 83 113 118 140 vvcurveto
          63 -13 63 -18 61 vhcurveto
          124 -2 128 -6 127 -9 28 144 rcurveline
          hintmask 0111100110000000
          -7 -148 -153 -2 -146 hhcurveto
          -15 39 rlineto
          -41 106 -43 113 115 vvcurveto
          140 137 105 95 1 vhcurveto
          222 3 33 -157 -91 vvcurveto
          119 hlineto
          hintmask 0101101010000000
          40 31 27 94 52 vvcurveto
          83 -74 65 -167 26 vhcurveto
          7 -45 -42 4 -41 hhcurveto
          -321 -191 -215 -259 -80 25 -92 31 -88 hvcurveto
          -67 1 -65 3 -64 3 -29 -144 rcurveline
          hintmask 0101011010000000
          87 6 92 6 92 3 rrcurveto
          32 -85 32 -82 -44 vvcurveto
          -162 -86 -87 -99 -60 vhcurveto
          -29 -20 -37 -17 -35 -15 -22 -10 -22 -10 -21 -11 rrcurveto
          endchar
        </CharString>
        <CharString name="summation">
          235 -172 118 1467 117 -84 84 16 -20 hstemhm
          182 1184 hintmask 00000000
          hintmask 11001000
          182 -110 rmoveto
          19 -62 rlineto
          1111 hlineto
          23 113 32 185 -1 111 rrcurveto
          -123 hlineto
          -21 -180 -88 -102 -181 -4 -494 -10 rcurveline
          459 745 -473 727 rlineto
          440 hlineto
          192 54 -20 -225 14 hvcurveto
          100 hlineto
          hintmask 10011000
          16 54 31 157 -1 167 rrcurveto
          hintmask 11001000
          0 -87 -16 -278 vhcurveto
          -708 -1 rlineto
          hintmask 10101000
          -16 -83 158 -248 173 -267 158 -248 rlinecurve
          endchar
        </CharString>
        <CharString name="t">
          -446 -15 170 882 153 hstem
          216 202 vstem
          -76 callsubr
          endchar
        </CharString>
        <CharString name="tbar">
          -446 -15 170 378 131 373 153 hstem
          216 202 vstem
          216 237 rmoveto
          -194 7 74 -58 166 hhcurveto
          122 152 73 70 74 hvcurveto
          -44 85 rlineto
          -27 -42 -74 -31 -74 hhcurveto
          -117 -42 23 175 hvcurveto
          180 333 vlineto
          18 131 rlineto
          -351 373 377 153 -369 307 -109 hlineto
          -36 -231 -34 -93 -197 -34 -8 -102 rcurveline
          174 -373 -140 hlineto
          -18 -131 rlineto
          158 hlineto
          endchar
        </CharString>
        <CharString name="tcaron">
          -272 -15 170 882 153 hstem
          216 203 469 187 vstem
          774 -59 callsubr
          -558 -920 rmoveto
          -194 7 74 -58 166 hhcurveto
          122 152 73 70 74 hvcurveto
          -44 85 rlineto
          -27 -41 -75 -31 -74 hhcurveto
          -117 -41 23 175 hvcurveto
          684 267 153 -259 307 -110 vlineto
          -36 -231 -34 -93 -197 -34 -8 -102 rcurveline
          174 hlineto
          endchar
        </CharString>
        <CharString name="tcommaaccent">
          -446 -497 -21 503 170 882 153 hstemhm
          216 202 -128 306 hintmask 01110000
          -76 callsubr
          hintmask 10001000
          74 -1241 -97 callgsubr
        </CharString>
        <CharString name="thorn">
          64 -21 callsubr
          hstemhm
          58 390 -203 202 639 198 hintmask 00000000
          hintmask 10110110
          245 -178 rmoveto
          -202 -54 -1 callgsubr
          18 137 rlineto
          -18 -12 -159 -4 0 vvcurveto
          -72 -6 19 114 hvcurveto
          11 vlineto
          17 -1 35 86 vvcurveto
          32 -1 40 1 46 vhcurveto
          -15 60 81 -13 109 hhcurveto
          hintmask 01111010
          -66 callsubr
          60 1 -32 27 hvcurveto
          hintmask 10110110
          19 -22 4 -33 -81 vvcurveto
          6 -818 rlineto
          201 -333 rmoveto
          hintmask 10111010
          1 -1 rlineto
          728 vlineto
          -2 -1 rlineto
          hintmask 10110110
          27 25 148 73 105 hhcurveto
          215 148 -165 -258 -313 -133 -192 -239 -99 -132 45 57 -37 hvcurveto
          endchar
        </CharString>
        <CharString name="three">
          67 -169 103 690 94 552 109 hstemhm
          186 159 -113 157 498 231 -158 238 hintmask 00000000
          hintmask 11110010
          186 79 rmoveto
          -50 3 -55 7 -72 vhcurveto
          7 -2 rlineto
          59 57 -15 -15 56 hvcurveto
          -18 67 91 -21 107 hhcurveto
          hintmask 11101100
          378 180 300 218 217 -161 126 -162 32 hvcurveto
          134 72 109 115 143 vvcurveto
          252 -238 73 -210 -87 -89 -21 -19 -75 vhcurveto
          -66 -15 -64 -16 -53 5 rrcurveto
          -2 -29 -2 -37 -40 vvcurveto
          -73 4 -90 6 -98 vhcurveto
          147 hlineto
          232 81 92 160 170 87 -106 -145 -176 -183 -123 -187 -2 vhcurveto
          -6 hlineto
          -3 -2 hlineto
          -4 -3 -1 -6 -7 vvcurveto
          hintmask 11110010
          -26 23 -71 3 -9 vhcurveto
          22 44 57 8 36 hhcurveto
          179 115 -143 -169 -225 -137 -153 -176 -176 -126 96 226 hvcurveto
          -147 hlineto
          -7 -62 -5 -51 -64 vvcurveto
          endchar
        </CharString>
        <CharString name="threequarters">
          921 2 -21 295 143 278 16 callgsubr
          673 197 -152 211 721 205 hintmask 1100000001000000
          -66 callgsubr
          -46 callgsubr
          -1470 323 16 callsubr
          hintmask 0010101100000000
          8 callsubr
          hintmask 0010101010000000
          -2 callgsubr
          hintmask 0010101100000000
          -18 callsubr
          hintmask 0010110100000000
          -39 callsubr
          hintmask 0011001100000000
          -29 callsubr
        </CharString>
        <CharString name="threesuperior">
          -267 695 16 callgsubr
          675 197 -152 211 hintmask 00000000
          hintmask 10101100
          182 739 16 callsubr
          hintmask 10101010
          8 callsubr
          hintmask 10101100
          -2 callgsubr
          hintmask 10110100
          -18 callsubr
          hintmask 11001100
          -39 callsubr
          hintmask 11001010
          -29 callsubr
        </CharString>
        <CharString name="tilde">
          -278 1385 -26 callsubr
          107 807 hintmask 00000000
          hintmask 01100000
          195 1406 rmoveto
          70 57 35 33 -57 callsubr
          hintmask 10100000
          -93 callsubr
          hintmask 01100000
          -57 callgsubr
          -98 -43 callsubr
        </CharString>
        <CharString name="tilde.cap">
          -278 1663 -26 callsubr
          97 817 hintmask 00000000
          hintmask 01100000
          196 1685 15 callgsubr
          hintmask 10100000
          -93 callsubr
          hintmask 01100000
          7 callsubr
        </CharString>
        <CharString name="trademark">
          1431 505 84 -84 87 847 91 -87 87 hstemhm
          504 189 260 99 121 246 hintmask 00000000
          hintmask 10101110
          1172 505 rmoveto
          396 hlineto
          hintmask 01011110
          9 94 rlineto
          -6 -45 -17 -3 -12 hhcurveto
          -75 -8 23 55 hvcurveto
          1 48 28 156 24 131 20 106 22 117 16 103 267 -835 rcurveline
          115 17 253 817 50 -307 15 -97 16 -103 17 -99 rlinecurve
          2 -13 2 -13 -11 vvcurveto
          -70 -47 -34 -77 vhcurveto
          -7 -76 rlineto
          461 hlineto
          8 95 rlineto
          -4 -18 -33 -4 -10 hhcurveto
          -46 1 -19 0 -20 92 -52 218 -34 212 -35 234 rrcurveto
          77 -10 39 17 69 hhcurveto
          hintmask 01101100
          11 87 rlineto
          -332 hlineto
          -17 -52 -46 -149 -33 -113 -41 -134 -46 -151 -42 -133 -110 302 -119 372 -5 58 rrcurveto
          -353 hlineto
          hintmask 10011110
          -10 -98 rlineto
          5 19 22 6 28 hhcurveto
          58 -4 -73 -37 -7 hvcurveto
          -27 -188 -46 -254 -40 -190 rrcurveto
          1 vlineto
          -24 -86 -14 -29 -84 2 rrcurveto
          hintmask 01101100
          -819 -84 rmoveto
          489 hlineto
          8 94 rlineto
          -6 -37 -32 -2 -23 hhcurveto
          -44 -24 26 102 hvcurveto
          720 129 vlineto
          104 -9 28 -72 -1 -96 rrcurveto
          99 268 -874 hlineto
          -7 -54 -8 -60 -8 -53 -14 -101 rcurveline
          88 hlineto
          40 141 26 35 96 1 rrcurveto
          113 -679 hlineto
          -116 0 -54 -143 -1 vhcurveto
          endchar
        </CharString>
        <CharString name="two">
          66 0 153 1118 109 hstem
          173 162 551 240 vstem
          148 79 rmoveto
          -29 24 -44 20 -6 vhcurveto
          954 hlineto
          22 89 20 190 1 64 rrcurveto
          -137 hlineto
          -103 -18 -61 -87 -107 hhcurveto
          -431 hlineto
          95 65 596 398 371 vvcurveto
          247 -174 146 -288 -89 -84 -17 -16 -71 vhcurveto
          -78 -17 -76 -17 -93 4 rrcurveto
          -64 vlineto
          -125 3 -30 15 -150 vhcurveto
          144 hlineto
          237 -3 113 86 199 hhcurveto
          136 106 -113 -176 -354 -531 -397 -204 -150 hvcurveto
          endchar
        </CharString>
        <CharString name="twosuperior">
          -272 713 138 703 111 hstem
          128 142 369 223 vstem
          107 713 -73 callsubr
          endchar
        </CharString>
        <CharString name="u">
          -43 callgsubr
          hstem
          209 200 523 199 vstem
          -107 callgsubr
          endchar
        </CharString>
        <CharString name="uacute">
          -43 callgsubr
          113 457 -7 callsubr
          103 554 -134 199 hintmask 11010100
          -107 callgsubr
          hintmask 00101000
          376 969 -81 callgsubr
        </CharString>
        <CharString name="ubreve">
          -43 callgsubr
          185 167 -7 callsubr
          -118 721 -80 199 hintmask 11010100
          -107 callgsubr
          hintmask 00101000
          437 1041 -90 callsubr
        </CharString>
        <CharString name="ucircumflex">
          -43 callgsubr
          151 408 -7 callsubr
          -168 803 -112 199 hintmask 11010100
          -107 callgsubr
          hintmask 00101000
          111 1007 -87 callsubr
        </CharString>
        <CharString name="udieresis">
          -43 callgsubr
          -7 callsubr
          523 199 vstemhm
          -107 callgsubr
          675 1064 -84 callsubr
        </CharString>
        <CharString name="ugrave">
          -43 callgsubr
          25 callsubr
          203 553 -547 200 523 199 hintmask 11001100
          -107 callgsubr
          hintmask 00110000
          474 969 -61 callsubr
        </CharString>
        <CharString name="uhungarumlaut">
          -43 callgsubr
          152 449 -7 callsubr
          -129 921 -269 199 hintmask 11010100
          -107 callgsubr
          hintmask 00101000
          606 1008 -55 callsubr
        </CharString>
        <CharString name="umacron">
          -43 callgsubr
          268 162 -7 callsubr
          -162 785 -100 199 hintmask 11010100
          -107 callgsubr
          hintmask 00101000
          38 1124 -40 callgsubr
        </CharString>
        <CharString name="underscore">
          235 -311 146 hstem
          -37 1597 vstem
          -18 -165 rmoveto
          -19 -146 rlineto
          1578 hlineto
          19 146 rlineto
          endchar
        </CharString>
        <CharString name="uni0001">
          endchar
        </CharString>
        <CharString name="uni0002">
          endchar
        </CharString>
        <CharString name="uni0003">
          endchar
        </CharString>
        <CharString name="uni0004">
          endchar
        </CharString>
        <CharString name="uni0005">
          endchar
        </CharString>
        <CharString name="uni0006">
          endchar
        </CharString>
        <CharString name="uni0007">
          endchar
        </CharString>
        <CharString name="uni0008">
          endchar
        </CharString>
        <CharString name="uni0009">
          endchar
        </CharString>
        <CharString name="uni0010">
          endchar
        </CharString>
        <CharString name="uni0011">
          endchar
        </CharString>
        <CharString name="uni0012">
          endchar
        </CharString>
        <CharString name="uni0013">
          endchar
        </CharString>
        <CharString name="uni0014">
          endchar
        </CharString>
        <CharString name="uni0015">
          endchar
        </CharString>
        <CharString name="uni0016">
          endchar
        </CharString>
        <CharString name="uni0017">
          endchar
        </CharString>
        <CharString name="uni0018">
          endchar
        </CharString>
        <CharString name="uni0019">
          endchar
        </CharString>
        <CharString name="uni00AD">
          -69 endchar
        </CharString>
        <CharString name="uni1E02">
          2 callsubr
          184 -3 callgsubr
          294 217 79 315 173 239 -120 243 -46 callgsubr
          hintmask 0110101001000000
          19 callgsubr
          hintmask 1010101001000000
          -10 callgsubr
          hintmask 1010101010000000
          -11 callgsubr
          hintmask 0111001001000000
          -31 callgsubr
          hintmask 1010101001000000
          -51 callgsubr
          hintmask 1010101010000000
          14 callsubr
          hintmask 0000010100000000
          239 1493 -86 callgsubr
        </CharString>
        <CharString name="uni1E03">
          20 callgsubr
          25 callgsubr
          208 202 356 305 -21 -9 callgsubr
          hintmask 01101010
          196 -21 rmoveto
          hintmask 10101010
          10 -2 128 64 rlineto
          -27 64 102 -29 161 hhcurveto
          -66 callsubr
          61 1 -32 26 hvcurveto
          19 -22 4 -33 -81 vvcurveto
          hintmask 01101010
          6 -818 rlineto
          hintmask 10101010
          -52 callsubr
          hintmask 00010100
          513 1181 -84 callgsubr
        </CharString>
        <CharString name="uni1E0A">
          -25 callsubr
          184 -3 callgsubr
          272 217 62 315 389 -75 callgsubr
          224 1521 -86 callgsubr
        </CharString>
        <CharString name="uni1E0B">
          64 -15 -7 callgsubr
          25 callgsubr
          109 212 -75 305 374 -9 callgsubr
          hintmask 10101010
          109 545 -45 callsubr
          hintmask 01101010
          -78 callgsubr
          hintmask 10101010
          -71 callgsubr
          hintmask 00010100
          -218 1228 -84 callgsubr
        </CharString>
        <CharString name="uni1E1E">
          -5 callgsubr
          203 -3 callgsubr
          262 217 129 315 -33 134 -46 callgsubr
          hintmask 0111000101000000
          -61 callgsubr
          hintmask 0110010101000000
          16 54 30 166 -1 167 rrcurveto
          hintmask 0111000101000000
          0 -85 -16 -274 vhcurveto
          -827 hlineto
          hintmask 1010100101000000
          -12 -25 callgsubr
          36 31 1 9 hhcurveto
          56 30 -52 -141 hvcurveto
          -914 vlineto
          -147 -20 -20 callsubr
          hintmask 0000001010000000
          666 1619 -86 callgsubr
        </CharString>
        <CharString name="uni1E1F">
          -446 -27 callgsubr
          383 151 -23 -3 callgsubr
          205 305 -256 191 -187 200 348 181 -46 callgsubr
          hintmask 1011000100000000
          69 hmoveto
          684 hlineto
          13 -64 callgsubr
          -8 -63 -110 -2 -19 hhcurveto
          -93 -23 15 125 hvcurveto
          264 -1 262 265 vvcurveto
          318 hlineto
          12 153 rlineto
          hintmask 1011001010000000
          -88 callgsubr
          hintmask 1101000100000000
          -68 callgsubr
          hintmask 1011000100000000
          -63 callgsubr
          hintmask 0000110000000000
          279 1595 -84 callgsubr
        </CharString>
        <CharString name="uni1E40">
          6 callsubr
          199 -3 callgsubr
          79 2079 -1191 315 hintmask 00000000
          hintmask 10010100
          -37 callsubr
          hintmask 00110100
          -42 callsubr
          hintmask 10010100
          15 callsubr
          hintmask 01010100
          -71 callsubr
          hintmask 10010100
          -29 -117 -8 -36 -121 2 rrcurveto
          hintmask 00001010
          1044 1615 -86 callgsubr
        </CharString>
        <CharString name="uni1E41">
          751 0 106 924 179 25 callgsubr
          277 196 453 305 -250 184 487 204 hintmask 11010110
          115 hmoveto
          525 hlineto
          15 117 rlineto
          -6 -33 -32 -5 -22 hhcurveto
          -70 -25 10 125 hvcurveto
          674 vlineto
          -3 -2 rlineto
          0 157 117 122 199 33 -69 -267 -326 0 -120 -17 -77 vhcurveto
          -66 -15 -62 1 -61 hhcurveto
          -17 -106 rlineto
          529 24 callgsubr
          -7 -32 -36 -4 -41 hhcurveto
          -52 -26 38 157 -2 hvcurveto
          -1 106 6 96 6 95 rrcurveto
          5 85 5 83 87 vvcurveto
          27 -2 25 -3 24 vhcurveto
          40 58 102 60 89 hhcurveto
          187 35 -68 -257 -275 -6 -174 -19 -77 hvcurveto
          -66 -16 -48 -6 -50 hhcurveto
          -17 -106 rlineto
          495 hlineto
          14 117 rlineto
          -6 -33 -27 -5 -38 hhcurveto
          -54 -14 38 157 -2 hvcurveto
          -1 105 6 98 5 95 rrcurveto
          5 85 4 82 87 vvcurveto
          241 -137 114 -187 1 vhcurveto
          -156 1 -164 -128 -58 -50 rrcurveto
          119 -50 -105 58 -136 hhcurveto
          -166 -179 -138 -33 -42 hvcurveto
          80 16 90 0 vhcurveto
          -366 -54 -15 -118 rlineto
          75 42 -16 -24 18 hvcurveto
          16 -26 15 -54 -75 vvcurveto
          -495 vlineto
          -177 -39 -63 -107 vhcurveto
          hintmask 00101000
          951 1289 -84 callgsubr
        </CharString>
        <CharString name="uni1E56">
          10 callsubr
          184 -3 callgsubr
          293 219 91 315 174 229 hintmask 00000000
          hintmask 11010101
          -65 callgsubr
          hintmask 11100101
          -34 callsubr
          hintmask 00001010
          629 1620 -86 callgsubr
        </CharString>
        <CharString name="uni1E57">
          67 -21 callsubr
          25 callgsubr
          247 202 159 305 150 208 hintmask 00000000
          hintmask 10110101
          247 -178 rmoveto
          -202 -56 -1 callgsubr
          hintmask 01110101
          -73 callgsubr
          hintmask 00001010
          316 1181 -84 callgsubr
        </CharString>
        <CharString name="uni1E60">
          -20 callgsubr
          184 -3 callgsubr
          191 215 132 315 154 232 hintmask 11010100
          -105 callgsubr
          hintmask 00101000
          530 1697 -86 callgsubr
        </CharString>
        <CharString name="uni1E61">
          -34 callgsubr
          214 -3 callgsubr
          132 187 57 305 61 -9 callgsubr
          hintmask 11001010
          -95 callsubr
          hintmask 10101010
          -50 callsubr
          hintmask 11001010
          -96 callsubr
          hintmask 00010100
          406 1364 -84 callgsubr
        </CharString>
        <CharString name="uni1E6A">
          27 callgsubr
          199 -3 callgsubr
          612 315 -270 13 callgsubr
          hintmask 11001100
          -92 callgsubr
          hintmask 00110000
          389 1617 -86 callgsubr
        </CharString>
        <CharString name="uni1E6B">
          -446 -15 170 882 153 511 -3 callgsubr
          154 305 -243 202 hintmask 11001000
          -76 callsubr
          hintmask 00110000
          94 664 -84 callgsubr
        </CharString>
        <CharString name="uogonek">
          67 -508 134 359 168 1059 -20 hstemhm
          210 200 357 194 -28 199 hintmask 00000000
          hintmask 11110100
          210 336 rmoveto
          -241 144 -110 199 139 193 103 54 63 vhcurveto
          7 -49 16 -41 13 -29 rrcurveto
          hintmask 11111000
          -46 -30 -171 -125 -154 -15 callgsubr
          180 223 94 41 12 hvcurveto
          74 19 3 124 rlineto
          0 -10 0 -3 -1 vhcurveto
          hintmask 11110100
          -4 -11 -34 -15 -24 hhcurveto
          -9 hlineto
          -46 -33 -1 143 hvcurveto
          476 vlineto
          144 3 40 6 88 vhcurveto
          3 38 3 50 4 69 -387 -56 rcurveline
          -15 -103 rlineto
          136 -2 48 -13 -147 vvcurveto
          -624 vlineto
          2 1 rlineto
          -43 -34 -142 -72 -148 hhcurveto
          -150 -51 77 212 406 18 159 14 119 hvcurveto
          9 86 -344 -56 -15 -98 rlineto
          85 -9 41 -4 -144 vvcurveto
          -96 -2 -106 -2 -91 vhcurveto
          -2 -92 -2 -89 -91 vvcurveto
          endchar
        </CharString>
        <CharString name="uring">
          -43 callgsubr
          91 121 293 121 -7 callsubr
          -64 161 281 162 -17 199 hintmask 11001001
          -107 callgsubr
          hintmask 00110110
          438 947 -70 callsubr
        </CharString>
        <CharString name="utilde">
          -43 callgsubr
          195 -26 callsubr
          209 200 -165 807 -119 199 hintmask 11001010
          -107 callgsubr
          hintmask 00000000
          123 1072 rmoveto
          70 57 35 33 -57 callsubr
          hintmask 00010100
          -93 callsubr
          hintmask 00100100
          -57 callgsubr
          -98 -43 callsubr
        </CharString>
        <CharString name="v">
          -102 5 -21 1099 107 hstem
          633 8 vstem
          556 -16 rmoveto
          8 -1 77 25 -8 3 -3 -7 372 831 28 67 rlinecurve
          104 42 29 76 39 hhcurveto
          6 13 -2 -1 9 hvcurveto
          19 111 rlineto
          -428 hlineto
          -17 -113 rlineto
          4 25 20 2 21 hhcurveto
          64 25 -43 -41 -20 -10 -42 -12 -34 hvcurveto
          -19 -53 -170 -423 -65 -161 -3 20 rcurveline
          -2 15 -3 15 -3 10 -12 31 -27 57 -30 68 rrcurveto
          -82 185 -117 267 60 vvcurveto
          74 68 13 20 12 31 0 3 15 vhcurveto
          15 106 rlineto
          -504 hlineto
          -14 -108 rlineto
          1 8 10 0 3 hhcurveto
          43 33 -38 -70 33 hvcurveto
          5 -12 436 -979 0 vvcurveto
          endchar
        </CharString>
        <CharString name="w">
          -31 callsubr
          hstemhm
          23 1851 hintmask 00000000
          hintmask 01101000
          555 -16 -35 callsubr
          hintmask 10011000
          -97 callsubr
          hintmask 01101000
          -86 callsubr
          endchar
        </CharString>
        <CharString name="wacute">
          -31 callsubr
          25 callsubr
          23 1851 -1047 554 hintmask 00000000
          hintmask 01100100
          555 -16 -35 callsubr
          hintmask 10010100
          -97 callsubr
          hintmask 01100100
          -86 callsubr
          hintmask 00001010
          345 1319 -81 callgsubr
        </CharString>
</ttFont>
